<svg width="2600" height="862" viewBox="0 0 2600 862" fill="none" xmlns="http://www.w3.org/2000/svg">
<g clip-path="url(#clip0_37_188)">
<rect width="2600" height="862" fill="white"/>
<rect width="2600" height="791" fill="#DCEAFD"/>
<mask id="mask0_37_188" style="mask-type:alpha" maskUnits="userSpaceOnUse" x="0" y="0" width="2600" height="791">
<rect width="2600" height="791" fill="#DCEAFD"/>
</mask>
<g mask="url(#mask0_37_188)">
<path d="M154.128 1208.3C-100.462 1122.73 -290.101 997.513 -224.218 901.613C-156.682 805.812 166.584 738.058 401.697 688.725C635.052 639.927 782.115 608.381 915.879 616.997C1051.19 626.346 1174.96 675.321 1380.19 695.878C1585.42 716.435 1872.11 708.573 2039.47 756.308C2208.5 804.143 2258.2 907.575 2178.82 984.112C2097.68 1061.18 1889.01 1112.09 1680.01 1175.14C1469.46 1237.46 1260.12 1312.65 995.844 1326.32C729.806 1340.54 410.37 1293.97 154.128 1208.3Z" fill="#D8E7FB"/>
</g>
<path d="M2619.3 100.628C2633.83 146.992 2677.2 189.101 2690.18 257.985C2702.03 327.018 2683.49 422.827 2625.56 444.122C2566.99 465.045 2468.53 411.976 2404.91 362.969C2340.8 314.483 2311.04 270.582 2248.29 226.926C2184.91 182.899 2088.54 139.117 2092.29 101.733C2096.03 64.348 2200.88 32.3192 2277.11 9.52548C2353.83 -13.7888 2403.06 -28.0173 2457.36 -36.081C2511.66 -44.1446 2572.16 -46.1927 2595.17 -22.3524C2618.33 2.37964 2604.14 53.8919 2619.3 100.628Z" fill="#D8E7FB"/>
<path d="M356.177 286.579L285.506 131.699C282.963 125.799 280.219 120.167 277.274 114.803C274.329 109.305 271.519 104.411 268.842 100.12C266.299 95.8289 264.023 92.2754 262.015 89.4594C260.008 86.5093 258.669 84.632 258 83.8274V83.0228H310.602V83.8274C310.334 84.4979 310.134 85.5036 310 86.8445C309.866 88.1855 309.799 89.3923 309.799 90.4651C309.799 94.622 310.401 99.2483 311.606 104.344C312.944 109.305 315.354 115.541 318.834 123.05L374.247 243.735L424.841 124.659C426.983 119.698 429.124 114.267 431.266 108.367C433.541 102.467 434.679 96.4994 434.679 90.4651C434.679 88.7219 434.545 87.3139 434.277 86.2411C434.01 85.0343 433.742 84.2297 433.474 83.8274V83.0228H469.613V83.8274C467.204 86.3752 464.125 90.9344 460.378 97.5051C456.764 103.942 452.882 112.054 448.733 121.843L352.965 350.341C350.823 355.302 348.615 360.733 346.339 366.633C344.198 372.533 343.127 378.501 343.127 384.535C343.127 386.278 343.261 387.686 343.529 388.759C343.796 389.966 344.064 390.77 344.332 391.173V391.977H306.787V391.173C309.331 388.625 312.409 384.133 316.023 377.696C319.771 371.394 323.719 363.415 327.868 353.76L356.177 286.579Z" fill="white" fill-opacity="0.14"/>
<path d="M480.856 185.605C480.856 170.453 483.667 156.44 489.289 143.567C494.91 130.559 502.606 119.295 512.377 109.775C522.282 100.254 533.927 92.8118 547.311 87.448C560.696 82.0842 575.085 79.4023 590.477 79.4023C605.602 79.4023 619.79 81.9501 633.041 87.0457C646.426 92.0072 658.07 99.1142 667.975 108.367C677.88 117.619 685.643 128.883 691.265 142.159C697.02 155.434 699.898 170.319 699.898 186.812C699.898 200.624 697.488 213.899 692.67 226.638C687.851 239.377 680.758 250.641 671.388 260.43C662.019 270.219 650.508 278.064 636.855 283.964C623.337 289.73 607.744 292.613 590.076 292.613C575.085 292.613 560.964 290.132 547.713 285.171C534.462 280.209 522.884 273.102 512.98 263.85C503.075 254.597 495.245 243.4 489.489 230.259C483.734 216.983 480.856 202.099 480.856 185.605ZM594.694 277.93C604.197 277.93 612.897 276.052 620.794 272.298C628.825 268.543 635.718 263.112 641.473 256.005C647.229 248.898 651.713 240.249 654.925 230.058C658.137 219.867 659.743 208.334 659.743 195.461C659.743 180.979 658.204 167.57 655.126 155.233C652.047 142.762 647.429 132.034 641.272 123.05C635.249 113.932 627.62 106.825 618.385 101.729C609.149 96.6335 598.374 94.0857 586.06 94.0857C576.557 94.0857 567.857 95.963 559.96 99.7176C552.063 103.338 545.17 108.635 539.281 115.608C533.525 122.581 529.041 131.163 525.829 141.354C522.617 151.411 521.01 162.876 521.01 175.749C521.01 190.232 522.55 203.708 525.628 216.179C528.841 228.65 533.525 239.511 539.682 248.764C545.839 257.882 553.468 265.056 562.57 270.286C571.806 275.382 582.513 277.93 594.694 277.93Z" fill="white" fill-opacity="0.14"/>
<path d="M822.77 380.914C833.611 380.914 842.78 379.707 850.275 377.294C857.771 375.014 863.928 371.796 868.746 367.639C873.699 363.482 877.446 358.453 879.99 352.553C882.667 346.787 884.607 340.418 885.812 333.445C887.15 326.472 887.887 319.03 888.02 311.118C888.288 303.206 888.422 295.027 888.422 286.579V279.941C881.863 283.427 873.966 286.445 864.731 288.992C855.495 291.406 845.055 292.613 833.411 292.613C817.483 292.613 803.027 290.132 790.044 285.171C777.061 280.209 765.951 273.102 756.716 263.85C747.614 254.597 740.587 243.4 735.635 230.259C730.683 216.983 728.206 202.099 728.206 185.605C728.206 170.453 730.616 156.373 735.434 143.365C740.387 130.358 747.28 119.094 756.114 109.574C765.081 100.053 775.722 92.6106 788.036 87.2468C800.484 81.7489 814.204 79 829.194 79C835.619 79 841.508 79.5364 846.862 80.6091C852.216 81.6819 857.169 83.1569 861.719 85.0343C866.404 86.7775 870.754 88.856 874.77 91.2697C878.919 93.5493 882.934 96.03 886.816 98.7119L884.808 83.8274V83.0228H929.179V83.8274C928.376 86.6434 927.572 90.1299 926.769 94.2868C926.1 98.4437 925.498 103.606 924.962 109.775C924.561 115.943 924.159 123.318 923.758 131.9C923.49 140.348 923.356 150.271 923.356 161.669V298.446C923.356 310.783 921.683 322.784 918.337 334.451C915.125 346.251 909.57 356.71 901.673 365.829C893.91 374.947 883.603 382.255 870.754 387.753C857.905 393.251 841.91 396 822.77 396C816.077 396 809.318 395.33 802.492 393.989C795.666 392.782 789.174 391.24 783.017 389.362C776.86 387.619 771.305 385.675 766.353 383.529C761.401 381.384 757.452 379.506 754.508 377.897L748.284 339.278L751.496 338.473C754.708 345.446 759.058 351.548 764.546 356.777C770.168 362.141 776.258 366.566 782.816 370.053C789.375 373.673 796.134 376.355 803.094 378.098C810.188 379.976 816.747 380.914 822.77 380.914ZM842.445 277.93C852.082 277.93 860.782 276.32 868.546 273.102C876.443 269.884 883.068 266.129 888.422 261.838V161.669C888.422 154.16 888.355 147.388 888.221 141.354C888.087 135.186 888.02 129.621 888.02 124.659C884.808 119.698 881.06 115.34 876.777 111.585C872.628 107.696 868.144 104.478 863.326 101.93C858.641 99.2483 853.822 97.2369 848.87 95.8959C843.918 94.4209 839.032 93.6834 834.214 93.6834C824.041 93.6834 814.873 95.5607 806.708 99.3154C798.543 103.07 791.583 108.501 785.828 115.608C780.206 122.581 775.856 131.163 772.778 141.354C769.833 151.411 768.361 162.876 768.361 175.749C768.361 190.232 769.967 203.708 773.179 216.179C776.392 228.65 781.076 239.511 787.233 248.764C793.524 257.882 801.287 265.056 810.523 270.286C819.758 275.382 830.399 277.93 842.445 277.93Z" fill="white" fill-opacity="0.14"/>
<path d="M969.132 229.655C969.132 219.062 971.274 209.876 975.557 202.099C979.974 194.321 985.796 187.684 993.024 182.186C1000.25 176.688 1008.48 172.263 1017.72 168.911C1026.95 165.424 1036.52 162.742 1046.43 160.865C1056.33 158.853 1066.1 157.512 1075.74 156.842C1085.38 156.037 1094.21 155.568 1102.24 155.434V145.176C1102.24 136.326 1101.11 128.682 1098.83 122.246C1096.55 115.809 1093.34 110.512 1089.19 106.355C1085.04 102.064 1080.02 98.9131 1074.14 96.9016C1068.38 94.7561 1062.02 93.6834 1055.06 93.6834C1050.24 93.6834 1045.49 94.0857 1040.81 94.8902C1036.12 95.6948 1031.24 97.0357 1026.15 98.9131C1021.2 100.79 1015.91 103.338 1010.29 106.556C1004.8 109.775 998.846 113.865 992.422 118.826L990.414 117.619L1004.07 89.2582C1008.48 87.2468 1012.83 85.6377 1017.12 84.4308C1021.4 83.0899 1025.75 82.0171 1030.17 81.2126C1034.58 80.408 1039.07 79.8716 1043.62 79.6034C1048.3 79.2011 1053.19 79 1058.27 79C1072.33 79 1084.31 80.7432 1094.21 84.2297C1104.25 87.5821 1112.42 92.2754 1118.71 98.3096C1125.13 104.21 1129.82 111.183 1132.76 119.228C1135.71 127.14 1137.18 135.655 1137.18 144.773V210.346C1137.18 221.744 1137.31 231.734 1137.58 240.316C1137.98 248.764 1138.38 256.072 1138.78 262.24C1139.32 268.409 1139.92 273.571 1140.59 277.728C1141.39 281.885 1142.2 285.372 1143 288.188V288.992H1098.63V288.188C1099.3 286.042 1099.77 283.629 1100.03 280.947C1100.44 278.265 1100.77 275.047 1101.04 271.292C1098.23 273.706 1094.88 276.186 1091 278.734C1087.25 281.282 1082.9 283.629 1077.95 285.774C1073.13 287.786 1067.71 289.395 1061.69 290.602C1055.8 291.942 1049.31 292.613 1042.21 292.613C1018.92 292.613 1000.92 287.182 988.205 276.32C975.49 265.325 969.132 249.77 969.132 229.655ZM1102.24 171.123C1090.06 171.257 1078.35 171.995 1067.11 173.336C1055.87 174.543 1045.89 177.157 1037.19 181.18C1028.63 185.203 1021.73 190.969 1016.51 198.478C1011.43 205.854 1008.88 215.71 1008.88 228.046C1008.88 243.87 1012.83 255.938 1020.73 264.252C1028.63 272.566 1039.54 276.723 1053.46 276.723C1059.88 276.723 1065.7 275.851 1070.92 274.108C1076.28 272.231 1080.96 269.951 1084.98 267.269C1089.13 264.453 1092.61 261.436 1095.42 258.218C1098.23 254.865 1100.37 251.647 1101.84 248.563C1102.11 243.467 1102.24 237.835 1102.24 231.667C1102.24 225.364 1102.24 218.257 1102.24 210.346V171.123Z" fill="white" fill-opacity="0.14"/>
<path d="M1806.7 519.042C1806.7 509.283 1804.73 502.112 1800.8 497.529C1796.88 492.945 1791.62 490.653 1785.02 490.653C1782.58 490.653 1779.83 491.171 1776.8 492.206C1773.83 493.167 1770.76 494.498 1767.57 496.198C1764.46 497.898 1761.35 499.894 1758.23 502.186C1755.12 504.404 1752.23 506.77 1749.56 509.283V550.424C1749.56 556.708 1749.64 562.215 1749.79 566.947C1749.93 571.604 1750.16 575.633 1750.45 579.034C1750.75 582.434 1751.08 585.281 1751.45 587.572C1751.82 589.864 1752.23 591.786 1752.68 593.339V593.782H1727V593.339C1727.44 591.786 1727.85 589.864 1728.22 587.572C1728.67 585.281 1729 582.434 1729.22 579.034C1729.52 575.633 1729.74 571.604 1729.89 566.947C1730.11 562.215 1730.22 556.708 1730.22 550.424V471.358C1730.22 465.075 1730.11 459.604 1729.89 454.947C1729.74 450.215 1729.52 446.149 1729.22 442.749C1729 439.348 1728.67 436.502 1728.22 434.21C1727.85 431.918 1727.44 429.996 1727 428.444V428H1752.68V428.444C1752.23 429.996 1751.82 431.918 1751.45 434.21C1751.08 436.502 1750.75 439.348 1750.45 442.749C1750.16 446.149 1749.93 450.215 1749.79 454.947C1749.64 459.604 1749.56 465.075 1749.56 471.358V499.747C1752.53 497.085 1755.79 494.461 1759.35 491.873C1762.98 489.286 1766.72 486.957 1770.57 484.887C1774.42 482.817 1778.35 481.154 1782.35 479.897C1786.35 478.64 1790.28 478.012 1794.14 478.012C1799.92 478.012 1804.81 479.01 1808.81 481.006C1812.88 483.002 1816.18 485.626 1818.7 488.879C1821.29 492.132 1823.15 495.865 1824.26 500.079C1825.44 504.219 1826.04 508.433 1826.04 512.721V550.424C1826.04 556.708 1826.11 562.215 1826.26 566.947C1826.41 571.604 1826.63 575.633 1826.92 579.034C1827.22 582.434 1827.55 585.281 1827.93 587.572C1828.3 589.864 1828.7 591.786 1829.15 593.339V593.782H1803.47V593.339C1803.92 591.786 1804.32 589.864 1804.69 587.572C1805.14 585.281 1805.47 582.434 1805.7 579.034C1805.99 575.633 1806.21 571.604 1806.36 566.947C1806.58 562.215 1806.7 556.708 1806.7 550.424V519.042Z" fill="white" fill-opacity="0.14"/>
<path d="M1909.4 595.778C1901.17 595.778 1893.47 594.484 1886.28 591.897C1879.09 589.31 1872.83 585.539 1867.5 580.586C1862.16 575.559 1857.94 569.386 1854.82 562.067C1851.79 554.675 1850.27 546.247 1850.27 536.784C1850.27 528.43 1851.67 520.705 1854.49 513.608C1857.31 506.437 1861.2 500.227 1866.16 494.978C1871.13 489.729 1876.91 485.626 1883.5 482.669C1890.17 479.712 1897.36 478.234 1905.06 478.234C1912.7 478.234 1919.77 479.564 1926.29 482.226C1932.82 484.813 1938.45 488.62 1943.19 493.648C1948.01 498.601 1951.78 504.774 1954.53 512.166C1957.34 519.485 1958.86 527.839 1959.08 537.228C1950.71 537.08 1942.34 536.969 1933.96 536.895C1925.59 536.821 1916.88 536.784 1907.84 536.784C1901.4 536.784 1895.1 536.821 1888.95 536.895C1882.87 536.969 1877.39 537.08 1872.5 537.228C1872.94 544.916 1874.13 551.865 1876.05 558.075C1878.05 564.285 1880.76 569.608 1884.17 574.044C1887.65 578.405 1891.84 581.769 1896.73 584.135C1901.69 586.5 1907.29 587.683 1913.51 587.683C1917.81 587.683 1921.85 587.203 1925.63 586.242C1929.48 585.207 1932.96 583.802 1936.08 582.028C1939.19 580.253 1941.97 578.183 1944.41 575.818C1946.86 573.378 1948.93 570.754 1950.64 567.945L1951.97 568.61L1943.74 588.349C1939.74 590.418 1934.96 592.193 1929.41 593.671C1923.85 595.076 1917.18 595.778 1909.4 595.778ZM1894.62 528.135C1902.03 528.135 1909.44 528.135 1916.85 528.135C1924.33 528.061 1931.11 527.913 1937.19 527.691C1936.52 521.259 1935.26 515.493 1933.41 510.392C1931.56 505.291 1929.18 500.966 1926.29 497.418C1923.4 493.869 1920 491.134 1916.07 489.212C1912.14 487.29 1907.81 486.329 1903.06 486.329C1898.77 486.329 1894.8 487.29 1891.17 489.212C1887.61 491.06 1884.5 493.758 1881.83 497.307C1879.17 500.855 1877.02 505.217 1875.39 510.392C1873.76 515.493 1872.79 521.333 1872.5 527.913C1875.83 528.061 1879.35 528.135 1883.06 528.135C1886.76 528.135 1890.61 528.135 1894.62 528.135Z" fill="white" fill-opacity="0.14"/>
<path d="M1974.09 561.069C1974.09 555.229 1975.27 550.165 1977.65 545.877C1980.09 541.589 1983.31 537.93 1987.32 534.899C1991.32 531.868 1995.87 529.428 2000.99 527.58C2006.1 525.658 2011.4 524.18 2016.88 523.145C2022.37 522.036 2027.78 521.296 2033.11 520.927C2038.45 520.483 2043.34 520.224 2047.78 520.15V514.495C2047.78 509.616 2047.15 505.402 2045.89 501.853C2044.63 498.305 2042.85 495.385 2040.56 493.093C2038.26 490.727 2035.48 488.99 2032.22 487.881C2029.04 486.698 2025.52 486.107 2021.66 486.107C2018.99 486.107 2016.36 486.329 2013.77 486.772C2011.18 487.216 2008.47 487.955 2005.66 488.99C2002.91 490.025 1999.99 491.43 1996.88 493.204C1993.84 494.978 1990.54 497.233 1986.98 499.968L1985.87 499.303L1993.43 483.667C1995.87 482.558 1998.28 481.671 2000.65 481.006C2003.03 480.267 2005.43 479.675 2007.88 479.232C2010.32 478.788 2012.81 478.492 2015.33 478.345C2017.92 478.123 2020.62 478.012 2023.44 478.012C2031.22 478.012 2037.85 478.973 2043.34 480.895C2048.89 482.743 2053.41 485.331 2056.9 488.657C2060.45 491.91 2063.05 495.754 2064.68 500.19C2066.31 504.552 2067.12 509.246 2067.12 514.273V550.424C2067.12 556.708 2067.2 562.215 2067.35 566.947C2067.57 571.604 2067.79 575.633 2068.01 579.034C2068.31 582.434 2068.64 585.281 2069.01 587.572C2069.46 589.864 2069.9 591.786 2070.35 593.339V593.782H2045.78V593.339C2046.15 592.156 2046.41 590.825 2046.56 589.347C2046.78 587.868 2046.97 586.094 2047.12 584.024C2045.56 585.354 2043.71 586.722 2041.56 588.127C2039.48 589.531 2037.08 590.825 2034.33 592.008C2031.67 593.117 2028.66 594.004 2025.33 594.669C2022.07 595.409 2018.48 595.778 2014.55 595.778C2001.65 595.778 1991.69 592.784 1984.65 586.796C1977.61 580.734 1974.09 572.158 1974.09 561.069ZM2047.78 528.8C2041.04 528.874 2034.56 529.281 2028.33 530.02C2022.11 530.685 2016.59 532.127 2011.77 534.345C2007.03 536.562 2003.21 539.741 2000.32 543.881C1997.51 547.947 1996.1 553.381 1996.1 560.182C1996.1 568.906 1998.28 575.559 2002.66 580.143C2007.03 584.726 2013.07 587.018 2020.77 587.018C2024.33 587.018 2027.55 586.537 2030.44 585.576C2033.41 584.541 2036 583.284 2038.22 581.806C2040.52 580.253 2042.45 578.59 2044 576.816C2045.56 574.968 2046.75 573.193 2047.56 571.493C2047.71 568.684 2047.78 565.579 2047.78 562.178C2047.78 558.704 2047.78 554.785 2047.78 550.424V528.8Z" fill="white" fill-opacity="0.14"/>
<path d="M2101.47 471.358C2101.47 465.075 2101.36 459.604 2101.14 454.947C2100.99 450.215 2100.76 446.149 2100.47 442.749C2100.25 439.348 2099.91 436.502 2099.47 434.21C2099.1 431.918 2098.69 429.996 2098.25 428.444V428H2123.92V428.444C2123.48 429.996 2123.07 431.918 2122.7 434.21C2122.33 436.502 2121.99 439.348 2121.7 442.749C2121.4 446.149 2121.18 450.215 2121.03 454.947C2120.88 459.604 2120.81 465.075 2120.81 471.358V550.424C2120.81 556.708 2120.88 562.215 2121.03 566.947C2121.18 571.604 2121.4 575.633 2121.7 579.034C2121.99 582.434 2122.33 585.281 2122.7 587.572C2123.07 589.864 2123.48 591.786 2123.92 593.339V593.782H2098.25V593.339C2098.69 591.786 2099.1 589.864 2099.47 587.572C2099.91 585.281 2100.25 582.434 2100.47 579.034C2100.76 575.633 2100.99 571.604 2101.14 566.947C2101.36 562.215 2101.47 556.708 2101.47 550.424V471.358Z" fill="white" fill-opacity="0.14"/>
<path d="M2195.95 587.24C2198.17 587.24 2200.36 586.833 2202.51 586.02C2204.73 585.207 2206.84 584.098 2208.84 582.693C2210.92 581.288 2212.88 579.699 2214.73 577.925C2216.66 576.077 2218.44 574.154 2220.07 572.158L2221.18 572.713L2213.95 590.566C2213.06 591.01 2211.95 591.564 2210.62 592.23C2209.36 592.821 2207.8 593.376 2205.95 593.893C2204.17 594.484 2202.06 594.965 2199.62 595.335C2197.17 595.778 2194.28 596 2190.95 596C2181.02 596 2173.27 593.339 2167.71 588.016C2162.23 582.619 2159.49 574.228 2159.49 562.844V488.879L2140.82 489.545V479.786C2143.11 479.934 2145.86 480.045 2149.04 480.119C2152.23 480.193 2155.71 480.23 2159.49 480.23C2159.42 474.981 2159.27 470.36 2159.05 466.368C2158.9 462.302 2158.67 458.791 2158.38 455.834C2158.16 452.803 2157.86 450.252 2157.49 448.182C2157.12 446.112 2156.75 444.375 2156.38 442.97V442.527H2182.05V442.97C2181.61 444.375 2181.2 446.112 2180.83 448.182C2180.46 450.252 2180.13 452.766 2179.83 455.723C2179.61 458.68 2179.39 462.191 2179.16 466.257C2179.02 470.25 2178.9 474.907 2178.83 480.23C2183.5 480.156 2188.06 480.082 2192.5 480.008C2197.02 479.86 2201.1 479.712 2204.73 479.564C2208.43 479.343 2211.55 479.158 2214.06 479.01C2216.66 478.788 2218.36 478.603 2219.18 478.455L2217.18 489.766C2213.4 489.692 2209.43 489.582 2205.28 489.434C2201.73 489.286 2197.65 489.175 2193.06 489.101C2188.46 489.027 2183.72 488.953 2178.83 488.879V565.172C2178.83 569.756 2179.31 573.489 2180.27 576.372C2181.31 579.182 2182.61 581.399 2184.17 583.026C2185.8 584.652 2187.61 585.761 2189.61 586.352C2191.69 586.944 2193.8 587.24 2195.95 587.24Z" fill="white" fill-opacity="0.14"/>
<path d="M2319.55 519.042C2319.55 509.283 2317.58 502.112 2313.66 497.529C2309.73 492.945 2304.47 490.653 2297.87 490.653C2295.43 490.653 2292.69 491.171 2289.65 492.206C2286.68 493.167 2283.61 494.498 2280.42 496.198C2277.31 497.898 2274.2 499.894 2271.09 502.186C2267.97 504.404 2265.08 506.77 2262.42 509.283V550.424C2262.42 556.708 2262.49 562.215 2262.64 566.947C2262.79 571.604 2263.01 575.633 2263.3 579.034C2263.6 582.434 2263.93 585.281 2264.31 587.572C2264.68 589.864 2265.08 591.786 2265.53 593.339V593.782H2239.85V593.339C2240.3 591.786 2240.7 589.864 2241.07 587.572C2241.52 585.281 2241.85 582.434 2242.08 579.034C2242.37 575.633 2242.59 571.604 2242.74 566.947C2242.96 562.215 2243.08 556.708 2243.08 550.424V471.358C2243.08 465.075 2242.96 459.604 2242.74 454.947C2242.59 450.215 2242.37 446.149 2242.08 442.749C2241.85 439.348 2241.52 436.502 2241.07 434.21C2240.7 431.918 2240.3 429.996 2239.85 428.444V428H2265.53V428.444C2265.08 429.996 2264.68 431.918 2264.31 434.21C2263.93 436.502 2263.6 439.348 2263.3 442.749C2263.01 446.149 2262.79 450.215 2262.64 454.947C2262.49 459.604 2262.42 465.075 2262.42 471.358V499.747C2265.38 497.085 2268.64 494.461 2272.2 491.873C2275.83 489.286 2279.57 486.957 2283.42 484.887C2287.28 482.817 2291.2 481.154 2295.21 479.897C2299.21 478.64 2303.13 478.012 2306.99 478.012C2312.77 478.012 2317.66 479.01 2321.66 481.006C2325.73 483.002 2329.03 485.626 2331.55 488.879C2334.15 492.132 2336 495.865 2337.11 500.079C2338.29 504.219 2338.89 508.433 2338.89 512.721V550.424C2338.89 556.708 2338.96 562.215 2339.11 566.947C2339.26 571.604 2339.48 575.633 2339.78 579.034C2340.07 582.434 2340.41 585.281 2340.78 587.572C2341.15 589.864 2341.56 591.786 2342 593.339V593.782H2316.32V593.339C2316.77 591.786 2317.18 589.864 2317.55 587.572C2317.99 585.281 2318.32 582.434 2318.55 579.034C2318.84 575.633 2319.07 571.604 2319.21 566.947C2319.44 562.215 2319.55 556.708 2319.55 550.424V519.042Z" fill="white" fill-opacity="0.14"/>
</g>
<defs>
<clipPath id="clip0_37_188">
<rect width="2600" height="862" fill="white"/>
</clipPath>
</defs>
</svg>
