<svg width="50" height="50" viewBox="0 0 274 252" fill="none" xmlns="http://www.w3.org/2000/svg">
<path d="M148.281 20.4463C163.917 30.38 179.417 41.9466 184.719 57.0513C190.022 72.156 184.991 90.9347 180.64 111.482C176.154 132.03 172.346 154.347 159.158 162.92C145.969 171.357 123.535 166.05 99.3331 168.635C74.9953 171.085 49.0259 181.427 37.4688 172.309C25.9118 163.328 28.903 134.888 21.8328 110.394C14.8986 86.0359 -2.0971 65.4881 0.214312 48.8866C2.38976 32.4212 23.8723 19.7659 43.9952 11.3291C63.9821 2.89226 82.4734 -1.46224 99.741 0.442852C116.873 2.34794 132.645 10.6487 148.281 20.4463Z" fill="#DCEAFD"/>
<path d="M41.7409 193.733L30.3126 198.571C26.3898 200.232 23.3189 203.496 21.8865 207.527C19.5792 214.022 21.8886 221.298 27.5028 225.219C34.7056 230.248 45.4005 236.774 55.4535 239.301C71.4829 243.33 128.007 248.465 134.245 249.024L137.594 251.074C138.608 251.695 139.742 252 140.873 252C142.315 252 143.751 251.503 144.912 250.531C146.36 249.317 147.187 247.535 147.181 245.64C147.176 243.951 146.506 242.357 145.331 241.177L147.5 237.905L149.669 241.177C148.493 242.357 147.822 243.951 147.818 245.64C147.813 247.535 148.64 249.317 150.088 250.531C151.25 251.504 152.684 252 154.126 252C155.257 252 156.393 251.695 157.405 251.075L161.612 248.5C167.839 247.988 223.523 243.328 239.546 239.302C249.599 236.775 260.294 230.249 267.497 225.22C273.111 221.299 275.421 214.024 273.113 207.528C271.682 203.497 268.61 200.233 264.687 198.572L253.34 193.769C250.999 192.778 248.428 192.39 245.902 192.647L188.975 198.441L190.091 193.84C190.119 193.723 190.138 193.603 190.146 193.483L192.22 162.196L199.952 111.672C200.388 108.825 200.036 105.913 198.933 103.252L197.672 100.211C195.853 95.8222 192.209 92.5359 187.672 91.193L176.205 87.8022L162.064 83.0601V72.781C168.923 65.2714 173.414 53.3116 173.414 42.7218C173.414 33.2219 169.632 24.7366 163.736 19.1923C163.918 18.4151 164.089 17.568 164.089 16.6769C164.089 7.48132 156.648 0 147.502 0C138.356 0 130.915 7.48132 130.915 16.6769C130.915 17.6391 131.104 18.4423 131.301 19.1609C125.386 24.7041 121.589 33.2031 121.589 42.7208C121.589 53.3105 126.08 65.2704 132.938 72.7799V82.4639L118.76 87.8106L107.329 91.1909C102.793 92.5328 99.1475 95.819 97.3291 100.208L96.0684 103.25C94.9657 105.911 94.6141 108.823 95.0499 111.67L102.781 162.194L104.855 193.481C104.864 193.601 104.881 193.72 104.911 193.838L105.836 197.654L48.9904 192.594C46.5292 192.374 44.0201 192.769 41.7409 193.733V193.733ZM56.4626 235.241C54.2635 234.688 52.0217 233.919 49.7893 233.012C49.5646 230.735 49.3015 225.327 51.0772 220.125C52.0561 217.257 56.6998 212.638 59.084 210.474L68.7408 211.495C79.1839 212.601 89.2079 215.621 98.5338 220.47L113.224 228.111L115.109 235.88C115.373 236.964 116.041 237.881 116.988 238.461L126.15 244.068C108.315 242.367 68.9842 238.388 56.4626 235.241V235.241ZM143.047 226.53C142.584 225.276 141.613 224.261 140.385 223.744L143.054 221.445C143.569 221.001 144.268 220.833 144.929 221L145.419 221.123V233.499L142.121 238.473L135.616 233.086H138.517C140.36 233.086 142.018 232.057 142.84 230.399C143.438 229.199 143.514 227.79 143.047 226.53ZM171.21 181.354C167.473 182.637 156.076 186.309 147.735 186.413C139.411 186.535 127.613 182.692 123.792 181.363L122.692 166.148H172.311L171.21 181.354ZM147.405 190.598C147.532 190.598 147.661 190.598 147.787 190.596C155.765 190.497 165.909 187.512 170.883 185.879L168.452 219.489H165.185C164.911 219.489 164.639 219.544 164.385 219.65L158.918 221.941L154.656 218.269C153.117 216.944 151.025 216.448 149.063 216.94L147.501 217.333L145.939 216.94C143.974 216.447 141.883 216.943 140.346 218.269L136.084 221.941L130.616 219.65C130.363 219.544 130.091 219.489 129.816 219.489H126.55L124.12 185.893C129.145 187.558 139.413 190.598 147.405 190.598V190.598ZM149.581 221.123L150.072 221C150.73 220.832 151.432 221 151.948 221.445L154.616 223.744C153.389 224.262 152.419 225.276 151.954 226.53C151.488 227.788 151.564 229.198 152.161 230.398C152.985 232.056 154.642 233.085 156.486 233.085H159.387L152.88 238.472L149.581 233.499V221.123ZM238.539 235.241C226.021 238.388 187.183 242.06 169.596 243.613L178.014 238.461C178.961 237.881 179.629 236.964 179.893 235.879L182.028 227.077L197.237 219.644C206.035 215.343 215.43 212.642 225.16 211.612L234.24 210.65C235.937 212.035 240.661 216.185 241.902 220.427C243.042 224.326 241.484 231.299 240.498 234.692C239.842 234.891 239.188 235.077 238.539 235.241V235.241ZM246.322 196.808C248.157 196.624 250.027 196.903 251.726 197.623L263.074 202.426C265.924 203.633 268.155 206.005 269.196 208.934C270.872 213.653 269.198 218.936 265.124 221.782C259.824 225.483 252.581 230.015 245.237 233.001C246.139 229.146 247.089 223.332 245.895 219.248C244.851 215.681 242.122 212.374 239.805 210.062L249.665 209.018L249.229 204.857L224.725 207.45C214.514 208.53 204.654 211.367 195.418 215.881L183.31 221.799L187.93 202.749L246.322 196.808ZM193.832 101.817L195.093 104.859C195.901 106.81 196.159 108.945 195.84 111.033L188.095 161.647C188.085 161.706 188.079 161.766 188.075 161.826L186.007 193.022L175.851 234.886L155.242 247.498C154.458 247.979 153.457 247.903 152.752 247.313C152.078 246.748 151.978 246.028 151.979 245.649C151.98 245.271 152.083 244.551 152.761 243.991L166.507 232.609C167.185 232.047 167.439 231.119 167.143 230.288C166.848 229.457 166.063 228.902 165.185 228.902H156.484C156.228 228.902 155.998 228.759 155.882 228.528C155.769 228.299 155.816 228.092 155.854 227.989C155.893 227.887 155.99 227.699 156.225 227.6L165.601 223.673H168.452C170.622 223.673 172.445 221.968 172.601 219.793L176.617 164.277L181.011 132.472C181.574 128.387 181.404 124.277 180.503 120.253L177.149 105.282C176.203 101.056 176.188 96.6516 177.084 92.4219L186.497 95.2061C189.826 96.1882 192.498 98.599 193.832 101.817ZM137.098 76.5389C140.28 78.8598 143.795 80.2351 147.501 80.2351C151.206 80.2351 154.721 78.8598 157.903 76.5389V86.8096C157.903 92.5767 153.237 97.2686 147.501 97.2686C141.765 97.2686 137.098 92.5767 137.098 86.8096V76.5389ZM126.305 48.8968C128.658 37.4568 137.514 29.1869 147.501 29.1869C157.796 29.1869 166.508 36.9987 168.811 48.2201C166.738 61.6735 157.61 76.0515 147.501 76.0515C137.56 76.0515 128.572 62.1515 126.305 48.8968V48.8968ZM147.501 4.1836C154.191 4.1836 159.648 9.53024 159.903 16.1947C156.217 13.8414 151.991 12.5016 147.501 12.5016C143.011 12.5016 138.784 13.8414 135.099 16.1947C135.354 9.53128 140.811 4.1836 147.501 4.1836V4.1836ZM147.501 16.6852C157.862 16.6852 166.547 25.4028 168.722 37.0301C163.981 29.6345 156.228 25.0022 147.501 25.0022C138.805 25.0022 130.861 30.1282 126.106 38.0603C127.947 25.9216 136.836 16.6852 147.501 16.6852V16.6852ZM132.943 86.931C133.009 94.9488 139.511 101.452 147.501 101.452C155.313 101.452 161.69 95.2312 162.032 87.4591L173.093 91.1658C171.988 96.1004 171.984 101.258 173.091 106.201L176.445 121.172C177.236 124.703 177.385 128.311 176.89 131.895L172.736 161.965H122.265L118.098 131.797C117.611 128.273 117.748 124.723 118.505 121.249L121.88 105.751C122.927 100.943 122.923 95.909 121.876 91.1031L132.943 86.931ZM99.1621 111.033C98.8427 108.944 99.1007 106.809 99.909 104.859L101.17 101.816C102.503 98.598 105.177 96.1882 108.504 95.204L117.899 92.4251C118.727 96.5135 118.704 100.777 117.817 104.855L114.441 120.353C113.579 124.312 113.423 128.356 113.977 132.371L118.385 164.276L122.4 219.79C122.556 221.967 124.38 223.671 126.55 223.671H129.4L138.776 227.598C139.011 227.696 139.109 227.884 139.148 227.987C139.186 228.091 139.233 228.297 139.118 228.527C139.004 228.758 138.773 228.9 138.516 228.9H129.816C128.938 228.9 128.154 229.455 127.859 230.286C127.562 231.117 127.816 232.046 128.494 232.607L142.24 243.988C142.918 244.55 143.02 245.269 143.022 245.647C143.024 246.026 142.925 246.746 142.25 247.311C141.545 247.902 140.545 247.977 139.759 247.496L119.15 234.884L108.994 193.02L106.926 161.824C106.921 161.763 106.915 161.703 106.906 161.645L99.1621 111.033ZM111.916 222.72L100.445 216.754C90.6569 211.664 80.1368 208.495 69.1756 207.335L45.7729 204.858L45.337 209.019L53.6518 209.898C51.1791 212.396 48.1228 215.889 47.1408 218.767C45.5753 223.354 45.3807 227.989 45.4941 231.098C39.6697 228.279 34.1439 224.76 29.8767 221.781C25.802 218.936 24.1282 213.653 25.8041 208.933C26.8444 206.004 29.0768 203.632 31.926 202.425L43.3543 197.588C45.0104 196.887 46.8298 196.603 48.6211 196.76L106.876 201.945L111.916 222.72Z" fill="#2F3547" fill-opacity="0.47"/>
</svg>
