<svg width="235" height="396" viewBox="0 0 235 396" fill="none" xmlns="http://www.w3.org/2000/svg">
<path d="M167.281 94.4463C182.917 104.38 198.417 115.947 203.719 131.051C209.022 146.156 203.991 164.935 199.64 185.482C195.153 206.03 191.346 228.347 178.158 236.92C164.969 245.357 142.535 240.05 118.333 242.635C93.9953 245.085 68.0259 255.427 56.4688 246.309C44.9118 237.328 47.903 208.888 40.8328 184.394C33.8986 160.036 16.9029 139.488 19.2143 122.887C21.3898 106.421 42.8723 93.7659 62.9952 85.3291C82.9821 76.8923 101.473 72.5378 118.741 74.4429C135.873 76.3479 151.645 84.6487 167.281 94.4463Z" fill="#DCEAFD"/>
<path d="M76.4129 303.705L70.4092 325.025L61.2281 327.503C59.0836 328.083 57.3374 329.672 56.5565 331.753C56.3061 332.42 56.177 333.11 56.1376 333.8C49.6836 335.573 43.0753 337.689 36.4339 340.147L34.8562 340.73C24.4911 344.548 11.591 349.301 4.39691 358.483C-0.773858 365.082 -1.45721 375.083 2.73578 382.805C7.83254 392.191 18.9724 395.581 30.1783 395.581C37.6384 395.581 45.1285 394.078 50.8834 391.84L56.3612 389.708L108.788 367.756L158.835 389.33C169.106 393.758 179.784 396 190.59 396C190.826 396 191.064 396 191.302 395.997C191.636 395.994 191.951 395.987 192.248 395.979C195.926 395.874 199.73 395.764 203.508 395.518C204.98 395.422 206.474 395.415 208.055 395.409C211.484 395.395 215.032 395.381 218.607 394.408C226.009 392.395 231.772 386.857 234.025 379.598C236.223 372.515 234.653 364.884 229.826 359.182C226.184 354.884 220.892 352.777 216.222 350.918C215.065 350.457 213.917 350.001 212.813 349.518L189.253 339.213C189.817 336.52 188.515 333.8 185.985 332.598L174.955 327.362C172.689 326.287 170.183 325.909 167.7 326.271L165.437 326.601L157.697 303.572L154.751 294.635C150.88 282.889 150.863 270.466 154.703 258.711C157.575 249.918 158.511 240.416 157.407 231.233L157.204 229.547L167.115 191.461C171.012 175.783 172.204 159.681 170.658 143.597L167.715 113.015C167.682 112.667 167.591 112.325 167.445 112.006L135.417 41.8915L125.041 2.34945C124.68 0.965938 123.428 0 121.999 0H113.161C111.73 0 110.478 0.965938 110.114 2.35103L99.738 41.893L67.7105 112.008C67.564 112.326 67.4743 112.667 67.4396 113.016L64.4968 143.599C62.9491 159.679 64.141 175.782 68.0395 191.462L77.1277 228.024L76.742 231.233C75.6382 240.418 76.5735 249.92 79.4454 258.711C83.2857 270.466 83.27 282.889 79.3982 294.635L76.4129 303.705ZM62.4531 333.967C62.5224 333.783 62.6782 333.641 62.8688 333.591L74.9454 330.329C77.0097 329.771 79.1809 330.184 80.8972 331.462L89.713 338.028C90.453 338.579 91.3962 338.78 92.2968 338.572L102.504 336.23C104.416 335.792 106.447 336.006 108.226 336.832C109.881 337.601 111.249 338.885 112.16 340.453C107.156 340.729 94.276 341.542 83.4117 343.074L74.7392 335.236C74.1283 334.684 73.3158 334.38 72.5065 334.426L63.0546 334.796C62.7696 334.813 62.62 334.664 62.5318 334.542C62.4421 334.421 62.3586 334.222 62.4531 333.967V333.967ZM54.0057 383.864L48.6035 385.964C37.9565 390.104 15.1935 392.543 8.27026 379.793C5.28809 374.305 5.74471 366.978 9.35354 362.37C15.4454 354.595 27.415 350.188 37.0323 346.644L38.621 346.058C45.4245 343.54 52.1871 341.387 58.7687 339.613C60.0441 340.612 61.6438 341.15 63.3002 341.094L71.4704 340.773L75.5075 344.421C72.4498 345.064 69.9022 345.792 68.2568 346.616L43.3666 359.071L46.1834 364.709L58.9529 358.319L56.9391 382.633L54.0057 383.864ZM116.948 364.411L134.792 357.422C147.02 358.105 165.32 359.488 172.02 360.851L175.687 388.131C170.833 387.1 166.038 385.573 161.329 383.542L116.948 364.411ZM213.896 356.776C218.075 358.44 222.397 360.159 225.022 363.259C228.5 367.367 229.59 372.641 228.011 377.729C226.4 382.92 222.267 386.883 216.956 388.328C214.18 389.082 211.193 389.095 208.031 389.108C206.424 389.114 204.763 389.12 203.098 389.231C199.436 389.47 195.69 389.577 192.072 389.683L191.245 389.697C188.208 389.73 185.188 389.544 182.184 389.188L178.786 363.911C184.634 367.513 192.635 373.561 196.024 376.231L199.921 371.278C198.165 369.894 182.571 357.689 175.897 355.358C171.885 353.957 158.753 352.755 148.271 351.983L167.489 343.987H183.428C183.72 343.987 184.007 343.959 184.29 343.918L210.297 355.294C211.461 355.806 212.673 356.288 213.896 356.776V356.776ZM168.608 332.51C169.857 332.33 171.118 332.518 172.256 333.06L182.004 337.688H166.856C166.44 337.688 166.031 337.77 165.646 337.929L139.334 348.877L112.007 359.58L63.4844 379.896L65.5439 355.024L71.0721 352.259C77.3891 349.098 104.394 347.142 114.265 346.657C114.74 346.633 115.205 346.502 115.622 346.274L125.112 341.074C127.648 339.684 129.649 337.443 130.748 334.765L132.057 331.575C132.947 329.405 134.946 327.902 137.275 327.653C138.437 327.526 139.612 327.726 140.668 328.224L153.365 334.204C153.924 334.467 154.548 334.563 155.16 334.47L168.608 332.51ZM159.111 327.522L155.193 328.093L143.353 322.516C141.251 321.527 138.917 321.137 136.607 321.382C131.977 321.878 128.001 324.866 126.233 329.178L124.924 332.368C124.372 333.715 123.364 334.842 122.089 335.541L117.903 337.836C116.362 334.913 113.892 332.516 110.878 331.115C107.836 329.702 104.364 329.334 101.097 330.086L92.3062 332.102L84.6572 326.405C82.4812 324.785 79.9225 323.911 77.2931 323.808L81.8246 307.71H152.485L159.111 327.522ZM82.9945 231.984L84.1706 222.204C85.3326 212.53 92.4999 204.61 102.004 202.496L102.105 202.474V205.609C102.105 213.882 108.829 220.611 117.094 220.611C125.359 220.611 132.084 213.88 132.084 205.609V202.307L132.334 202.365C141.726 204.546 148.81 212.447 149.961 222.027L151.158 231.986C152.153 240.263 151.31 248.828 148.722 256.754C145.94 265.272 144.993 274.106 145.861 282.84H88.2943C89.1603 274.106 88.2156 265.274 85.4334 256.754C82.8417 248.828 81.9994 240.263 82.9945 231.984V231.984ZM90.2924 122.16L101.201 96.0376C101.243 95.9351 101.281 95.8296 101.314 95.7208L111.108 62.7876L117.579 56.8832L124.05 62.7876L133.844 95.7208C133.877 95.828 133.913 95.9336 133.957 96.0376L144.842 122.104L142.528 134.292C140.833 131.18 138.728 128.396 136.294 126.049C136.467 125.257 136.61 124.404 136.61 123.495C136.61 112.725 127.854 103.962 117.094 103.962C106.332 103.962 97.5762 112.725 97.5762 123.495C97.5762 124.458 97.7352 125.295 97.9179 126.026C95.6521 128.203 93.6698 130.761 92.0386 133.61L90.2924 122.16ZM133.756 196.224L132.082 195.836V189.034C133.676 187.553 135.176 185.873 136.566 184.031L135.044 196.577C134.616 196.457 134.192 196.327 133.756 196.224V196.224ZM117.094 118.004C112.422 118.004 107.996 119.245 104.049 121.455C105.035 115.128 110.5 110.267 117.094 110.267C123.687 110.267 129.152 115.128 130.139 121.455C126.192 119.244 121.766 118.004 117.094 118.004ZM117.094 124.307C127.188 124.307 135.809 131.906 139.237 142.571C133.705 136.019 125.823 132.044 117.094 132.044C108.337 132.044 100.225 136.476 94.6318 143.616C97.8155 132.404 106.671 124.307 117.094 124.307V124.307ZM117.094 138.347C128.291 138.347 137.774 146.807 140.326 158.973C138.01 173.705 128.081 189.374 117.094 189.374C106.291 189.374 96.5197 174.23 93.9926 159.72C96.6079 147.306 106.241 138.347 117.094 138.347V138.347ZM108.403 193.504C111.153 194.891 114.069 195.676 117.094 195.676C120.119 195.676 123.035 194.891 125.786 193.504V205.609C125.786 210.406 121.887 214.307 117.094 214.307C112.301 214.307 108.403 210.406 108.403 205.609V193.504ZM102.105 189.034V196.018L100.637 196.344C100.484 196.377 100.338 196.426 100.187 196.464L98.4186 185.052C99.579 186.497 100.81 187.832 102.105 189.034V189.034ZM85.3799 296.609C86.1923 294.143 86.8505 291.65 87.3575 289.14H146.796C147.303 291.65 147.961 294.143 148.774 296.609L150.378 301.407H83.799L85.3799 296.609ZM129.398 43.7572C129.443 43.9321 129.505 44.1022 129.58 44.2677L161.501 114.148L164.393 144.202C165.87 159.57 164.732 174.959 161.016 189.907L154.59 214.594C152.12 207.952 147.294 202.42 141.09 199.038L144.984 166.947C146.365 162.232 147.131 157.375 147.131 152.746C147.131 150.595 146.954 148.493 146.628 146.449L151.205 122.351C151.32 121.744 151.255 121.117 151.016 120.547L139.83 93.7622L129.835 60.1497C129.671 59.5998 129.361 59.105 128.938 58.719L120.725 51.2278V10.7183L129.398 43.7572ZM70.765 144.202L73.6575 114.146L105.578 44.2661C105.654 44.1022 105.713 43.9321 105.761 43.7556L114.43 10.7167V51.2278L106.217 58.719C105.794 59.105 105.484 59.5998 105.32 60.1497L95.3246 93.7622L84.1391 120.547C83.9156 121.081 83.8431 121.666 83.9313 122.238L87.5921 146.225C87.2441 148.338 87.0536 150.516 87.0536 152.746C87.0536 157.454 87.8456 162.397 89.2721 167.188L94.1453 198.619C87.7826 201.733 82.7724 207.075 80.0265 213.581L74.1503 189.94C70.425 174.956 69.2866 159.569 70.765 144.202V144.202Z" fill="#2F3547" fill-opacity="0.47"/>
</svg>
