<svg width="512" height="512" viewBox="0 0 512 512" fill="none" xmlns="http://www.w3.org/2000/svg">
<g clip-path="url(#clip0_24_29)">
<path d="M511.786 222.857C512.602 219.278 511.107 215.169 506.858 213.782C504.951 213.165 462.865 199.785 411.969 202.592C430.326 157.01 425.669 119.45 425.444 117.744C424.991 113.987 421.268 110.706 417.157 111.274C375.827 115.998 344.667 137.613 324.031 157.703C322.104 153.226 320.072 148.691 317.925 144.094C300.594 106.983 280.341 75.2621 269.811 59.657C266.732 55.094 261.619 52.364 256.122 52.339C256.097 52.339 256.072 52.335 256.047 52.335C256.022 52.335 255.997 52.338 255.972 52.339C250.475 52.364 245.362 55.094 242.283 59.656C231.753 75.261 211.5 106.982 194.169 144.093C192.022 148.69 189.991 153.224 188.063 157.702C167.428 137.612 136.267 115.996 94.9374 111.273C91.1894 110.799 87.0843 113.623 86.6503 117.743C86.4253 119.449 81.7653 157.037 100.146 202.642C86.1093 201.858 73.0593 202.315 61.9312 203.274C29.2851 206.085 6.20203 213.468 5.23602 213.781C1.51901 214.892 -1.398 219.992 0.705004 223.994C16.9321 263.724 40.4502 297.394 70.6123 324.067C78.4933 331.036 86.8353 337.523 95.5944 343.529C76.3203 354.566 59.6392 366.959 50.6212 374.032C46.7442 377.069 44.8162 381.975 45.5892 386.835C46.3602 391.687 49.7062 395.744 54.3192 397.423C73.1783 404.293 98.2104 407.737 129.09 407.736C134.505 407.736 140.116 407.62 145.889 407.408C138.364 411.352 131.786 417 126.754 423.978L112.185 444.187C109.04 448.55 108.61 454.235 111.061 459.022C113.511 463.809 118.374 466.783 123.752 466.783H205.331C215.709 466.783 225.53 462.806 232.984 455.584L251.581 437.568C253.229 435.97 254.715 434.229 256.047 432.384C257.379 434.229 258.865 435.971 260.513 437.568L279.11 455.584C286.564 462.806 296.385 466.783 306.763 466.783H332.548C336.691 466.783 340.048 463.425 340.048 459.283C340.048 455.141 336.691 451.783 332.548 451.783H306.763C300.302 451.783 294.188 449.307 289.547 444.811L270.95 426.794C266.245 422.236 263.547 415.864 263.547 409.313V395.888L350.251 417.272C359.476 419.547 367.615 425.044 373.171 432.751L386.893 451.783H367.74C363.597 451.783 360.24 455.141 360.24 459.283C360.24 463.425 363.597 466.783 367.74 466.783H388.343C393.721 466.783 398.584 463.809 401.034 459.022C403.485 454.235 403.055 448.55 399.909 444.186L385.341 423.979C380.309 417.001 373.731 411.353 366.206 407.409C371.979 407.621 377.59 407.736 383.005 407.736C413.881 407.736 438.917 404.292 457.775 397.423C462.389 395.743 465.735 391.686 466.506 386.835C467.278 381.975 465.351 377.068 461.477 374.034C452.456 366.959 435.775 354.566 416.501 343.529C425.261 337.523 433.602 331.037 441.483 324.068C471.645 297.395 495.163 263.724 511.39 223.995C511.524 223.651 511.566 223.612 511.786 222.857ZM397.979 130.348L369.478 163.158C366.761 166.285 367.094 171.022 370.222 173.739C371.642 174.972 373.393 175.577 375.137 175.577C377.234 175.577 379.319 174.702 380.802 172.995L410.894 138.354C410.145 154.082 406.764 178.13 394.99 204.146C376.642 206.489 359.581 211.006 344.09 217.604C340.923 203.512 336.29 188.554 330.195 172.78C345.497 156.87 368.219 138.882 397.979 130.348ZM248.547 77.3971V116.675C248.547 120.817 251.904 124.175 256.047 124.175C260.19 124.175 263.547 120.817 263.547 116.675V77.3971C286.432 112.801 335.487 196.625 334.166 262.466C333.459 297.625 319.767 327.906 293.469 352.469C282.389 362.818 271.277 369.93 263.547 374.231V151.805C263.547 147.663 260.19 144.305 256.047 144.305C251.904 144.305 248.547 147.663 248.547 151.805V374.231C240.816 369.929 229.706 362.817 218.625 352.469C192.327 327.907 178.635 297.625 177.928 262.466C176.608 196.625 225.663 112.801 248.547 77.3971ZM101.2 138.352L131.293 172.995C132.776 174.703 134.861 175.577 136.958 175.577C138.702 175.577 140.454 174.973 141.873 173.739C145.001 171.023 145.334 166.286 142.617 163.158L114.116 130.348C143.876 138.882 166.598 156.87 181.9 172.779C175.805 188.555 171.171 203.513 168.004 217.606C151.14 210.438 133.738 206.329 117.131 204.198C105.335 178.158 101.949 154.087 101.2 138.352ZM23.0081 236.952L107.219 278.678C108.289 279.208 109.425 279.459 110.543 279.459C113.304 279.459 115.96 277.929 117.27 275.288C119.109 271.576 117.59 267.077 113.879 265.238L29.1631 223.261C58.3132 217.256 115.42 210.275 165.12 232.709C163.477 243.285 162.743 253.315 162.932 262.767C163.715 301.778 179.583 336.727 208.82 363.834C214.03 368.665 219.217 372.834 224.115 376.399C206.925 374.026 184.246 369.345 159.872 360.123C129.783 348.74 103.007 332.751 80.2893 312.602C56.8132 291.781 37.6121 266.39 23.0081 236.952ZM61.9682 384.209C72.1973 376.307 90.0944 363.33 109.956 352.725C124.076 361.129 139.163 368.36 155.118 374.36C171.592 380.555 187.208 384.78 201.03 387.667C158.354 393.069 99.6624 396.841 61.9682 384.209ZM241.144 426.795L222.547 444.812C217.906 449.308 211.792 451.784 205.331 451.784H125.201L138.923 432.752C144.479 425.045 152.618 419.548 161.843 417.273L248.547 395.889V409.314C248.547 415.865 245.849 422.237 241.144 426.795ZM450.126 384.21C412.434 396.842 353.741 393.07 311.063 387.668C324.886 384.781 340.502 380.556 356.975 374.361C372.93 368.361 388.018 361.129 402.137 352.726C421.998 363.329 439.894 376.305 450.126 384.21ZM431.805 312.602C409.087 332.751 382.312 348.739 352.222 360.123C327.845 369.346 305.163 374.029 287.972 376.404C292.872 372.838 298.061 368.668 303.274 363.835C332.51 336.728 348.378 301.779 349.162 262.768C349.352 253.318 348.617 243.289 346.975 232.716C363.049 225.456 381.134 220.692 400.837 218.555C400.964 218.541 401.089 218.525 401.214 218.505C433.706 215.027 464.156 219.349 482.962 223.247L398.215 265.238C394.504 267.077 392.986 271.576 394.824 275.288C396.134 277.93 398.79 279.459 401.551 279.459C402.669 279.459 403.805 279.208 404.875 278.678L489.086 236.952C474.483 266.389 455.281 291.781 431.805 312.602Z" fill="#658FBB"/>
<path d="M366.583 93.0921C379.783 93.0921 390.521 82.3531 390.521 69.1541C390.521 55.9551 379.783 45.2161 366.583 45.2161C353.384 45.2161 342.645 55.9551 342.645 69.1541C342.645 82.3531 353.384 93.0921 366.583 93.0921ZM366.583 60.2161C371.512 60.2161 375.521 64.2261 375.521 69.1541C375.521 74.0821 371.511 78.0921 366.583 78.0921C361.655 78.0921 357.645 74.0821 357.645 69.1541C357.645 64.2261 361.656 60.2161 366.583 60.2161Z" fill="#658FBB"/>
<path d="M145.51 93.0921C158.709 93.0921 169.448 82.3531 169.448 69.1541C169.448 55.9551 158.71 45.2161 145.51 45.2161C132.31 45.2161 121.572 55.9551 121.572 69.1541C121.572 82.3531 132.31 93.0921 145.51 93.0921ZM145.51 60.2161C150.438 60.2161 154.448 64.2261 154.448 69.1541C154.448 74.0821 150.438 78.0921 145.51 78.0921C140.581 78.0921 136.572 74.0821 136.572 69.1541C136.572 64.2261 140.582 60.2161 145.51 60.2161Z" fill="#658FBB"/>
<path d="M43.9061 131.568C48.0483 131.568 51.4061 128.21 51.4061 124.068C51.4061 119.926 48.0483 116.568 43.9061 116.568C39.764 116.568 36.4061 119.926 36.4061 124.068C36.4061 128.21 39.764 131.568 43.9061 131.568Z" fill="#658FBB"/>
<path d="M468.188 131.568C472.33 131.568 475.688 128.21 475.688 124.068C475.688 119.926 472.33 116.568 468.188 116.568C464.046 116.568 460.688 119.926 460.688 124.068C460.688 128.21 464.046 131.568 468.188 131.568Z" fill="#658FBB"/>
</g>
<defs>
<clipPath id="clip0_24_29">
<rect width="512" height="512" fill="white"/>
</clipPath>
</defs>
</svg>
