<svg width="50" height="50" viewBox="0 0 275 343" fill="none" xmlns="http://www.w3.org/2000/svg">
<path d="M161.04 19.5811C182.162 17.1993 205.497 29.8553 219.596 48.9346C233.559 68.074 238.223 93.4955 240.54 118.77C242.72 144.104 242.355 169.21 229.743 183.523C217.069 197.695 191.95 200.993 170.234 208.692C148.382 216.452 129.934 228.614 110.228 229.025C90.658 229.375 69.8432 217.633 54.9251 200.768C39.9449 183.762 30.6007 161.411 28.657 138.837C26.7755 116.406 32.1703 93.4692 45.6268 79.9644C59.2198 66.3995 80.7501 61.9837 100.975 50.8948C121.199 39.8059 139.981 22.104 161.04 19.5811Z" fill="#FCEEDD"/>
<path d="M93.3666 78.9061C91.3759 83.9283 91.5677 89.605 93.8919 94.4814C94.9737 96.7485 102.395 108.212 109.989 118.94L111.012 135.246C111.401 142.411 110.19 149.706 107.509 156.351L101.548 168.927C101.525 168.975 101.505 169.022 101.484 169.07C99.4263 174.148 97.7206 182.748 98.6133 188.689C99.8449 196.887 104.512 203.949 108.211 208.429C109.227 209.659 110.353 211.052 111.544 212.524C112.769 214.037 114.072 215.649 115.405 217.267L108.392 229.97C105.167 235.757 103.809 242.309 104.462 248.915L104.585 250.155C104.811 252.437 105.282 254.702 105.975 256.854L111.779 275.728L107.417 280.654C104.026 284.115 102.331 288.881 102.767 293.73L103.34 300.077C103.553 302.452 104.943 304.508 107.055 305.574C108.011 306.057 109.036 306.287 110.051 306.287C112.374 306.287 114.645 305.077 115.929 302.913L118.645 298.056L123.706 314.51L119.78 333.384C119.283 335.776 119.882 338.229 121.427 340.113C122.953 341.973 125.218 343 127.534 343C128.404 343 129.28 342.856 130.129 342.556L136.159 340.425C139.729 339.162 141.92 335.506 141.367 331.727L140.541 326.071C140.4 325.113 140.486 324.12 140.785 323.203L141.282 321.674C142.347 318.408 141.937 314.85 140.164 311.916C139.51 310.834 139.2 309.592 139.265 308.325L141.311 268.865C142.754 266.564 143.721 264.26 144.634 262.026C145.577 259.721 146.467 257.542 147.861 255.475C148.348 254.751 148.841 254.028 149.334 253.305C154.515 245.705 159.872 237.846 160.45 227.613C160.615 224.716 160.311 221.929 159.721 219.225C163.759 215.564 167.787 210.661 170.292 207.606L171.109 206.61C175.141 201.727 178.285 193.903 179.519 185.683C180.378 179.962 179.684 174.103 177.511 168.743L171.979 155.091C169.578 149.165 168.365 142.916 168.375 136.492L168.157 106.218C171.209 103.472 174.027 100.973 176.058 99.2774C180.188 95.8324 182.713 90.757 182.986 85.353C183.265 79.8058 179.399 74.8462 173.993 73.8183C173.557 73.7338 173.118 73.6834 172.68 73.6534L166.33 72.4373C162.292 71.663 158.75 69.6086 156.3 66.5848L153.357 62.9217C158.998 56.0604 162.956 45.8536 162.956 37.4013C162.956 29.2353 159.788 21.9241 154.817 17.0177C154.933 16.4478 155.03 15.8276 155.03 15.1732C155.03 6.80681 148.287 0 139.999 0C131.711 0 124.968 6.80681 124.968 15.1732C124.968 15.8657 125.071 16.4669 125.195 17.0027C120.216 21.9105 117.041 29.2285 117.041 37.4013C117.041 47.2509 121.519 58.2402 127.837 64.6272L126.088 66.5317C123.337 69.5022 119.269 71.3004 114.923 71.4694L103.755 71.9029C103.399 71.9002 103.047 71.9125 102.697 71.9438L102.532 71.9506V71.9575C98.5363 72.3719 94.9223 74.9703 93.3666 78.9061V78.9061ZM116.434 136.018H123.163C123.747 136.649 124.286 137.195 124.771 137.638L126.97 139.655H116.434C116.475 138.443 116.475 137.229 116.434 136.018ZM116.132 130.564L115.913 127.08C116.834 128.304 117.728 129.468 118.591 130.564H116.132ZM113.105 232.634L119.138 221.707C121.626 224.586 124.047 227.2 126.078 228.961C127.288 230.012 127.929 231.539 127.831 233.206L127.244 248.457L124.221 250.419L127.675 255.842L111.462 256.302L111.124 255.203C110.54 253.388 110.149 251.507 109.962 249.612L109.839 248.371C109.296 242.888 110.423 237.449 113.105 232.634V232.634ZM111.261 300.173C110.895 300.788 110.109 301.021 109.471 300.698C109.045 300.482 108.764 300.067 108.719 299.585L108.146 293.238C107.855 289.995 108.989 286.806 111.35 284.392L113.646 281.801L116.444 290.903L111.261 300.173ZM136.148 319.976L135.651 321.503C135.09 323.222 134.934 325.077 135.196 326.871L136.022 332.527C136.196 333.724 135.504 334.883 134.373 335.283L128.342 337.413C127.357 337.764 126.251 337.45 125.587 336.64C125.098 336.043 124.909 335.268 125.066 334.51L129.135 314.944C129.229 314.49 129.207 314.018 129.071 313.575L113.123 261.711L131.085 261.201L135.902 268.766L133.865 308.043C133.742 310.411 134.325 312.733 135.547 314.759C136.499 316.326 136.716 318.228 136.148 319.976V319.976ZM143.392 252.411C141.685 254.942 140.645 257.488 139.64 259.948C139.255 260.889 138.872 261.805 138.467 262.705L132.465 253.282L132.742 246.073L147.211 246.763C146.451 247.909 145.671 249.057 144.881 250.216C144.383 250.948 143.885 251.679 143.392 252.411V252.411ZM172.51 170.811C174.314 175.261 174.891 180.121 174.176 184.869C173.1 192.038 170.334 199.033 166.958 203.123L166.129 204.133C164.129 206.572 161.114 210.25 158.012 213.364C157.074 210.723 155.969 208.144 154.876 205.596L154.176 203.956C151.527 197.73 148.774 191.317 144.405 185.733C146.056 183.871 149.179 180.831 153.156 179.225L151.15 174.16C146.583 176.005 143 179.262 140.874 181.553C134.7 174.603 132.226 173.13 131.753 172.891L129.247 177.72C129.355 177.785 131.984 179.397 139.298 188.011C143.742 193.243 146.522 199.783 149.211 206.107L149.919 207.762C152.631 214.085 155.434 220.623 155.056 227.306C154.762 232.515 152.956 237.074 150.491 241.461L132.952 240.624L133.228 233.475C133.42 230.196 132.064 226.964 129.599 224.825C125.822 221.552 120.227 214.633 115.729 209.075C114.526 207.588 113.389 206.181 112.363 204.939C109.694 201.707 105.054 195.193 103.954 187.871C103.248 183.168 104.699 175.584 106.457 171.206L112.417 158.631C112.44 158.584 112.46 158.536 112.48 158.487C114.21 154.217 115.376 149.701 115.985 145.109H133.065C135.252 146.688 137.871 147.552 140.591 147.552C143.016 147.552 145.3 146.648 147.079 145.104L163.628 145.01C164.272 149.159 165.383 153.225 166.978 157.158L172.51 170.811ZM134.992 115.183C133.566 118.783 130.312 121.317 126.501 121.799C125.888 121.868 125.305 121.533 125.066 120.968C123.619 117.562 123.851 113.611 125.685 110.398L142.337 81.2631C142.575 80.8473 142.699 80.3784 142.699 79.8999V52.7763L144.29 53.3093C146.936 73.7952 147.765 80.2066 148.036 82.2651L134.992 115.183ZM139.998 16.1234C146.952 16.1234 152.956 21.0598 155.796 28.1829C151.656 23.8927 146.095 21.3393 139.998 21.3393C133.792 21.3393 128.128 24.1217 123.963 28.7745C126.701 21.3311 132.852 16.1234 139.998 16.1234V16.1234ZM139.998 26.7923C148.194 26.7923 155.148 32.9938 157.12 41.941C156.149 47.4268 153.604 53.4006 150.337 57.9471C150.052 55.7373 149.809 53.8573 149.647 52.6018C149.377 50.5187 147.981 48.8105 146 48.1425L140.852 46.4098C140.144 46.1726 139.384 46.2598 138.735 46.6088L138.726 46.5911L133.322 49.5017C131.661 50.3933 130.567 52.1273 130.468 54.0264L130.2 59.1564C126.687 54.8948 123.978 48.7941 122.924 42.7262C124.876 33.471 131.99 26.7923 139.998 26.7923ZM134.642 77.7268L135.863 54.3154L137.297 53.5438V79.1705L136.566 80.4479L134.642 77.7268ZM162.788 111.071L162.928 130.564H151.873L151.951 129.132C152.105 126.321 152.134 123.505 152.044 120.69C155.113 118.018 158.998 114.501 162.788 111.071V111.071ZM151.542 136.018H162.967L162.971 136.511C162.97 137.531 163.004 138.546 163.059 139.559L150.682 139.629C151.14 138.475 151.422 137.253 151.542 136.018ZM177.588 85.0803C177.392 88.9602 175.578 92.6056 172.613 95.0785C169.358 97.7942 164.238 102.432 159.286 106.916C156.667 109.287 153.992 111.709 151.583 113.856C151.306 111.153 150.925 108.456 150.422 105.776L148.813 97.8255L168.403 80.3361C169.486 79.4582 170.842 79.0506 172.21 79.1187L173.867 79.4364C176.16 80.2789 177.716 82.5555 177.588 85.0803V85.0803ZM163.56 77.3846L151.535 88.1177L153.31 83.6407C153.481 83.2072 153.539 82.7327 153.48 82.2692C153.464 82.152 152.71 76.3199 151.858 69.719L152.082 69.9971C152.092 70.0094 152.162 70.0966 152.171 70.1089C155.007 73.6084 159.006 76.1468 163.56 77.3846V77.3846ZM139.998 5.45444C144.578 5.45444 148.414 8.70039 149.384 13.0315C146.514 11.5278 143.343 10.6703 139.998 10.6703C136.653 10.6703 133.482 11.5278 130.612 13.0315C131.582 8.70039 135.418 5.45444 139.998 5.45444V5.45444ZM115.129 76.9184C120.641 76.7057 125.839 74.4522 129.6 70.6678L129.198 78.3935C129.166 79.0097 129.341 79.619 129.698 80.1221L133.601 85.6392L126.413 98.214L113.45 77.9204C113.288 77.6041 113.107 77.3015 112.918 77.0057L115.129 76.9184ZM98.3823 80.9305C99.1602 78.9619 100.942 77.645 102.934 77.3915L103.526 77.3683C104.015 77.3587 104.51 77.3901 105.004 77.5142C106.608 77.919 107.952 79.0069 108.689 80.4983C108.734 80.587 108.783 80.6728 108.835 80.756L123.379 103.523L121.007 107.671C118.327 112.362 117.988 118.135 120.101 123.114C121.173 125.64 123.664 127.26 126.34 127.26C126.616 127.258 126.894 127.242 127.171 127.207C129.91 126.862 132.445 125.797 134.596 124.21V127.159H139.998V117.228C140.001 117.221 140.005 117.214 140.007 117.207L144.784 105.152L145.123 106.826C146.479 114.069 146.961 121.47 146.557 128.828L146.209 135.171C146.147 136.301 145.829 137.423 145.291 138.417L144.592 139.704C143.792 141.18 142.259 142.098 140.591 142.098C138.704 142.098 136.897 141.392 135.501 140.111L128.404 133.602C121.576 127.338 100.524 95.816 98.7591 92.1148C97.0899 88.6153 96.9521 84.5377 98.3823 80.9305V80.9305Z" fill="#2F3547" fill-opacity="0.47"/>
</svg>
