<svg width="512" height="475" viewBox="0 0 512 475" fill="none" xmlns="http://www.w3.org/2000/svg">
<path d="M259.475 390.199L256.253 393.421L253.03 390.199C158.863 296.032 158.863 143.356 253.03 49.1891L253.185 49.0348C254.879 47.3405 257.626 47.3405 259.321 49.0348L259.475 49.1891C353.643 143.356 353.643 296.032 259.475 390.199Z" stroke="#42586F" stroke-width="20.0391" stroke-miterlimit="10" stroke-linecap="round" stroke-linejoin="round"/>
<path d="M58.5674 294.445C103.417 354.507 175.055 393.4 255.779 393.424" stroke="#42586F" stroke-width="20.0391" stroke-miterlimit="10" stroke-linecap="round" stroke-linejoin="round"/>
<path d="M182.501 218.198C157.881 193.94 128.177 174.826 95.1338 162.611C71.705 153.941 46.594 148.737 20.4329 147.623C14.5855 147.375 9.78007 152.226 10.0296 158.074C10.8492 177.266 13.8671 195.889 18.8388 213.696" stroke="#42586F" stroke-width="20.0391" stroke-miterlimit="10" stroke-linecap="round" stroke-linejoin="round"/>
<path d="M256.732 393.425C324.445 393.265 385.748 365.767 430.134 321.361C472.315 279.189 499.251 221.762 501.971 158.075C502.222 152.221 497.406 147.374 491.553 147.622C464.248 148.786 438.096 154.402 413.808 163.753C382.209 175.928 353.748 194.43 330.001 217.716" stroke="#42586F" stroke-width="20.0391" stroke-miterlimit="10" stroke-linecap="round" stroke-linejoin="round"/>
<path d="M95.1338 162.61C92.9856 129.822 96.9764 96.1488 107.834 63.2055C109.663 57.6546 115.857 54.8401 121.247 57.1035C154.105 70.9045 182.783 90.6761 206.48 114.664" stroke="#42586F" stroke-width="20.0391" stroke-miterlimit="10" stroke-linecap="round" stroke-linejoin="round"/>
<path d="M304.147 110.874C325.278 87.5841 350.926 67.7363 380.533 52.8052C385.744 50.177 392.109 52.5707 394.316 57.9743C407.589 90.4597 413.898 124.174 413.898 157.415C413.898 159.532 413.878 161.638 413.808 163.754" stroke="#42586F" stroke-width="20.0391" stroke-miterlimit="10" stroke-linecap="round" stroke-linejoin="round"/>
<path d="M403.84 344.185C436.403 348.841 467.907 362.72 494.122 385.839C498.703 389.879 498.713 396.962 494.132 401.002C461.304 429.957 420.173 444.43 379.049 444.43C334.523 444.43 289.996 427.472 256 393.536C255.96 393.496 255.93 393.466 255.89 393.425C255.93 393.385 255.96 393.355 256 393.315" stroke="#42586F" stroke-width="20.0391" stroke-miterlimit="10" stroke-linecap="round" stroke-linejoin="round"/>
<path d="M256 393.314C256.04 393.354 256.07 393.384 256.11 393.424C256.07 393.464 256.04 393.495 256 393.535C222.004 427.471 177.478 444.429 132.951 444.429C91.8273 444.429 50.695 429.956 17.8679 401.001C13.2879 396.961 13.297 389.877 17.8779 385.838C44.0851 362.726 75.5876 348.839 108.15 344.184" stroke="#42586F" stroke-width="20.0391" stroke-miterlimit="10" stroke-linecap="round" stroke-linejoin="round"/>
<path d="M201.395 430.47C211.304 450.487 231.932 464.236 255.78 464.236C279.687 464.236 300.356 450.417 310.244 430.319" stroke="#42586F" stroke-width="20.0391" stroke-miterlimit="10" stroke-linecap="round" stroke-linejoin="round"/>
<path d="M80 314.191C80 309.048 81.0417 304.589 83.125 300.812C85.2734 297.036 88.1055 293.814 91.6211 291.145C95.1367 288.475 99.1406 286.327 103.633 284.699C108.125 283.007 112.78 281.704 117.598 280.793C122.415 279.816 127.168 279.165 131.855 278.84C136.543 278.449 140.84 278.221 144.746 278.156V273.176C144.746 268.879 144.193 265.168 143.086 262.043C141.979 258.918 140.417 256.346 138.398 254.328C136.38 252.245 133.939 250.715 131.074 249.738C128.275 248.697 125.182 248.176 121.797 248.176C119.453 248.176 117.142 248.371 114.863 248.762C112.585 249.152 110.208 249.803 107.734 250.715C105.326 251.626 102.754 252.863 100.02 254.426C97.3503 255.988 94.4531 257.974 91.3281 260.383L90.3516 259.797L96.9922 246.027C99.1406 245.051 101.257 244.27 103.34 243.684C105.423 243.033 107.539 242.512 109.688 242.121C111.836 241.73 114.017 241.47 116.23 241.34C118.509 241.145 120.885 241.047 123.359 241.047C130.195 241.047 136.022 241.893 140.84 243.586C145.723 245.214 149.694 247.492 152.754 250.422C155.879 253.286 158.158 256.672 159.59 260.578C161.022 264.419 161.738 268.553 161.738 272.98V304.816C161.738 310.35 161.803 315.201 161.934 319.367C162.129 323.469 162.324 327.017 162.52 330.012C162.78 333.007 163.073 335.513 163.398 337.531C163.789 339.549 164.18 341.242 164.57 342.609V343H142.988V342.609C143.314 341.568 143.542 340.396 143.672 339.094C143.867 337.792 144.03 336.229 144.16 334.406C142.793 335.578 141.165 336.783 139.277 338.02C137.454 339.257 135.339 340.396 132.93 341.438C130.586 342.414 127.949 343.195 125.02 343.781C122.155 344.432 118.997 344.758 115.547 344.758C104.219 344.758 95.4622 342.121 89.2773 336.848C83.0924 331.509 80 323.957 80 314.191ZM144.746 285.773C138.822 285.839 133.125 286.197 127.656 286.848C122.188 287.434 117.337 288.703 113.105 290.656C108.939 292.609 105.586 295.409 103.047 299.055C100.573 302.635 99.3359 307.421 99.3359 313.41C99.3359 321.092 101.257 326.952 105.098 330.988C108.939 335.025 114.245 337.043 121.016 337.043C124.141 337.043 126.973 336.62 129.512 335.773C132.116 334.862 134.395 333.755 136.348 332.453C138.366 331.086 140.059 329.621 141.426 328.059C142.793 326.431 143.835 324.868 144.551 323.371C144.681 320.897 144.746 318.163 144.746 315.168C144.746 312.108 144.746 308.658 144.746 304.816V285.773Z" fill="white"/>
<path d="M226.68 337.238C228.633 337.238 230.553 336.88 232.441 336.164C234.395 335.448 236.25 334.471 238.008 333.234C239.831 331.997 241.556 330.598 243.184 329.035C244.876 327.408 246.439 325.715 247.871 323.957L248.848 324.445L242.5 340.168C241.719 340.559 240.742 341.047 239.57 341.633C238.464 342.154 237.096 342.642 235.469 343.098C233.906 343.618 232.051 344.042 229.902 344.367C227.754 344.758 225.215 344.953 222.285 344.953C213.561 344.953 206.758 342.609 201.875 337.922C197.057 333.169 194.648 325.78 194.648 315.754V250.617L178.242 251.203V242.609C180.26 242.74 182.669 242.837 185.469 242.902C188.268 242.967 191.328 243 194.648 243C194.583 238.378 194.453 234.309 194.258 230.793C194.128 227.212 193.932 224.12 193.672 221.516C193.477 218.846 193.216 216.6 192.891 214.777C192.565 212.954 192.24 211.424 191.914 210.188V209.797H214.473V210.188C214.082 211.424 213.724 212.954 213.398 214.777C213.073 216.6 212.78 218.814 212.52 221.418C212.324 224.022 212.129 227.115 211.934 230.695C211.803 234.211 211.706 238.312 211.641 243C215.742 242.935 219.746 242.87 223.652 242.805C227.624 242.674 231.204 242.544 234.395 242.414C237.65 242.219 240.384 242.056 242.598 241.926C244.876 241.73 246.374 241.568 247.09 241.438L245.332 251.398C242.012 251.333 238.529 251.236 234.883 251.105C231.758 250.975 228.177 250.878 224.141 250.812C220.104 250.747 215.938 250.682 211.641 250.617V317.805C211.641 321.841 212.064 325.129 212.91 327.668C213.822 330.142 214.961 332.095 216.328 333.527C217.76 334.96 219.355 335.936 221.113 336.457C222.936 336.978 224.792 337.238 226.68 337.238Z" fill="white"/>
<path d="M303.438 337.238C305.391 337.238 307.311 336.88 309.199 336.164C311.152 335.448 313.008 334.471 314.766 333.234C316.589 331.997 318.314 330.598 319.941 329.035C321.634 327.408 323.197 325.715 324.629 323.957L325.605 324.445L319.258 340.168C318.477 340.559 317.5 341.047 316.328 341.633C315.221 342.154 313.854 342.642 312.227 343.098C310.664 343.618 308.809 344.042 306.66 344.367C304.512 344.758 301.973 344.953 299.043 344.953C290.319 344.953 283.516 342.609 278.633 337.922C273.815 333.169 271.406 325.78 271.406 315.754V250.617L255 251.203V242.609C257.018 242.74 259.427 242.837 262.227 242.902C265.026 242.967 268.086 243 271.406 243C271.341 238.378 271.211 234.309 271.016 230.793C270.885 227.212 270.69 224.12 270.43 221.516C270.234 218.846 269.974 216.6 269.648 214.777C269.323 212.954 268.997 211.424 268.672 210.188V209.797H291.23V210.188C290.84 211.424 290.482 212.954 290.156 214.777C289.831 216.6 289.538 218.814 289.277 221.418C289.082 224.022 288.887 227.115 288.691 230.695C288.561 234.211 288.464 238.312 288.398 243C292.5 242.935 296.504 242.87 300.41 242.805C304.382 242.674 307.962 242.544 311.152 242.414C314.408 242.219 317.142 242.056 319.355 241.926C321.634 241.73 323.132 241.568 323.848 241.438L322.09 251.398C318.77 251.333 315.286 251.236 311.641 251.105C308.516 250.975 304.935 250.878 300.898 250.812C296.862 250.747 292.695 250.682 288.398 250.617V317.805C288.398 321.841 288.822 325.129 289.668 327.668C290.579 330.142 291.719 332.095 293.086 333.527C294.518 334.96 296.113 335.936 297.871 336.457C299.694 336.978 301.549 337.238 303.438 337.238Z" fill="white"/>
<path d="M337.031 314.191C337.031 309.048 338.073 304.589 340.156 300.812C342.305 297.036 345.137 293.814 348.652 291.145C352.168 288.475 356.172 286.327 360.664 284.699C365.156 283.007 369.811 281.704 374.629 280.793C379.447 279.816 384.199 279.165 388.887 278.84C393.574 278.449 397.871 278.221 401.777 278.156V273.176C401.777 268.879 401.224 265.168 400.117 262.043C399.01 258.918 397.448 256.346 395.43 254.328C393.411 252.245 390.97 250.715 388.105 249.738C385.306 248.697 382.214 248.176 378.828 248.176C376.484 248.176 374.173 248.371 371.895 248.762C369.616 249.152 367.24 249.803 364.766 250.715C362.357 251.626 359.785 252.863 357.051 254.426C354.382 255.988 351.484 257.974 348.359 260.383L347.383 259.797L354.023 246.027C356.172 245.051 358.288 244.27 360.371 243.684C362.454 243.033 364.57 242.512 366.719 242.121C368.867 241.73 371.048 241.47 373.262 241.34C375.54 241.145 377.917 241.047 380.391 241.047C387.227 241.047 393.053 241.893 397.871 243.586C402.754 245.214 406.725 247.492 409.785 250.422C412.91 253.286 415.189 256.672 416.621 260.578C418.053 264.419 418.77 268.553 418.77 272.98V304.816C418.77 310.35 418.835 315.201 418.965 319.367C419.16 323.469 419.355 327.017 419.551 330.012C419.811 333.007 420.104 335.513 420.43 337.531C420.82 339.549 421.211 341.242 421.602 342.609V343H400.02V342.609C400.345 341.568 400.573 340.396 400.703 339.094C400.898 337.792 401.061 336.229 401.191 334.406C399.824 335.578 398.197 336.783 396.309 338.02C394.486 339.257 392.37 340.396 389.961 341.438C387.617 342.414 384.98 343.195 382.051 343.781C379.186 344.432 376.029 344.758 372.578 344.758C361.25 344.758 352.493 342.121 346.309 336.848C340.124 331.509 337.031 323.957 337.031 314.191ZM401.777 285.773C395.853 285.839 390.156 286.197 384.688 286.848C379.219 287.434 374.368 288.703 370.137 290.656C365.97 292.609 362.617 295.409 360.078 299.055C357.604 302.635 356.367 307.421 356.367 313.41C356.367 321.092 358.288 326.952 362.129 330.988C365.97 335.025 371.276 337.043 378.047 337.043C381.172 337.043 384.004 336.62 386.543 335.773C389.147 334.862 391.426 333.755 393.379 332.453C395.397 331.086 397.09 329.621 398.457 328.059C399.824 326.431 400.866 324.868 401.582 323.371C401.712 320.897 401.777 318.163 401.777 315.168C401.777 312.108 401.777 308.658 401.777 304.816V285.773Z" fill="white"/>
</svg>
