<svg xmlns="http://www.w3.org/2000/svg" viewBox="0 0 36 30" x="0px" y="0px" style="max-width:20" height="24">
<g fill="#cbd0b0" fill-rule="evenodd" style="">
<path fill-rule="nonzero" d="M11.4591045 10.6609419C10.4317813 10.1438492 9.31267545 9.63632582 
8.09955736 9.13912766 7.89638098 10.3260628 7.7426108 11.4504202 7.63684384 12.5133496 8.6958135 
12.7515869 9.68225989 13.0218738 10.598104 13.3232596 10.8211503 12.4673775 11.107557 11.5801707 
11.4591045 10.6609419zM10.9641794 15.5736327C9.63180089 15.0674328 8.10195137 14.6365223 
6.36574541 14.2875218 5.87024983 14.1879205 5.52696234 13.7342649 5.56576885 13.2303499 5.69906546
11.4994507 5.95950981 9.61448795 6.35212929 7.56979284 6.46972236 6.95738829 7.11301754 6.60080395
7.69468088 6.82560434 9.75685665 7.62259101 11.5872579 8.45049224 13.1948577 9.30780647 13.6498582
9.55045288 13.8457472 10.0992921 13.6472084 10.5751965 13.0106674 12.1010076 12.5654534 13.5205425
12.2995311 14.8368466 12.1772787 15.4419902 11.5413007 15.7928938 10.9641794 15.5736327zM25.401896
13.3232596C26.3177401 13.0218738 27.3041865 12.7515869 28.3631562 12.5133496 28.2573892 11.4504202
28.103619 10.3260628 27.9004426 9.13912766 26.6873246 9.63632582 25.5682187 10.1438492 24.5408955
10.6609419 24.8924432 11.5801711 25.17885 12.4673782 25.401896 13.3232596zM22.8051423 9.30780647C24.4127421 8.45049224 26.2431434 7.62259101 28.3053191 6.82560434 28.8869825 6.60080395 29.5302776
6.95738829 29.6478707 7.56979284 30.0404902 9.61448795 30.3009345 11.4994507 30.4342311 13.2303499 
30.4730377 13.7342649 30.1297502 14.1879205 29.6342546 14.2875218 27.8980486 14.6365223 26.3681991 
15.0674328 25.0358206 15.5736327 24.4586992 15.7928938 23.8227212 15.4419901 23.7004689 14.8368464 
23.4345465 13.5205423 22.9893325 12.1010073 22.3527916 10.5751965 22.1542528 10.0992921 22.3501418
9.55045288 22.8051423 9.30780647z" style="" fill="#cbd0b0"></path>
<path fill-rule="nonzero" d="M22.8047945,25.4091165 C22.0424274,26.1217587 21.2498121,26.6713366 
20.4934268,27.0831976 C21.6508461,27.4480212 22.8565483,27.5419475 24.0652385,27.2680666 
C27.781854,26.4259071 31.0227792,22.3093017 33.2857742,13.7126913 C30.3575883,14.0613022
27.8751294,14.5947563 25.8131468,15.2944758 C26.4945598,19.7139306 25.3104959,23.066848 22.8047945,25.4091165
 Z M24.3255127,13.7040171 C27.0189567,12.6807184 30.3947236,11.960157 34.5094889,11.5711407 C35.1916986,11.5066435 35.7351982,12.1318683
  35.5763835,12.7984625 C33.1456218,23.0011161 29.2949276,28.1337569 
 24.5072201,29.2186184 C22.7822168,29.6094922 21.0881611,29.4302497 19.499627,28.8581358 C18.5497238,28.5160262 
 17.8351658,28.1151253 17.4137021,27.8100956 C16.7200972,27.3081065 16.936999,26.2233986 
 17.7703086,26.0267365 C17.9865672,25.9756992 18.3985489,25.8416031 18.928178,25.6034144 C19.8197186,25.2024644 20.6812795,24.6563863 
 21.4390322,23.9480575 C23.597532,21.9303445 24.5413503,18.9991636 23.7004692,14.8368467 C23.6035628,14.3571653 23.8680439,13.8778196
  24.3255127,13.7040171 Z" style="" fill="#cbd0b0"></path>
<path fill-rule="nonzero" d="M18.2295314,27.9733013 C18.0785808,28.0088996 17.9214192,28.0088996 17.7704686,27.9733013 C16.765861,27.736387 
15.3254302,27.1324876 13.8819948,25.9978142 C8.15577443,21.496477 8.15577443,13.1965791 17.1833587,0.42285446 C17.5818177,-0.140951487 18.4181823,-0.140951487 
18.8166413,0.42285446 C25.9026283,10.449285 27.4589568,17.7897915 24.7898053,22.8254697 
C23.8312617,24.6338785 22.4007482,25.9832971 20.7074081,26.9417046 C19.6936743,27.5154641 18.8073295,27.8370405 18.2295314,27.9733013 Z M18.3049377,25.8568329 C18.7546421,25.6936748 
19.2348607,25.4770249 19.7222794,25.2011526 C21.1051112,24.4184886 22.2585821,23.3304072 23.0226947,21.8888161 C25.1807267,17.8174269 23.9896,11.6004324 17.9996866,2.75653371 C10.3495006,14.0341456 10.5029127,20.7975779 15.1180052,24.4254662 C15.8081166,24.9679574 16.5510431,25.3884437 17.2928938,25.699464 C17.5788251,25.8193404 17.8190743,25.9052899 17.9981136,25.9615313 C18.0833985,25.9345369 18.1864025,25.8998388 18.3049377,25.8568329 Z" style="" fill="#cbd0b0"></path>
<path fill-rule="nonzero" d="M11.6744873,13.7040171 C12.1319561,13.8778196 12.3964372,14.3571653 12.2995308,14.8368467 C11.4584957,18.9999262 12.4027993,21.9313971 14.5620898,23.9491063 C15.3200121,24.6573328 16.1816815,25.2032663 17.0732156,25.6040412 C17.6025726,25.8420052 18.0317817,25.981641 18.2295683,26.0267074 C19.062962,26.2232781 19.2799513,27.3080745 18.5862955,27.8100972 C18.1648187,28.1151347 17.4502595,28.5160346 16.5003519,28.8581434
 C14.9118162,29.4302539 13.2177602,29.609492 11.4927579,29.2186134 C6.70505998,28.1337404 2.85437429,23.0010996 0.423616512,12.7984625 C0.264801785,12.1318683 0.808301423,11.5066435 1.4905111,11.5711407 C5.60527644,11.960157 8.98104326,12.6807184 11.6744873,13.7040171 Z M2.71422576,13.7126913 C4.97721719,22.3092877 8.21813599,26.4258943 11.9347447,27.2680628 C13.1434327,27.5419466 14.3491331,27.4480241 15.5065519,27.0832043 C14.7507363,26.6716292 13.9586165,26.1224723 13.1965958,25.4104161 C10.6899648,23.0681409 9.5053025,19.7148107 10.1868531,15.2944757 C8.12487048,14.5947562 5.64241164,14.0613022 2.71422576,13.7126913 Z" style="" fill="#cbd0b0"></path>
<circle cx="18" cy="20" r="2" style="" fill="#cbd0b0"></circle>
<circle cx="18" cy="14.5" r="1.5" style="" fill="#cbd0b0"></circle>
<circle cx="18" cy="10" r="1" style="" fill="#cbd0b0"></circle></g></svg>