<svg width="1186" height="591" viewBox="0 0 1186 591" fill="none" xmlns="http://www.w3.org/2000/svg">
<path d="M568.309 393.246C518.207 447.515 438.18 482.656 348.003 482.677M346.46 483.143C253.841 482.924 169.987 445.311 109.275 384.57C51.5773 326.886 14.7337 248.335 11.0128 161.221C10.6702 153.214 17.2569 146.584 25.2634 146.924C62.6128 148.515 98.3846 156.197 131.606 168.988C174.829 185.641 213.759 210.949 246.241 242.801M567.501 167.424C570.44 122.575 564.981 76.5162 550.13 31.455C547.628 23.8623 539.155 20.0125 531.783 23.1085C486.838 41.986 447.611 69.0304 415.197 101.842M281.605 96.6573C252.701 64.801 217.619 37.6524 177.121 17.229C169.993 13.6341 161.288 16.9083 158.268 24.2995C140.113 68.7344 131.483 114.85 131.483 160.319C131.483 163.214 131.51 166.094 131.606 168.989M145.241 415.79C100.699 422.159 57.6075 441.143 21.7493 472.765C15.4833 478.291 15.4696 487.981 21.7356 493.507C66.6392 533.112 122.9 552.909 179.15 552.909C240.055 552.909 300.96 529.713 347.462 483.294C347.517 483.239 347.558 483.198 347.613 483.143C347.558 483.088 347.517 483.047 347.462 482.992M347.463 482.991C347.408 483.046 347.367 483.087 347.312 483.141C347.367 483.196 347.408 483.237 347.463 483.292C393.964 529.712 454.869 552.908 515.774 552.908C572.024 552.908 628.287 533.11 673.189 493.505C679.454 487.979 679.441 478.29 673.175 472.764C637.328 441.152 594.238 422.156 549.697 415.789M422.153 533.814C408.6 561.194 380.384 580 347.764 580C315.062 580 286.791 561.098 273.265 533.608M342.709 478.73L347.117 483.137L351.525 478.73C480.33 349.925 480.33 141.088 351.525 12.2827L351.313 12.0717C348.996 9.75411 345.238 9.75411 342.92 12.0717L342.709 12.2827C213.903 141.088 213.903 349.925 342.709 478.73Z" stroke="#658FBB" stroke-width="20.0391" stroke-miterlimit="10" stroke-linecap="round" stroke-linejoin="round"/>
<path d="M479 308.383C479 300.087 480.68 292.894 484.041 286.803C487.506 280.713 492.074 275.515 497.745 271.21C503.415 266.904 509.874 263.439 517.119 260.814C524.365 258.083 531.874 255.983 539.645 254.513C547.416 252.938 555.081 251.888 562.642 251.363C570.203 250.733 577.134 250.365 583.435 250.26V242.227C583.435 235.296 582.542 229.311 580.757 224.27C578.972 219.23 576.451 215.082 573.196 211.827C569.941 208.466 566.003 205.999 561.382 204.423C556.867 202.743 551.879 201.903 546.418 201.903C542.638 201.903 538.91 202.218 535.234 202.848C531.559 203.478 527.726 204.528 523.735 205.999C519.85 207.469 515.702 209.464 511.291 211.984C506.986 214.504 502.313 217.707 497.272 221.592L495.697 220.647L506.408 198.438C509.874 196.863 513.287 195.603 516.647 194.658C520.007 193.607 523.42 192.767 526.886 192.137C530.351 191.507 533.869 191.087 537.439 190.877C541.115 190.562 544.948 190.405 548.938 190.405C559.965 190.405 569.363 191.77 577.134 194.5C585.01 197.125 591.416 200.801 596.351 205.526C601.392 210.146 605.067 215.607 607.378 221.908C609.688 228.103 610.843 234.771 610.843 241.912V293.262C610.843 302.187 610.948 310.011 611.158 316.731C611.473 323.347 611.788 329.07 612.103 333.9C612.523 338.731 612.996 342.774 613.521 346.029C614.151 349.284 614.781 352.014 615.411 354.22V354.85H580.599V354.22C581.125 352.539 581.492 350.649 581.702 348.549C582.017 346.449 582.28 343.929 582.49 340.988C580.284 342.879 577.659 344.821 574.614 346.816C571.673 348.812 568.261 350.649 564.375 352.329C560.595 353.905 556.342 355.165 551.616 356.11C546.996 357.16 541.902 357.685 536.337 357.685C518.065 357.685 503.94 353.432 493.964 344.926C483.988 336.316 479 324.134 479 308.383ZM583.435 262.546C573.879 262.651 564.69 263.229 555.869 264.279C547.048 265.224 539.225 267.272 532.399 270.422C525.678 273.572 520.27 278.088 516.174 283.968C512.184 289.744 510.189 297.462 510.189 307.123C510.189 319.514 513.287 328.965 519.482 335.475C525.678 341.986 534.237 345.241 545.158 345.241C550.198 345.241 554.766 344.559 558.862 343.194C563.062 341.724 566.738 339.938 569.888 337.838C573.144 335.633 575.874 333.27 578.079 330.75C580.284 328.125 581.965 325.605 583.12 323.189C583.33 319.199 583.435 314.789 583.435 309.958C583.435 305.023 583.435 299.457 583.435 293.262V262.546Z" fill="#2F3547"/>
<path d="M715.593 345.556C718.743 345.556 721.841 344.979 724.887 343.824C728.037 342.669 731.03 341.093 733.865 339.098C736.805 337.103 739.588 334.845 742.214 332.325C744.944 329.7 747.464 326.97 749.774 324.134L751.35 324.922L741.111 350.282C739.851 350.912 738.276 351.699 736.385 352.645C734.6 353.485 732.395 354.272 729.77 355.007C727.249 355.847 724.256 356.53 720.791 357.055C717.326 357.685 713.23 358 708.505 358C694.433 358 683.459 354.22 675.583 346.659C667.812 338.993 663.927 327.075 663.927 310.903V205.841L637.464 206.786V192.925C640.719 193.135 644.605 193.292 649.12 193.397C653.636 193.502 658.571 193.555 663.927 193.555C663.822 186.099 663.612 179.536 663.297 173.866C663.087 168.09 662.772 163.102 662.352 158.902C662.037 154.596 661.617 150.974 661.091 148.033C660.566 145.093 660.041 142.625 659.516 140.63V140H695.903V140.63C695.273 142.625 694.695 145.093 694.17 148.033C693.645 150.974 693.173 154.544 692.753 158.744C692.438 162.945 692.123 167.933 691.808 173.708C691.598 179.379 691.44 185.994 691.335 193.555C697.951 193.45 704.409 193.345 710.71 193.24C717.116 193.03 722.891 192.82 728.037 192.61C733.287 192.295 737.698 192.032 741.268 191.822C744.944 191.507 747.359 191.245 748.514 191.035L745.679 207.101C740.323 206.996 734.705 206.839 728.824 206.629C723.784 206.419 718.008 206.261 711.497 206.156C704.987 206.051 698.266 205.946 691.335 205.841V314.211C691.335 320.722 692.018 326.025 693.383 330.12C694.853 334.11 696.691 337.261 698.896 339.571C701.206 341.881 703.779 343.456 706.614 344.296C709.555 345.136 712.548 345.556 715.593 345.556Z" fill="#2F3547"/>
<path d="M839.403 345.556C842.553 345.556 845.651 344.979 848.696 343.824C851.846 342.669 854.839 341.093 857.675 339.098C860.615 337.103 863.398 334.845 866.023 332.325C868.753 329.7 871.274 326.97 873.584 324.134L875.159 324.922L864.921 350.282C863.66 350.912 862.085 351.699 860.195 352.645C858.41 353.485 856.204 354.272 853.579 355.007C851.059 355.847 848.066 356.53 844.601 357.055C841.135 357.685 837.04 358 832.314 358C818.243 358 807.269 354.22 799.393 346.659C791.622 338.993 787.736 327.075 787.736 310.903V205.841L761.273 206.786V192.925C764.529 193.135 768.414 193.292 772.93 193.397C777.445 193.502 782.381 193.555 787.736 193.555C787.631 186.099 787.421 179.536 787.106 173.866C786.896 168.09 786.581 163.102 786.161 158.902C785.846 154.596 785.426 150.974 784.901 148.033C784.376 145.093 783.851 142.625 783.326 140.63V140H819.713V140.63C819.083 142.625 818.505 145.093 817.98 148.033C817.455 150.974 816.982 154.544 816.562 158.744C816.247 162.945 815.932 167.933 815.617 173.708C815.407 179.379 815.25 185.994 815.145 193.555C821.76 193.45 828.219 193.345 834.519 193.24C840.925 193.03 846.701 192.82 851.846 192.61C857.097 192.295 861.508 192.032 865.078 191.822C868.753 191.507 871.169 191.245 872.324 191.035L869.489 207.101C864.133 206.996 858.515 206.839 852.634 206.629C847.593 206.419 841.818 206.261 835.307 206.156C828.796 206.051 822.075 205.946 815.145 205.841V314.211C815.145 320.722 815.827 326.025 817.192 330.12C818.663 334.11 820.5 337.261 822.706 339.571C825.016 341.881 827.589 343.456 830.424 344.296C833.364 345.136 836.357 345.556 839.403 345.556Z" fill="#2F3547"/>
<path d="M893.589 308.383C893.589 300.087 895.269 292.894 898.629 286.803C902.095 280.713 906.663 275.515 912.334 271.21C918.004 266.904 924.463 263.439 931.708 260.814C938.954 258.083 946.463 255.983 954.234 254.513C962.004 252.938 969.67 251.888 977.231 251.363C984.792 250.733 991.723 250.365 998.024 250.26V242.227C998.024 235.296 997.131 229.311 995.346 224.27C993.561 219.23 991.04 215.082 987.785 211.827C984.53 208.466 980.592 205.999 975.971 204.423C971.456 202.743 966.467 201.903 961.007 201.903C957.226 201.903 953.498 202.218 949.823 202.848C946.148 203.478 942.315 204.528 938.324 205.999C934.439 207.469 930.291 209.464 925.88 211.984C921.575 214.504 916.902 217.707 911.861 221.592L910.286 220.647L920.997 198.438C924.463 196.863 927.875 195.603 931.236 194.658C934.596 193.607 938.009 192.767 941.475 192.137C944.94 191.507 948.458 191.087 952.028 190.877C955.704 190.562 959.537 190.405 963.527 190.405C974.553 190.405 983.952 191.77 991.723 194.5C999.599 197.125 1006 200.801 1010.94 205.526C1015.98 210.146 1019.66 215.607 1021.97 221.908C1024.28 228.103 1025.43 234.771 1025.43 241.912V293.262C1025.43 302.187 1025.54 310.011 1025.75 316.731C1026.06 323.347 1026.38 329.07 1026.69 333.9C1027.11 338.731 1027.58 342.774 1028.11 346.029C1028.74 349.284 1029.37 352.014 1030 354.22V354.85H995.188V354.22C995.713 352.539 996.081 350.649 996.291 348.549C996.606 346.449 996.869 343.929 997.079 340.988C994.873 342.879 992.248 344.821 989.203 346.816C986.262 348.812 982.849 350.649 978.964 352.329C975.184 353.905 970.931 355.165 966.205 356.11C961.584 357.16 956.491 357.685 950.926 357.685C932.654 357.685 918.529 353.432 908.553 344.926C898.577 336.316 893.589 324.134 893.589 308.383ZM998.024 262.546C988.468 262.651 979.279 263.229 970.458 264.279C961.637 265.224 953.814 267.272 946.988 270.422C940.267 273.572 934.859 278.088 930.763 283.968C926.773 289.744 924.778 297.462 924.778 307.123C924.778 319.514 927.875 328.965 934.071 335.475C940.267 341.986 948.825 345.241 959.747 345.241C964.787 345.241 969.355 344.559 973.451 343.194C977.651 341.724 981.327 339.938 984.477 337.838C987.733 335.633 990.463 333.27 992.668 330.75C994.873 328.125 996.554 325.605 997.709 323.189C997.919 319.199 998.024 314.789 998.024 309.958C998.024 305.023 998.024 299.457 998.024 293.262V262.546Z" fill="#2F3547"/>
<path d="M802.754 508.781L768.379 433.586C767.142 430.721 765.807 427.987 764.375 425.383C762.943 422.714 761.576 420.337 760.273 418.254C759.036 416.171 757.93 414.445 756.953 413.078C755.977 411.646 755.326 410.734 755 410.344V409.953H780.586V410.344C780.456 410.669 780.358 411.158 780.293 411.809C780.228 412.46 780.195 413.046 780.195 413.566C780.195 415.585 780.488 417.831 781.074 420.305C781.725 422.714 782.897 425.741 784.59 429.387L811.543 487.98L836.152 430.168C837.194 427.759 838.236 425.122 839.277 422.258C840.384 419.393 840.938 416.496 840.938 413.566C840.938 412.72 840.872 412.036 840.742 411.516C840.612 410.93 840.482 410.539 840.352 410.344V409.953H857.93V410.344C856.758 411.581 855.26 413.794 853.438 416.984C851.68 420.109 849.792 424.048 847.773 428.801L801.191 539.738C800.15 542.147 799.076 544.784 797.969 547.648C796.927 550.513 796.406 553.41 796.406 556.34C796.406 557.186 796.471 557.87 796.602 558.391C796.732 558.977 796.862 559.367 796.992 559.562V559.953H778.73V559.562C779.967 558.326 781.465 556.145 783.223 553.02C785.046 549.96 786.966 546.086 788.984 541.398L802.754 508.781Z" fill="#2F3547" fill-opacity="0.33"/>
<path d="M863.398 459.758C863.398 452.401 864.766 445.598 867.5 439.348C870.234 433.033 873.978 427.564 878.73 422.941C883.548 418.319 889.212 414.706 895.723 412.102C902.233 409.497 909.232 408.195 916.719 408.195C924.076 408.195 930.977 409.432 937.422 411.906C943.932 414.315 949.596 417.766 954.414 422.258C959.232 426.75 963.008 432.219 965.742 438.664C968.542 445.109 969.941 452.336 969.941 460.344C969.941 467.049 968.77 473.495 966.426 479.68C964.082 485.865 960.632 491.333 956.074 496.086C951.517 500.839 945.918 504.647 939.277 507.512C932.702 510.311 925.117 511.711 916.523 511.711C909.232 511.711 902.363 510.507 895.918 508.098C889.473 505.689 883.841 502.238 879.023 497.746C874.206 493.254 870.397 487.818 867.598 481.438C864.798 474.992 863.398 467.766 863.398 459.758ZM918.77 504.582C923.392 504.582 927.624 503.671 931.465 501.848C935.371 500.025 938.724 497.388 941.523 493.938C944.323 490.487 946.504 486.288 948.066 481.34C949.629 476.392 950.41 470.793 950.41 464.543C950.41 457.512 949.661 451.001 948.164 445.012C946.667 438.957 944.421 433.749 941.426 429.387C938.496 424.96 934.785 421.509 930.293 419.035C925.801 416.561 920.56 415.324 914.57 415.324C909.948 415.324 905.716 416.236 901.875 418.059C898.034 419.816 894.681 422.388 891.816 425.773C889.017 429.159 886.836 433.326 885.273 438.273C883.711 443.156 882.93 448.723 882.93 454.973C882.93 462.004 883.678 468.547 885.176 474.602C886.738 480.656 889.017 485.93 892.012 490.422C895.007 494.849 898.717 498.332 903.145 500.871C907.637 503.345 912.845 504.582 918.77 504.582Z" fill="#2F3547" fill-opacity="0.33"/>
<path d="M1029.71 554.582C1034.98 554.582 1039.44 553.996 1043.09 552.824C1046.73 551.717 1049.73 550.155 1052.07 548.137C1054.48 546.118 1056.3 543.677 1057.54 540.812C1058.84 538.013 1059.79 534.921 1060.37 531.535C1061.02 528.15 1061.38 524.536 1061.45 520.695C1061.58 516.854 1061.64 512.883 1061.64 508.781V505.559C1058.45 507.251 1054.61 508.716 1050.12 509.953C1045.62 511.125 1040.55 511.711 1034.88 511.711C1027.14 511.711 1020.1 510.507 1013.79 508.098C1007.47 505.689 1002.07 502.238 997.578 497.746C993.151 493.254 989.733 487.818 987.324 481.438C984.915 474.992 983.711 467.766 983.711 459.758C983.711 452.401 984.883 445.565 987.227 439.25C989.635 432.935 992.988 427.466 997.285 422.844C1001.65 418.221 1006.82 414.608 1012.81 412.004C1018.87 409.335 1025.54 408 1032.83 408C1035.96 408 1038.82 408.26 1041.43 408.781C1044.03 409.302 1046.44 410.018 1048.65 410.93C1050.93 411.776 1053.05 412.785 1055 413.957C1057.02 415.064 1058.97 416.268 1060.86 417.57L1059.88 410.344V409.953H1081.46V410.344C1081.07 411.711 1080.68 413.404 1080.29 415.422C1079.97 417.44 1079.67 419.947 1079.41 422.941C1079.22 425.936 1079.02 429.517 1078.83 433.684C1078.7 437.785 1078.63 442.603 1078.63 448.137V514.543C1078.63 520.533 1077.82 526.359 1076.19 532.023C1074.63 537.753 1071.93 542.831 1068.09 547.258C1064.31 551.685 1059.3 555.233 1053.05 557.902C1046.8 560.572 1039.02 561.906 1029.71 561.906C1026.45 561.906 1023.16 561.581 1019.84 560.93C1016.52 560.344 1013.37 559.595 1010.37 558.684C1007.38 557.837 1004.67 556.893 1002.27 555.852C999.857 554.81 997.936 553.898 996.504 553.117L993.477 534.367L995.039 533.977C996.602 537.362 998.717 540.324 1001.39 542.863C1004.12 545.467 1007.08 547.616 1010.27 549.309C1013.46 551.066 1016.75 552.368 1020.14 553.215C1023.59 554.126 1026.78 554.582 1029.71 554.582ZM1039.28 504.582C1043.96 504.582 1048.2 503.801 1051.97 502.238C1055.81 500.676 1059.04 498.853 1061.64 496.77V448.137C1061.64 444.491 1061.61 441.203 1061.54 438.273C1061.48 435.279 1061.45 432.577 1061.45 430.168C1059.88 427.759 1058.06 425.643 1055.98 423.82C1053.96 421.932 1051.78 420.37 1049.43 419.133C1047.15 417.831 1044.81 416.854 1042.4 416.203C1039.99 415.487 1037.62 415.129 1035.27 415.129C1030.33 415.129 1025.87 416.04 1021.89 417.863C1017.92 419.686 1014.54 422.323 1011.74 425.773C1009 429.159 1006.89 433.326 1005.39 438.273C1003.96 443.156 1003.24 448.723 1003.24 454.973C1003.24 462.004 1004.02 468.547 1005.59 474.602C1007.15 480.656 1009.43 485.93 1012.42 490.422C1015.48 494.849 1019.26 498.332 1023.75 500.871C1028.24 503.345 1033.42 504.582 1039.28 504.582Z" fill="#2F3547" fill-opacity="0.33"/>
<path d="M1100.9 481.145C1100.9 476.001 1101.94 471.542 1104.02 467.766C1106.17 463.99 1109 460.767 1112.52 458.098C1116.04 455.428 1120.04 453.28 1124.53 451.652C1129.02 449.96 1133.68 448.658 1138.5 447.746C1143.31 446.77 1148.07 446.118 1152.75 445.793C1157.44 445.402 1161.74 445.174 1165.64 445.109V440.129C1165.64 435.832 1165.09 432.121 1163.98 428.996C1162.88 425.871 1161.32 423.299 1159.3 421.281C1157.28 419.198 1154.84 417.668 1151.97 416.691C1149.17 415.65 1146.08 415.129 1142.7 415.129C1140.35 415.129 1138.04 415.324 1135.76 415.715C1133.48 416.105 1131.11 416.757 1128.63 417.668C1126.22 418.579 1123.65 419.816 1120.92 421.379C1118.25 422.941 1115.35 424.927 1112.23 427.336L1111.25 426.75L1117.89 412.98C1120.04 412.004 1122.15 411.223 1124.24 410.637C1126.32 409.986 1128.44 409.465 1130.59 409.074C1132.73 408.684 1134.92 408.423 1137.13 408.293C1139.41 408.098 1141.78 408 1144.26 408C1151.09 408 1156.92 408.846 1161.74 410.539C1166.62 412.167 1170.59 414.445 1173.65 417.375C1176.78 420.24 1179.06 423.625 1180.49 427.531C1181.92 431.372 1182.64 435.507 1182.64 439.934V471.77C1182.64 477.303 1182.7 482.154 1182.83 486.32C1183.03 490.422 1183.22 493.97 1183.42 496.965C1183.68 499.96 1183.97 502.466 1184.3 504.484C1184.69 506.503 1185.08 508.195 1185.47 509.562V509.953H1163.89V509.562C1164.21 508.521 1164.44 507.349 1164.57 506.047C1164.77 504.745 1164.93 503.182 1165.06 501.359C1163.69 502.531 1162.06 503.736 1160.18 504.973C1158.35 506.21 1156.24 507.349 1153.83 508.391C1151.48 509.367 1148.85 510.148 1145.92 510.734C1143.05 511.385 1139.9 511.711 1136.45 511.711C1125.12 511.711 1116.36 509.074 1110.18 503.801C1103.99 498.462 1100.9 490.91 1100.9 481.145ZM1165.64 452.727C1159.72 452.792 1154.02 453.15 1148.55 453.801C1143.09 454.387 1138.24 455.656 1134 457.609C1129.84 459.562 1126.48 462.362 1123.95 466.008C1121.47 469.589 1120.23 474.374 1120.23 480.363C1120.23 488.046 1122.15 493.905 1126 497.941C1129.84 501.978 1135.14 503.996 1141.91 503.996C1145.04 503.996 1147.87 503.573 1150.41 502.727C1153.01 501.815 1155.29 500.708 1157.25 499.406C1159.26 498.039 1160.96 496.574 1162.32 495.012C1163.69 493.384 1164.73 491.822 1165.45 490.324C1165.58 487.85 1165.64 485.116 1165.64 482.121C1165.64 479.061 1165.64 475.611 1165.64 471.77V452.727Z" fill="#2F3547" fill-opacity="0.33"/>
</svg>
