<svg width="683" height="683" viewBox="0 0 683 683" fill="none" xmlns="http://www.w3.org/2000/svg">
<g clip-path="url(#clip0_6_136)">
<path d="M314.595 179.086C319.059 185.993 341.171 216.537 383.568 217.41M302.847 501.891L321.854 453.159M413.775 499.014C413.775 499.014 398.115 489.533 375.707 477.507C339.759 458.219 286.428 432.381 252.438 428.605M389.832 436.894C387.583 430.433 381.104 410.503 381.104 395.422C381.104 382.557 387.42 359.382 387.42 359.382C387.42 359.382 408.079 401.593 417.232 413.037C423.215 420.517 448.35 447.443 479.48 466.691C485.343 470.317 492.936 466.106 493.039 459.215C493.248 445.082 492.682 424.811 488.148 417.535C481.48 406.837 466.03 410.201 466.03 410.201C453.684 400.23 449.807 393.013 444.576 385.446M426.987 350.658C422.368 340.334 417.936 329.893 414.702 322.137C411.431 314.301 404.634 308.493 396.383 306.489L361.015 297.898V286.392M321.651 286.392V297.898L286.283 306.489C278.032 308.493 271.235 314.301 267.966 322.137C260.248 340.635 245.728 374.397 238.091 385.446C232.859 393.013 228.982 400.23 216.638 410.201C216.638 410.201 201.186 406.837 194.519 417.535C189.984 424.811 189.418 445.082 189.627 459.215C189.73 466.106 197.324 470.317 203.186 466.691C234.318 447.443 259.452 420.517 265.435 413.037C274.587 401.593 295.246 359.382 295.246 359.382C295.246 359.382 301.562 382.557 301.562 395.422C301.562 410.714 294.9 430.99 292.743 437.157M430.22 428.606C406.124 431.283 372.315 445.046 341.867 459.702M153.526 505.334H529.142M387.42 359.382L370.524 303.686M295.246 359.382L311.092 303.886M216.315 459.693C218.763 489.134 261.368 505.334 341.334 505.334C421.306 505.334 463.912 489.13 466.352 459.683M305.088 330.61C316.9 337.408 329.156 341.659 341.334 341.659C353.51 341.659 365.764 337.408 377.576 330.612M150 90.0008H350.442M350.442 90.0008H532.667M321.334 50.0009H361.334M321.334 632.667H361.334M153.526 592.667H207.586M247.586 592.667H529.142M532.667 119.27V50.0009C532.667 27.9089 514.758 10.0009 492.667 10.0009H190C167.908 10.0009 150 27.9089 150 50.0009V240.001M532.667 159.27V632.667C532.667 654.758 514.758 672.667 492.667 672.667H190C167.908 672.667 150 654.758 150 632.667V280.001M385.428 212.095C385.428 187.742 365.686 168.001 341.334 168.001C316.98 168.001 297.238 187.742 297.238 212.095V241.897C297.238 262.058 309.206 280.521 327.89 288.1C332.262 289.872 336.812 290.993 341.334 290.993C345.854 290.993 350.404 289.872 354.778 288.1C373.46 280.521 385.428 262.058 385.428 241.897V212.095ZM402 49.3342C401.632 49.3342 401.334 49.6315 401.334 50.0009C401.334 50.3689 401.632 50.6675 402 50.6675C402.368 50.6675 402.667 50.3689 402.667 50.0009C402.667 49.6315 402.368 49.3342 402 49.3342Z" stroke="#658FBB" stroke-width="20" stroke-miterlimit="10" stroke-linecap="round" stroke-linejoin="round"/>
</g>
<defs>
<clipPath id="clip0_6_136">
<rect width="682.667" height="682.667" fill="white"/>
</clipPath>
</defs>
</svg>
