<svg width="275" height="344" viewBox="0 0 275 344" fill="none" xmlns="http://www.w3.org/2000/svg">
<path d="M161.04 19.5811C182.162 17.1993 205.497 29.8553 219.596 48.9346C233.559 68.074 238.223 93.4955 240.54 118.77C242.72 144.104 242.355 169.21 229.743 183.523C217.069 197.695 191.95 200.993 170.234 208.692C148.382 216.452 129.934 228.614 110.228 229.025C90.658 229.375 69.8432 217.633 54.9251 200.768C39.9449 183.762 30.6007 161.411 28.657 138.837C26.7755 116.406 32.1703 93.4692 45.6268 79.9644C59.2198 66.3995 80.7501 61.9837 100.975 50.8948C121.199 39.8059 139.981 22.104 161.04 19.5811Z" fill="#FCEEDD"/>
<path d="M123.91 257.22L110.629 295.736C110.588 295.856 110.555 295.98 110.531 296.105L105.545 322.285L67.7984 330.807C65.5619 331.312 64 333.266 64 335.558C64 338.243 66.1848 340.428 68.8702 340.428H104.248C105.808 342.115 107.994 343.084 110.3 343.084H232.648C241.844 343.084 250.78 341.216 259.206 337.529L260.3 337.051C266.05 334.534 270.486 329.676 272.473 323.72C274.35 318.091 273.921 312.066 271.267 306.758L270.654 305.529L268.218 283.733C267.551 276.39 267.478 268.937 268.004 261.584L270.267 229.91C270.886 221.249 270.707 212.482 269.735 203.853L265.86 169.465L265.852 169.467C265.818 169.156 265.736 168.85 265.592 168.568L233.376 104.722C230.469 98.9605 227.18 93.3187 223.603 87.953L202.345 56.0648C202.067 55.6451 201.673 55.3144 201.211 55.1098L130.975 23.9693L114.806 14.1531C112.668 12.8542 110.004 12.6391 107.681 13.5767L85.7135 22.4685C82.6084 23.7263 80.6016 26.7026 80.6016 30.0521V30.5847C80.6016 34.3884 83.1808 37.653 86.877 38.5388L79.3133 41.4474C75.8376 42.7835 73.1508 45.72 72.1281 49.302C71.0112 53.2106 71.9422 57.3716 74.6197 60.4303L79.0198 65.4586C79.7542 66.298 80.2682 67.318 80.5046 68.4084L92.2572 122.468C92.9664 125.729 93.9532 128.954 95.1937 132.053L100.978 146.514C103.099 151.817 105.958 156.786 109.476 161.281L127.977 184.921L137.459 220.74C135.041 225.516 132.991 230.353 131.34 235.238L123.91 257.22ZM106.48 327.519C104.129 328.747 102.504 331.029 102.128 333.661C102.059 334.148 102.044 334.634 102.06 335.117H72.8347L106.48 327.519ZM108.078 336.759C107.509 336.104 107.265 335.271 107.387 334.413C107.524 333.457 108.122 332.628 108.985 332.197L117.748 327.815C123.74 324.819 130.427 323.625 137.089 324.366L150.036 325.804C150.656 325.875 151.282 325.721 151.802 325.374L163.447 317.611C165.372 316.325 167.785 316.12 169.793 317.011L172.926 318.577C167.863 319.755 164.45 320.55 164.335 320.578L165.542 325.752C165.94 325.66 205.508 316.428 217.311 313.805C218.89 313.454 220.36 313.182 221.741 312.964C225.234 320.779 225.539 329.716 222.528 337.775H110.301C109.434 337.773 108.645 337.413 108.078 336.759V336.759ZM144.027 274.511L145.368 280.333C147.903 290.98 152.352 300.935 158.593 309.924L160.758 313.041C160.673 313.094 160.584 313.135 160.5 313.19L149.66 320.416L137.676 319.085C132.675 318.529 127.662 318.937 122.862 320.23L144.027 274.511ZM267.433 322.043C265.923 326.575 262.547 330.271 258.171 332.186L257.078 332.664C249.327 336.055 241.108 337.775 232.648 337.775H228.143C230.773 329.439 230.438 320.433 227.237 312.333C232.114 312.005 234.777 312.483 234.817 312.491L235.847 307.28C235.555 307.22 228.515 305.872 216.157 308.62C209.37 310.127 193.455 313.809 181.036 316.692L172.058 312.208C170.105 311.341 168.012 311.028 165.968 311.233L162.956 306.896C157.095 298.454 152.915 289.104 150.539 279.123L147.737 266.947C151.117 262.939 166.239 245.009 175.662 233.825C177.264 231.924 178.769 230.073 180.184 228.265C181.637 232.684 190.665 260.864 189.508 275.9L188.85 284.445L194.147 284.853L194.804 276.308C194.989 273.91 194.937 271.234 194.722 268.408L215.033 274.467C220.387 276.035 225.926 276.955 231.499 277.199L262.527 278.562C262.624 280.466 262.757 282.371 262.929 284.271L264.386 297.309C261.308 294.781 257.562 293.086 253.513 292.49L218.446 287.332L217.673 292.588L252.74 297.745C258.2 298.548 262.933 301.975 265.401 306.91L266.512 309.135C268.535 313.175 268.862 317.758 267.433 322.043V322.043ZM190.67 180.004C188.302 178.03 185.804 176.786 183.207 176.257L190.677 170.212L191.42 172.071C193.108 176.289 196.542 179.552 200.841 181.021C202.482 181.582 204.184 181.859 205.878 181.859C208.622 181.859 211.347 181.133 213.769 179.708C220.383 175.816 223.188 167.522 220.292 160.416L217.012 152.362L218.877 148.814L227.596 163.221C231.03 168.894 236.425 173.058 242.786 174.943C245.27 175.68 247.816 176.045 250.353 176.045C253.994 176.045 257.613 175.288 260.999 173.802L264.453 204.452C265.389 212.758 265.56 221.197 264.965 229.535L263.12 255.355C259.043 256.531 247.725 259.322 233.175 258.973C217.418 258.606 197.801 253.706 192.226 252.231C189.39 238.938 185.294 226.773 185.015 225.953C184.995 225.895 184.972 225.836 184.948 225.779L183.916 223.321C191.119 213.355 195.272 204.872 196.539 197.588C197.728 190.749 195.479 184.012 190.67 180.004V180.004ZM168.361 180.591L147.579 153.378C151.862 152.975 155.687 151.208 158.387 148.412C160.349 149.8 162.415 150.926 164.54 151.71C169.816 153.655 176.233 154.937 182.611 155.318C183.324 155.361 184.043 155.398 184.762 155.426L188.611 165.047L172.775 177.866C171.254 178.61 169.783 179.531 168.361 180.591V180.591ZM126.282 41.6015L157.217 62.1941C158.831 63.2911 160.548 64.2566 162.324 65.0641L187.996 76.733L192.274 90.2812C192.532 91.098 192.814 91.9467 193.107 92.8113C188.74 90.8603 182.139 88.1111 177.249 86.9649C170.456 85.3738 161.676 87.5878 156.366 92.2309C148.587 99.0323 143.492 109.428 143.073 119.124C138.841 119.879 134.873 122.312 132.096 125.77L110.069 82.5038C107.646 77.7451 106.059 72.6477 105.354 67.3538L103.995 57.1605L119.554 41.6015H126.282ZM190.456 155.354C193.436 155.102 196.317 154.426 198.888 152.908C202.267 150.911 205.728 148.707 208.703 146.044L215.376 162.42C217.283 167.101 215.435 172.567 211.078 175.13C208.499 176.648 205.394 176.963 202.561 175.994C199.728 175.026 197.466 172.877 196.354 170.099L190.456 155.354ZM215.819 143.218L214.393 145.931L212.68 141.726C213.129 141.151 213.629 140.496 214.17 139.765L215.819 143.218ZM207.028 140.257C204.123 143.442 200.101 146.02 196.186 148.332C192.675 150.405 187.712 150.301 182.927 150.015C181.951 149.957 180.975 149.868 180.004 149.765C177.614 141.134 179.573 113.276 181.756 93.9097C188.27 96.2698 195.271 99.6671 195.362 99.7123C195.674 99.8637 196.013 99.954 196.358 99.9752L204.884 100.513L205.156 105.965C205.193 106.71 205.542 107.405 206.117 107.88C208.981 110.246 216.44 117.889 216.564 124.766C216.61 127.227 210.054 136.941 207.028 140.257V140.257ZM148.349 120.698C148.244 112.04 152.763 102.436 159.86 96.2313C163.016 93.4727 168.122 91.7714 172.635 91.7714C173.825 91.7714 174.974 91.8896 176.035 92.138C176.215 92.1805 176.409 92.2349 176.594 92.2827C175.507 101.847 172.058 134.824 174.444 148.939C171.571 148.377 168.834 147.632 166.38 146.727C156.901 143.231 148.475 131.068 148.349 120.698V120.698ZM143.381 124.49C144.534 131.919 148.693 139.514 154.309 144.993C152.011 147.202 148.523 148.393 144.669 148.137C144.264 148.11 143.863 148.056 143.463 147.987L143.289 147.759L134.859 131.201C136.614 127.863 139.877 125.326 143.381 124.49V124.49ZM262.703 261.208C262.419 265.198 262.313 269.214 262.366 273.237L231.734 271.892C226.588 271.666 221.472 270.817 216.54 269.374L194.096 262.678C193.883 261.141 193.634 259.583 193.358 258.018C201.128 259.988 218.404 263.944 233.052 264.284C233.936 264.305 234.807 264.315 235.668 264.315C247.968 264.315 257.674 262.304 262.719 260.984L262.703 261.208ZM219.181 90.9002C222.641 96.0891 225.82 101.545 228.63 107.115L259.645 168.58C254.853 170.913 249.41 171.365 244.296 169.848C239.206 168.339 234.89 165.008 232.142 160.467L221.731 143.267L217.644 134.71C219.94 131.083 221.922 127.196 221.877 124.669C221.712 115.574 213.251 107.152 210.406 104.575L210.072 97.8781C210.005 96.5288 208.936 95.445 207.586 95.36L199.455 94.846C198.64 92.6161 197.94 90.5787 197.34 88.6795L192.706 74.0038C192.479 73.2852 191.958 72.6969 191.272 72.3848L164.522 60.2258C163.021 59.5431 161.568 58.7277 160.181 57.7847L133.817 40.2348C135.213 39.3344 136.346 38.0302 137.03 36.4351C137.529 35.269 137.747 34.0113 137.7 32.7628L198.352 59.656L219.181 90.9002ZM85.9141 30.5847V30.0521C85.9141 28.8781 86.618 27.8341 87.707 27.3932L109.673 18.5014C110.449 18.188 111.334 18.2597 112.049 18.694L116.894 21.6358C115.612 21.9346 114.37 22.4473 113.22 23.1738L111.846 24.041L110.369 23.7302C109.625 23.5722 108.852 23.7422 108.241 24.1938L98.7756 31.1903C95.7143 33.4548 91.8335 34.2516 88.1267 33.3791C86.8238 33.0709 85.9141 31.9221 85.9141 30.5847ZM105.912 144.539L100.128 130.079C98.9974 127.252 98.0969 124.312 97.4502 121.338L85.6976 67.2781C85.2699 65.3125 84.3442 63.473 83.0201 61.959L78.62 56.9307C77.1365 55.2347 76.6198 52.9277 77.2387 50.7602C77.8059 48.7747 79.296 47.1464 81.2231 46.4053L94.1737 41.4248C94.3357 41.3624 94.4924 41.2841 94.6385 41.1911L116.057 27.6641C117.788 26.5711 119.885 26.34 121.812 27.028L130.275 30.0495C131.119 30.3509 131.781 30.9698 132.139 31.792C132.498 32.6127 132.501 33.5185 132.147 34.342C131.639 35.524 130.479 36.289 129.192 36.289H118.453C117.749 36.289 117.073 36.5692 116.575 37.0673L99.3095 54.3329C98.7252 54.9173 98.4449 55.742 98.5552 56.5615L100.088 68.0564C100.873 73.9466 102.638 79.6191 105.335 84.9143L138.666 150.384C138.739 150.528 138.824 150.663 138.922 150.792L139.233 151.198L123.326 170.353L113.663 158.006C110.454 153.906 107.845 149.375 105.912 144.539V144.539ZM132.975 183.031C132.883 182.683 132.721 182.357 132.499 182.073L126.676 174.632L142.54 155.529L164.313 184.039C160.913 187.293 157.88 191.026 155.271 194.239C154.704 194.937 154.161 195.607 153.643 196.234C148.875 202.007 144.729 207.941 141.169 213.988L132.975 183.031ZM157.739 199.616C158.265 198.979 158.818 198.299 159.395 197.587C164.422 191.395 172.018 182.039 179.43 181.318C182.146 181.057 184.715 181.958 187.269 184.085C190.622 186.88 192.168 191.705 191.305 196.676C189.781 205.442 183.336 216.473 171.601 230.401C160.942 243.049 142.985 264.341 142.985 264.341C142.832 264.522 142.705 264.724 142.605 264.938L115.782 322.874C115.647 322.941 115.506 322.994 115.371 323.062L110.209 325.642C110.309 325.436 110.393 325.22 110.438 324.987L115.715 297.285L128.939 258.936L136.375 236.937C140.72 224.078 147.908 211.52 157.739 199.616V199.616Z" fill="#2F3547" fill-opacity="0.47"/>
</svg>
