<svg width="257" height="339" viewBox="0 0 257 339" fill="none" xmlns="http://www.w3.org/2000/svg">
<path d="M193.935 24.6786C205.302 40.9461 205.302 64.9406 209.226 85.546C213.285 106.152 221.134 123.639 220.998 142.753C220.863 162.003 212.744 183.015 197.453 198.198C182.027 213.517 159.565 222.871 141.027 217.448C122.489 212.026 107.875 191.691 88.7953 177.728C69.8511 163.765 46.3063 155.903 38.8639 141.127C31.4216 126.215 39.9465 104.254 47.7947 82.5637C55.643 61.0093 62.8147 39.726 77.5641 24.543C92.3135 9.36006 114.776 0.277385 137.238 0.00626018C159.836 -0.264864 182.569 8.27556 193.935 24.6786Z" fill="#F3F5E9"/>
<path d="M42.661 311.376L20.2476 307.301C18.2262 306.936 16.1025 307.237 14.271 308.156L5.27959 312.652C0.940607 314.822 -1.08079 319.896 0.576705 324.455L2.6167 330.064C3.7921 333.295 6.62897 335.653 10.0197 336.218L13.1394 336.74C14.2312 336.92 15.3335 336.91 16.4146 336.714L29.8964 334.263L36.29 335.541C36.448 335.573 36.6074 335.59 36.7681 335.593L119.425 336.905L119.423 336.97L156.465 338.164C156.666 338.171 156.868 338.173 157.068 338.173C161.128 338.173 165.123 336.847 168.381 334.404C173.101 330.866 175.918 325.23 175.918 319.327V319.317L192.123 334.477C192.201 334.55 192.284 334.618 192.37 334.68C195.664 337.088 199.718 338.242 203.79 337.929L216.466 336.953C223.631 336.16 232.402 337.323 240.14 338.355L241.553 338.543C242.072 338.612 242.588 338.645 243.102 338.645C248.357 338.645 253.156 335.124 254.632 329.96L256.036 325.046C257.473 320.019 255.516 314.692 251.165 311.792L247.381 309.271C244.925 307.635 241.962 306.96 239.047 307.381C238.984 307.389 238.923 307.401 238.862 307.413L215.431 312.452C215.377 312.464 215.323 312.477 215.268 312.491C212.264 313.34 209.007 312.521 206.769 310.355C200.685 304.462 191.325 294.116 183.065 284.989C178.159 279.566 173.63 274.56 170.083 270.802L161.358 240.891C162.325 241.483 163.445 241.802 164.583 241.802C164.749 241.802 164.915 241.795 165.082 241.781C166.762 241.643 168.33 240.809 169.383 239.491C169.461 239.394 169.53 239.292 169.594 239.184L176.926 226.78C176.985 226.681 177.037 226.58 177.081 226.475C180.074 219.49 180.547 204.379 180.892 193.347C180.983 190.438 181.062 187.925 181.174 186.015L182.757 159.08C183.024 154.565 182.223 149.978 180.439 145.818C176.706 137.106 171.659 127.991 162.519 126.331L154.737 123.971L154.735 123.979C154.714 123.972 154.695 123.959 154.674 123.952L130.434 117.25V99.2212C140.33 89.9695 146.973 73.518 146.973 59.072C146.973 47.0498 142.163 36.3119 134.662 29.2941C134.894 28.3112 135.109 27.2395 135.109 26.1132C135.109 14.4709 125.637 5 113.996 5C102.354 5 92.8827 14.4722 92.8827 26.1132C92.8827 27.3298 93.1231 28.3458 93.3728 29.2542C90.5253 31.9091 88.0656 35.1006 86.1066 38.6945L81.7783 28.448C81.1129 26.8742 80.1938 25.6138 79.0476 24.7041C75.5587 21.923 70.5118 21.9615 67.0467 24.7891C63.1261 27.9872 58.2784 33.5441 57.4483 41.8475C56.6475 49.8588 54.9169 65.771 53.6048 77.7082C52.3922 88.7542 52.6897 99.9237 54.4893 110.902C55.164 115.018 55.8055 119.859 56.4855 124.984C59.2108 145.532 61.3915 159.596 65.9829 164.613L71.5676 186.405C74.9783 199.286 74.8083 212.857 71.0776 225.652C71.063 225.699 71.051 225.748 71.0404 225.795L60.3941 271.767L58.5347 281.064C57.884 284.322 57.7618 287.645 58.1748 290.943L60.1219 306.516L51.9685 310.223C49.0413 311.551 45.8233 311.952 42.661 311.376V311.376ZM170.605 319.326C170.605 323.564 168.582 327.611 165.191 330.153C162.738 331.994 159.69 332.951 156.637 332.852L141.285 332.356L145.002 331.365L143.633 326.232L123.317 331.651L112.777 331.484C103.911 322.792 103.626 308.616 103.795 303.984C105.718 303.292 107.799 303.076 109.872 303.392C109.98 303.41 110.089 303.42 110.197 303.422L129.376 303.991L129.534 298.682L128.883 298.662L129.842 298.211C129.948 298.162 130.05 298.105 130.149 298.041C135.272 294.748 141.439 293.231 147.498 293.79C150.146 294.031 152.647 295.036 154.727 296.699L159.501 300.518C162.766 303.131 165.653 306.18 168.082 309.582C169.731 311.888 170.602 314.609 170.602 317.447V319.326H170.605ZM203.072 314.168C206.643 317.629 211.834 318.951 216.627 317.626L239.881 312.626C241.476 312.417 243.092 312.793 244.435 313.688L248.218 316.209C250.637 317.824 251.728 320.787 250.928 323.585L249.524 328.499C248.608 331.701 245.555 333.714 242.249 333.275L240.839 333.087C232.798 332.016 223.684 330.808 215.967 331.664L203.38 332.632C200.631 332.842 197.876 332.083 195.626 330.481L174.751 310.951C174.173 309.382 173.398 307.883 172.406 306.496C169.692 302.697 166.467 299.29 162.819 296.373L158.045 292.554C155.148 290.237 151.667 288.835 147.979 288.5C145.494 288.276 143 288.359 140.544 288.699L134.715 286.747C131.119 285.123 127.778 282.973 124.783 280.413L130.206 267.585C132.956 261.074 137.666 255.468 143.555 251.576C146.953 254.923 150.098 258.244 152.753 261.049C156.113 264.601 158.767 267.404 160.573 268.849C163.195 270.946 170.931 279.498 179.123 288.551C187.439 297.739 196.862 308.154 203.072 314.168V314.168ZM162.369 263.331C160.851 261.873 158.847 259.757 156.615 257.398C152.383 252.925 147.315 247.573 141.901 242.683H156.347L162.369 263.331ZM161.455 131.536C168.174 132.679 172.204 140.081 175.559 147.909C177.018 151.314 177.674 155.069 177.456 158.765L175.873 185.702C175.756 187.684 175.677 190.23 175.584 193.178C175.273 203.108 174.804 218.071 172.262 224.23L165.149 236.265C164.968 236.434 164.763 236.475 164.647 236.486C164.547 236.492 164.361 236.488 164.176 236.387L157.152 226.467L156.914 225.652C154.347 216.849 153.466 207.679 154.278 198.618C155.066 202.69 156.024 206.536 157.106 208.698L161.858 206.322C159.83 202.269 157.948 188.571 157.319 183.026L162.415 163.773C163.183 160.871 163.263 157.786 162.644 154.848L157.492 130.355L161.132 131.46C161.237 131.492 161.345 131.519 161.455 131.536V131.536ZM89.6647 119.045L83.9033 95.95C84.0241 95.0641 84.145 94.1637 84.2672 93.2433L97.5564 114.877V117.173L89.6647 119.045ZM97.5551 104.728L85.3058 84.7858C85.4359 83.6343 85.5608 82.4868 85.6776 81.3473C88.569 88.3266 92.6649 94.6498 97.5551 99.2212V104.728ZM102.868 103.275C106.342 105.354 110.086 106.552 113.995 106.552C117.903 106.552 121.647 105.356 125.122 103.275V127.567C125.122 133.702 120.129 138.694 113.995 138.694C107.859 138.694 102.868 133.702 102.868 127.567V103.275ZM113.995 101.24C101.352 101.24 89.9197 83.6542 87.035 66.8853C90.0299 52.4141 101.294 41.9538 113.995 41.9538C127.09 41.9538 138.172 51.8363 141.099 66.0327C138.463 83.0526 126.853 101.24 113.995 101.24V101.24ZM113.995 10.3112C122.496 10.3112 129.431 17.0634 129.765 25.485C125.078 22.5113 119.704 20.8193 113.995 20.8193C108.286 20.8193 102.913 22.5127 98.2244 25.485C98.5591 17.0634 105.495 10.3112 113.995 10.3112V10.3112ZM113.995 26.1318C127.158 26.1318 138.196 37.1366 140.977 51.8217C134.94 42.485 125.084 36.6399 113.995 36.6399C102.943 36.6399 92.8442 43.1105 86.788 53.1273C89.1467 37.7941 100.445 26.1318 113.995 26.1318V26.1318ZM59.7301 110.044C58.0088 99.5399 57.7246 88.8565 58.8854 78.2886C60.1976 66.3395 61.9294 50.4099 62.733 42.3774C63.2536 37.1659 65.8341 32.6343 70.4029 28.9062C71.9462 27.6459 74.1867 27.6273 75.738 28.8611C76.1816 29.2144 76.5667 29.7722 76.8815 30.5173L83.1874 45.4401C81.7889 49.6781 81.0146 54.2708 81.0146 59.072C81.0146 60.5223 81.0863 61.9938 81.2178 63.4747C82.2391 74.5273 76.4233 110.128 76.3635 110.486L81.6056 111.347C81.6322 111.186 81.7251 110.613 81.8646 109.737L84.9126 121.959L68.0335 157.781C65.259 150.752 63.2748 135.794 61.7475 124.286C61.0648 119.119 60.418 114.24 59.7301 110.044V110.044ZM71.1931 163.545L89.5797 124.526L97.5551 122.635V127.569C97.5551 136.633 104.93 144.008 113.995 144.008C123.059 144.008 130.434 136.633 130.434 127.569V122.761L151.7 128.64L157.443 155.944C157.89 158.074 157.833 160.311 157.277 162.415L151.286 185.046C148.645 195.021 148.016 205.381 149.372 215.536H78.6173C79.972 205.382 79.3451 195.027 76.7088 185.067L71.1931 163.545ZM76.1988 227.065C76.7965 225.011 77.2972 222.935 77.7222 220.847H150.267C150.697 222.959 151.206 225.058 151.812 227.137L154.796 237.369H135.591C128.799 232.109 121.769 228.282 115.372 228.282C111.555 228.282 106.311 231.957 100.652 237.369H73.8108L76.1988 227.065ZM63.7423 282.107L65.5844 272.889L72.581 242.684H95.4486C82.9762 256.168 69.9712 275.032 66.3096 280.452L70.711 283.427C84.6922 262.736 107.792 233.597 115.372 233.597C122.487 233.597 131.493 240.285 139.619 247.81C133.331 252.241 128.313 258.42 125.314 265.518L120.702 276.43C120.093 275.746 119.502 275.046 118.939 274.322L116.09 270.66L111.896 273.92L114.745 277.583C119.249 283.374 125.112 288.053 131.732 291.198C130.248 291.852 128.805 292.603 127.429 293.475L117.121 298.312L110.51 298.116C106.151 297.49 101.755 298.484 98.1222 300.931C92.4458 304.755 80.8034 311.784 73.184 313.877C71.974 314.209 70.6937 313.774 69.9194 312.769L65.5406 307.078L63.4408 290.283C63.1035 287.555 63.2044 284.803 63.7423 282.107V282.107ZM62.1778 311.416L65.7119 316.01C67.3376 318.121 69.7999 319.302 72.3632 319.302C73.103 319.302 73.852 319.204 74.5918 319.001C81.4648 317.112 91.1867 311.734 98.4502 307.073C98.5883 313.075 99.8089 323.175 105.702 331.372L37.0922 330.282L30.4383 328.952C30.1102 328.885 29.7715 328.883 29.4422 328.943L15.461 331.484C14.9815 331.569 14.4901 331.573 14.008 331.496L10.8909 330.975C9.38616 330.725 8.12842 329.677 7.6078 328.244L5.5678 322.636C4.83202 320.614 5.72983 318.363 7.65428 317.402L16.647 312.905C17.4598 312.497 18.4028 312.361 19.298 312.526L41.7101 316.601C45.9388 317.368 50.2486 316.837 54.1639 315.056L62.1778 311.416Z" fill="#2F3547" fill-opacity="0.47"/>
</svg>
