<svg width="50" height="50" viewBox="0 0 243 343" fill="none" xmlns="http://www.w3.org/2000/svg">
<path d="M157.935 82.6786C169.302 98.9461 169.302 122.941 173.226 143.546C177.285 164.152 185.134 181.639 184.998 200.753C184.863 220.003 176.744 241.015 161.453 256.198C146.027 271.517 123.565 280.871 105.027 275.448C86.4888 270.026 71.8747 249.691 52.7953 235.728C33.8511 221.765 10.3063 213.903 2.86394 199.127C-4.5784 184.215 3.94646 162.254 11.7947 140.564C19.643 119.009 26.8147 97.726 41.5641 82.543C56.3135 67.3601 78.7758 58.2774 101.238 58.0063C123.836 57.7351 146.569 66.2756 157.935 82.6786Z" fill="#F3F5E9"/>
<path d="M240.149 72.1463C239.967 70.1773 239.075 60.8946 238.016 55.6651C237.237 51.8173 234.73 47.8668 231.547 45.1062L225.469 30.1983C225.273 29.7178 224.948 29.3027 224.527 28.9985L210.472 18.8007L210.052 13.3296C209.978 12.3743 209.419 11.5259 208.572 11.0829L205.631 9.54295C204.655 9.03195 203.625 8.59315 202.55 8.22795C202.737 7.30454 202.629 6.33391 202.182 5.47576C201.542 4.24546 200.336 3.41925 198.957 3.26095L184.006 1.56825C182.894 1.44467 181.79 1.76404 180.916 2.47362C180.041 3.18319 179.501 4.18992 179.394 5.3119V5.31329L179.237 6.94628H154.324L141.598 2.257C140.982 2.02927 140.304 2.02788 139.689 2.25283L131.819 5.11472C131.206 2.99434 129.687 1.23499 127.578 0.4546C124.594 -0.650721 121.32 0.304632 119.425 2.83049L91.6271 39.9018C78.1524 55.0625 46.8766 90.3869 45.4771 93.1849C44.7162 94.7096 44.8606 96.6911 45.945 99.6169C48.1442 105.548 52.1693 110.769 57.5356 114.682L101.552 148.314C102.168 154.734 106.679 200.116 112.027 213.491C117.273 226.607 114.642 259.114 114.614 259.459L114.314 263.364C113.568 273.062 114.446 282.749 116.92 292.154L117.481 294.285C119.258 301.041 120.158 308.009 120.154 314.993L120.143 333.138C120.141 335.706 121.18 338.215 123.044 340.078C124.926 341.961 127.421 343 130.071 343H130.078C138.766 342.989 164.116 342.988 171.964 342.988C174.788 342.988 177.085 340.685 177.085 337.848C177.079 335.528 175.51 333.491 173.269 332.894L155.038 328.032C154.652 327.93 154.279 327.788 153.923 327.614L144.34 322.929C142.142 321.856 140.797 319.581 140.912 317.137L143.763 256.893V190.746C143.763 187.827 149.405 179.571 156.608 171.946C156.965 171.568 157.273 171.153 157.591 170.746C164.883 168.827 179.216 166.031 187.326 164.495C192.598 163.496 197.416 161.538 201.645 158.674C203.679 157.296 205.718 155.119 207.705 152.206C214.897 141.664 217.327 127.973 214.371 114.646C214.038 113.145 213.663 111.737 213.252 110.413L213.619 110.519L217.159 98.27C218.795 98.531 220.532 98.7101 222.287 98.7101C225.669 98.7101 229.097 98.0714 231.888 96.1996C235.141 94.0209 236.325 88.1457 236.746 84.7534L241.162 83.1634C242.605 82.6441 243.355 81.0528 242.835 79.61L240.149 72.1463ZM212.468 45.4992C216.762 45.0021 221.438 45.7311 225.384 47.5932C228.611 49.1165 231.679 52.9893 232.5 56.5094C228.136 56.9982 219.8 58.4159 210.935 62.4706L212.468 45.4992ZM220.626 33.0282L223.921 41.1099C220.089 39.931 216.016 39.5324 212.1 39.9559L211.032 26.0672L220.626 33.0282ZM184.788 7.24622L196.287 8.54872L194.337 12.148L187.688 13.6254L184.485 10.4205L184.788 7.24622ZM140.633 7.82109L152.869 12.3299C153.176 12.4423 153.501 12.5007 153.829 12.5007H179.194C179.401 13.0103 179.695 13.4852 180.095 13.8851L184.303 18.0939C185.096 18.884 186.149 19.3117 187.237 19.3117C187.54 19.3117 187.845 19.2798 188.149 19.2117L196.156 17.4329C197.335 17.1719 198.342 16.4137 198.919 15.3487L200.044 13.2713C201.11 13.5824 202.121 13.9726 203.054 14.4614L204.633 15.289L206.926 45.1146L202.744 91.4228C202.428 94.9276 200.252 98.0381 197.067 99.5378C194.485 100.754 191.502 100.8 188.812 99.6405C184.312 97.6979 181.91 92.835 183.098 88.0791L184.256 83.4509L196.703 49.2081C196.796 48.9499 196.852 48.6805 196.866 48.4069L198.254 22.3708L192.709 22.075L192.545 25.1369L153.65 17.794C153.404 17.7482 153.154 17.7343 152.904 17.7551L137.066 19.0687L130.527 17.3455C130.99 16.2637 131.3 15.1293 131.431 13.9531L131.753 11.0524L140.633 7.82109ZM166.983 132.853C170.79 142.29 171.626 152.452 169.496 162.355C166.615 162.953 163.807 163.558 161.285 164.134C165.14 156.106 168.777 146.896 168.031 141.922C167.694 139.679 166.942 136.995 165.8 133.946C165.297 132.607 164.678 131.317 163.984 130.066L165.217 128.472L166.983 132.853ZM166.001 118.373L160.678 125.257C158.578 122.769 156.074 120.594 153.247 118.859L153.089 118.761C147.504 115.336 140.84 113.776 134.312 114.368C128.566 114.891 122.778 113.399 118.004 110.167L87.5465 89.5524C88.4462 88.6123 89.3639 87.6236 90.315 86.5363C95.5938 80.5001 99.8535 70.4259 103.612 61.5389C104.956 58.3604 106.225 55.3582 107.369 52.9865C108.578 50.4773 111.248 49.0485 114.022 49.4206C117.596 49.9066 121.292 48.6235 123.916 45.9949L124.193 45.72C127.031 42.8789 128.255 38.8326 127.468 34.8917L126.278 28.943C125.999 27.5461 126.196 26.0756 126.832 24.8022L128.019 22.4263L136.111 24.5592C136.416 24.6411 136.734 24.6703 137.048 24.6425L152.987 23.3206L192.245 30.7315L191.34 47.6987L178.986 81.6888C178.954 81.779 178.926 81.8707 178.902 81.9637L177.708 86.7321C176.986 89.619 177.124 92.5253 177.967 95.1859L172.725 107.072C170.952 111.094 168.689 114.896 166.001 118.373ZM95.8548 43.5066C95.9062 43.4483 95.9548 43.3886 96.0006 43.3275L123.869 6.16311C124.209 5.71043 124.892 5.38272 125.648 5.66183C126.259 5.88817 126.654 6.64357 126.568 7.41979L125.912 13.3394C125.827 14.0962 125.612 14.8238 125.271 15.507L121.866 22.318C120.68 24.6897 120.313 27.4294 120.833 30.033L122.023 35.9818C122.446 38.0966 121.789 40.2698 120.268 41.7917L119.991 42.068C118.582 43.4788 116.629 44.1676 114.769 43.919C109.606 43.2219 104.623 45.8936 102.367 50.5759C101.164 53.0712 99.8688 56.1345 98.497 59.3768C95.0801 67.4584 90.8259 77.5174 86.1344 82.8802C85.3111 83.8202 84.5183 84.677 83.7408 85.4963C77.6581 81.9706 70.852 80.078 63.8016 79.903C73.4428 68.8207 86.3372 54.2154 95.8548 43.5066V43.5066ZM141.901 327.917L151.481 332.601C152.154 332.931 152.868 333.199 153.604 333.395L168.738 337.43C158.674 337.43 137.791 337.433 130.071 337.443C130.07 337.443 130.07 337.443 130.069 337.443C128.905 337.443 127.805 336.985 126.918 336.096C126.139 335.318 125.695 334.241 125.695 333.14L125.706 314.993C125.71 307.531 124.751 300.088 122.85 292.869L122.289 290.737C119.973 281.932 119.153 272.865 119.85 263.786L120.13 260.143H138.051L135.364 316.872C135.145 321.532 137.71 325.869 141.901 327.917V327.917ZM152.571 168.132C149.201 171.697 138.209 183.868 138.209 190.746L138.212 254.59H120.497C121.04 244.453 121.6 222.473 117.184 211.427C112.934 200.801 109.042 166.703 107.602 152.936L115.695 159.121L119.068 154.708L60.8567 110.231C56.3249 106.926 52.969 102.588 51.1502 97.6868C50.6948 96.4578 50.5851 95.8038 50.5601 95.5178C51.4376 94.293 54.5713 90.5758 58.9601 85.4866L62.0993 85.4213C68.2154 85.2977 74.2051 86.7266 79.5949 89.5496C74.1148 94.4791 70.5632 96.0024 70.516 96.0218L71.5643 98.5935L72.5959 101.172C72.8291 101.078 77.0944 99.3184 83.495 93.5168L114.89 114.766C120.723 118.716 127.8 120.529 134.814 119.9C140.157 119.417 145.612 120.692 150.181 123.495L150.34 123.591C155.067 126.495 158.71 130.863 160.597 135.894C161.605 138.581 162.258 140.886 162.536 142.745C163.017 145.957 159.809 154.927 154.359 165.602C153.893 166.518 153.291 167.369 152.571 168.132V168.132ZM203.118 149.074C201.525 151.409 199.981 153.09 198.529 154.075C194.932 156.512 190.815 158.181 186.292 159.038C183.297 159.604 179.452 160.344 175.419 161.15C177.168 150.913 176.055 140.496 172.131 130.774L169.147 123.381L170.393 121.771C173.356 117.938 175.851 113.746 177.807 109.309L181.435 101.082C182.869 102.609 184.627 103.881 186.676 104.764C188.639 105.613 190.733 106.035 192.827 106.035C195.086 106.035 197.342 105.543 199.43 104.559C200.531 104.041 201.539 103.381 202.471 102.637C203.182 103.324 203.85 104.035 204.441 104.78C206.331 107.163 207.847 110.885 208.948 115.845C211.573 127.683 209.449 139.794 203.118 149.074V149.074ZM209.993 103.056C209.607 102.444 209.212 101.857 208.792 101.33C207.99 100.318 207.09 99.3572 206.121 98.4394C206.693 97.4799 207.167 96.4662 207.523 95.3997C208.254 95.801 209.013 96.1662 209.793 96.4315C210.338 96.6161 211.004 96.8258 211.733 97.0397L209.993 103.056ZM233.216 80.121C232.183 80.4932 231.467 81.4374 231.388 82.5316C231.099 86.4864 229.84 90.8868 228.797 91.5867C223.796 94.9346 214.357 92.1157 211.582 91.1715C210.653 90.8549 209.564 90.187 208.494 89.5079L210.35 68.9581C219.712 64.0356 229.125 62.4734 233.419 62.0027C234.127 67.2029 234.644 72.9212 234.651 72.9989C234.673 73.235 234.723 73.4683 234.803 73.6905L236.669 78.8755L233.216 80.121Z" fill="#2F3547" fill-opacity="0.47"/>
</svg>
