<svg width="512" height="512" viewBox="0 0 512 512" fill="none" xmlns="http://www.w3.org/2000/svg">
<g clip-path="url(#clip0_24_36)">
<path d="M502.973 237.826L431.22 183.42L443.485 94.212C444.466 87.08 442.109 80.07 437.018 74.98C431.929 69.889 424.918 67.532 417.786 68.513L402.222 70.653C398.118 71.217 395.249 75.001 395.814 79.105C396.378 83.209 400.168 86.076 404.265 85.514L419.829 83.374C422.269 83.039 424.671 83.845 426.412 85.587C428.154 87.329 428.961 89.729 428.626 92.17L419.071 161.671C410.933 147.657 400.929 134.603 389.164 122.839C377.398 111.073 364.344 101.068 350.328 92.93L369.517 90.292C373.621 89.728 376.49 85.944 375.925 81.84C375.361 77.736 371.569 74.871 367.474 75.431L328.578 80.779L274.171 9.026C269.82 3.29 263.196 0 255.998 0C248.799 0 242.175 3.29 237.826 9.027L183.42 80.779L94.212 68.515C87.081 67.535 80.07 69.891 74.98 74.982C69.89 80.073 67.532 87.083 68.513 94.215L80.779 183.423L9.027 237.829C3.29 242.179 0 248.803 0 256.002C0 263.201 3.29 269.825 9.027 274.174L80.779 328.58L68.514 417.788C67.534 424.92 69.89 431.93 74.981 437.02C80.071 442.111 87.083 444.466 94.214 443.487L183.422 431.221L237.829 502.972C242.179 508.709 248.802 511.999 256.001 511.999C263.2 511.999 269.824 508.709 274.174 502.972L328.579 431.22L417.787 443.485C424.923 444.464 431.93 442.109 437.019 437.018C442.11 431.928 444.467 424.917 443.486 417.785L431.22 328.577L502.972 274.17C508.708 269.82 511.998 263.197 511.998 255.998C512 248.798 508.71 242.175 502.973 237.826V237.826ZM429.321 256C429.321 302.295 411.293 345.819 378.555 378.556C345.819 411.293 302.294 429.322 255.999 429.322C209.704 429.322 166.18 411.293 133.443 378.556C100.708 345.819 82.679 302.295 82.679 256C82.679 209.705 100.708 166.181 133.445 133.444C166.181 100.708 209.705 82.679 256 82.679C302.295 82.679 345.819 100.708 378.556 133.445C411.293 166.181 429.321 209.705 429.321 256V256ZM249.778 18.089C251.266 16.126 253.533 15 255.997 15C258.461 15 260.729 16.126 262.217 18.09L304.604 73.99C288.94 69.835 272.637 67.679 255.999 67.679C239.36 67.679 223.055 69.835 207.39 73.992L249.778 18.089ZM85.586 85.588C87.329 83.845 89.729 83.036 92.169 83.375L161.671 92.93C147.657 101.068 134.603 111.072 122.838 122.837C111.072 134.603 101.067 147.657 92.929 161.672L83.373 92.171C83.037 89.73 83.844 87.331 85.586 85.588V85.588ZM15 256.002C15 253.538 16.126 251.271 18.09 249.782L73.991 207.394C69.835 223.058 67.679 239.362 67.679 256C67.679 272.639 69.835 288.944 73.992 304.609L18.09 262.222C16.126 260.733 15 258.466 15 256.002V256.002ZM92.172 428.627C89.728 428.961 87.331 428.156 85.589 426.414C83.847 424.671 83.04 422.272 83.376 419.831L92.931 350.329C101.069 364.343 111.073 377.397 122.838 389.162C134.604 400.928 147.658 410.933 161.673 419.071L92.172 428.627ZM262.222 493.91C260.734 495.874 258.466 497 256.002 497C253.538 497 251.271 495.874 249.782 493.91L207.394 438.009C223.058 442.165 239.362 444.321 256 444.321C272.639 444.321 288.944 442.165 304.608 438.009L262.222 493.91ZM426.414 426.412C424.672 428.154 422.272 428.963 419.831 428.625L350.33 419.07C364.345 410.932 377.398 400.928 389.163 389.162C400.929 377.396 410.934 364.342 419.072 350.326L428.628 419.828C428.963 422.27 428.156 424.669 426.414 426.412V426.412ZM493.911 262.218L438.009 304.607C442.165 288.943 444.321 272.638 444.321 256C444.321 239.361 442.165 223.056 438.009 207.391L493.91 249.778C495.874 251.267 497 253.534 497 255.998C497 258.462 495.874 260.729 493.911 262.218Z" fill="#B5B79D"/>
<path d="M256 128.677C253.111 128.623 250.222 128.725 247.341 128.974C216.593 131.026 187.966 143.975 165.971 165.971C141.923 190.019 128.679 221.992 128.679 255.999C128.679 290.006 141.923 321.98 165.972 346.028C190.02 370.076 221.993 383.32 256 383.32C290.007 383.32 321.98 370.076 346.029 346.027C370.077 321.979 383.321 290.006 383.321 255.999C383.321 221.992 370.077 190.018 346.028 165.97C324.094 144.035 295.565 131.095 264.914 128.989C261.951 128.726 258.975 128.62 256 128.677V128.677ZM219.939 179.591C219.164 161.096 237.99 141.821 257.925 143.702C275.027 143.849 293.039 161.446 292.062 179.902C292.911 197.561 275.157 216.627 256.155 215.808C238.252 216.824 218.948 198.825 219.939 179.591V179.591ZM368.321 256C368.321 286.001 356.637 314.207 335.422 335.422C314.207 356.637 286.001 368.321 256 368.321C225.999 368.321 197.793 356.637 176.578 335.422C155.363 314.207 143.679 286.001 143.679 256C143.679 227.531 154.206 200.683 173.409 179.887C166.898 192.721 163.509 206.818 163.774 220.904C163.386 241.536 170.747 262.14 184.508 278.938C198.045 295.46 216.566 306.936 236.66 311.249C240.712 312.118 244.698 309.54 245.567 305.49C246.436 301.44 243.858 297.452 239.808 296.583C204.862 289.081 178.052 255.907 178.773 221.059C178.775 220.956 178.775 220.852 178.773 220.749C178.366 201.076 186.653 181.272 201.509 166.416C203.873 164.053 206.374 161.876 208.968 159.853C206.236 166.176 204.821 172.958 204.938 179.747C203.807 205.962 229.442 232.318 256.786 230.815C282.427 231.488 308.144 206.493 307.06 179.747C307.178 172.957 305.763 166.173 303.029 159.849C305.623 161.872 308.124 164.05 310.487 166.414C325.344 181.27 333.632 201.075 333.225 220.749C333.222 220.853 333.222 220.956 333.225 221.06C333.952 256.151 306.937 289.369 271.723 296.683C267.667 297.525 265.063 301.496 265.905 305.552C266.641 309.093 269.761 311.528 273.241 311.528C273.747 311.528 274.26 311.477 274.774 311.37C294.993 307.17 313.651 295.731 327.31 279.159C341.191 262.319 348.615 241.636 348.224 220.905C348.488 206.819 345.099 192.722 338.589 179.888C357.793 200.682 368.321 227.53 368.321 256V256Z" fill="#B5B79D"/>
<path d="M255.998 413.31C260.14 413.31 263.498 409.952 263.498 405.81C263.498 401.668 260.14 398.31 255.998 398.31C251.856 398.31 248.498 401.668 248.498 405.81C248.498 409.952 251.856 413.31 255.998 413.31Z" fill="#B5B79D"/>
<path d="M126.259 338.407C130.401 338.407 133.759 335.049 133.759 330.907C133.759 326.765 130.401 323.407 126.259 323.407C122.117 323.407 118.759 326.765 118.759 330.907C118.759 335.049 122.117 338.407 126.259 338.407Z" fill="#B5B79D"/>
<path d="M126.255 188.597C130.397 188.597 133.755 185.239 133.755 181.097C133.755 176.955 130.397 173.597 126.255 173.597C122.113 173.597 118.755 176.955 118.755 181.097C118.755 185.239 122.113 188.597 126.255 188.597Z" fill="#B5B79D"/>
<path d="M255.991 113.687C260.133 113.687 263.491 110.329 263.491 106.187C263.491 102.045 260.133 98.687 255.991 98.687C251.849 98.687 248.491 102.045 248.491 106.187C248.491 110.329 251.849 113.687 255.991 113.687Z" fill="#B5B79D"/>
<path d="M385.734 188.584C389.876 188.584 393.234 185.226 393.234 181.084C393.234 176.942 389.876 173.584 385.734 173.584C381.592 173.584 378.234 176.942 378.234 181.084C378.234 185.226 381.592 188.584 385.734 188.584Z" fill="#B5B79D"/>
<path d="M385.745 338.393C389.887 338.393 393.245 335.035 393.245 330.893C393.245 326.751 389.887 323.393 385.745 323.393C381.603 323.393 378.245 326.751 378.245 330.893C378.245 335.035 381.603 338.393 385.745 338.393Z" fill="#B5B79D"/>
</g>
<defs>
<clipPath id="clip0_24_36">
<rect width="512" height="512" fill="white"/>
</clipPath>
</defs>
</svg>
