<svg width="353" height="355" viewBox="0 0 353 355" fill="none" xmlns="http://www.w3.org/2000/svg">
<path d="M311.098 86.7092C326.609 102.299 331.356 129.353 324.956 153.051C318.419 176.676 300.811 196.803 281.813 214.933C262.679 232.991 242.093 248.838 222.381 247.819C202.743 246.658 183.918 228.416 163.712 215.764C143.371 203.04 121.65 195.906 108.645 180.196C95.7772 164.558 91.9116 140.134 95.9901 117.197C100.143 94.1182 112.253 72.1714 129.301 56.081C146.275 40.1316 168.336 29.7563 187.936 31.9805C207.673 34.2767 225.097 48.8902 247.091 58.1542C269.084 67.4182 295.511 71.2607 311.098 86.7092Z" fill="#FCEEDD"/>
<path d="M290.626 53.4622C292.347 51.7591 293.12 49.2283 292.507 46.7718L289.286 33.8917C289.126 33.245 288.872 32.6249 288.538 32.0525L280.947 19.0391C279.117 15.9008 275.247 14.6789 271.95 16.2039L268.961 17.5843L268.355 12.9183C268.147 11.3358 267.411 9.84309 266.281 8.70954L264.704 7.13548C262.512 4.93993 259.162 4.37456 256.37 5.73257L253.896 6.93346C251.865 6.49435 249.764 6.96713 248.094 8.3041C246.687 9.42783 245.779 11.0285 245.535 12.8144L241.75 40.5709L179.916 72.1756L148.582 88.3483C150.065 81.8879 149.734 74.7106 147.447 69.1145C142.346 56.6356 131.667 46.1335 119.953 41.9093C121.911 31.6442 116.668 21.2543 107.169 17.437C95.998 12.9435 83.2526 18.384 78.7619 29.5595C76.0066 36.4169 76.2746 43.6629 79.3357 49.175C76.6814 51.1376 74.3203 53.3598 72.4039 55.8191C67.4166 62.2164 60.4498 72.0339 57.5444 83.3764C54.9841 93.3707 55.7725 104.562 59.5253 113.462C53.5657 114.961 47.3901 116.78 41.937 120.135C36.209 123.658 28.3513 130.447 25.0531 137.985C24.6995 138.794 24.4161 139.62 24.1748 140.452C21.4237 144.093 2.94186 169.373 0.241271 195.028C-2.04547 216.749 12.4999 264.358 19.4905 287.238C21.153 292.677 22.4647 296.973 22.727 298.285C23.8396 303.849 30.4837 320.239 33.6725 327.937L33.5813 327.918C30.5146 327.302 27.3566 328.415 25.3491 330.822L17.786 339.901C16.1867 341.817 15.5091 344.328 15.9272 346.79C16.3438 349.251 17.8113 351.399 19.9507 352.682C21.1979 353.43 22.6246 353.85 24.0752 353.895L50.9956 354.736C62.2932 355.084 73.4028 353.286 84.0102 349.38L94.8378 345.39L112.517 343.851C121.577 343.065 130.559 344.076 139.212 346.859L153.558 351.47C160.853 353.815 168.416 355.001 176.066 355C176.627 355 177.191 354.994 177.754 354.98L223.495 353.941C226.439 353.875 229.364 353.42 232.187 352.59L241.38 349.885C249.044 347.632 254.929 341.7 257.123 334.02C258.955 327.614 257.938 320.724 254.336 315.121L252.487 312.241C248.41 305.898 242.231 301.069 235.092 298.642L185.237 281.691C178.34 279.347 171.195 277.616 164.001 276.544L147.391 274.069C162.427 257.86 183.064 215.067 186.182 208.509C190.791 205.714 215.002 190.84 227.972 179.168C241.704 166.81 279.258 110.168 282.918 104.626L301.361 89.4384C305.24 86.2439 307.464 81.5288 307.464 76.5036C307.464 71.8922 305.535 67.438 302.17 64.2828L290.626 53.4622ZM260.736 11.1029L262.311 12.677C262.572 12.9379 262.742 13.283 262.789 13.645L263.623 20.0478L260.607 21.4395L259.366 12.7667C259.267 12.0695 259.061 11.4115 258.777 10.7999L258.822 10.7774C259.462 10.4646 260.232 10.5979 260.736 11.1029V11.1029ZM65.0499 112.095C62.2806 106.022 61.1667 98.5643 61.8625 91.2734C102.415 83.072 126.278 90.4905 135.676 94.7273L65.0499 112.095ZM83.9695 31.6513C87.3056 23.3475 96.7724 19.3057 105.078 22.6432C111.953 25.4069 115.775 32.9195 114.515 40.4587C104.727 38.7037 93.2904 40.9876 84.0817 46.1208C81.997 42.1141 81.903 36.7971 83.9695 31.6513V31.6513ZM76.8301 59.2675C85.1718 48.5633 103.83 42.7132 116.765 46.7353C127.535 50.0911 137.539 59.708 142.252 71.2371C144.627 77.0479 144.332 85.2773 141.681 91.4347C134.882 87.5571 109.996 76.2833 62.8445 85.3531C62.8908 85.1581 62.9301 84.9603 62.9806 84.7667C64.9938 76.909 69.3947 68.8058 76.8301 59.2675V59.2675ZM30.1947 140.232C33.1661 133.441 40.8217 127.407 44.8761 124.912C50.0711 121.716 56.321 120.02 62.2764 118.556L138.38 99.8409C138.593 99.7876 138.801 99.7104 138.997 99.6094L182.477 77.1685L245.608 44.9017C246.426 44.4836 246.987 43.6924 247.111 42.7819L251.093 13.5734C251.141 13.2227 251.319 12.9084 251.597 12.6868C251.89 12.4525 252.188 12.3823 252.437 12.3823C252.665 12.3823 252.853 12.4399 252.958 12.482C253.181 12.5703 253.708 12.8523 253.811 13.5636L255.583 25.9653C255.708 26.8421 256.241 27.6095 257.018 28.0332C257.799 28.4582 258.729 28.4849 259.535 28.1173L274.302 21.302C274.961 21.0004 275.733 21.2403 276.099 21.8688L283.693 34.8864C283.759 34.9986 283.808 35.1192 283.839 35.2497L287.061 48.134C287.222 48.7849 286.901 49.4626 286.292 49.7459L268.839 57.8926L253.896 59.2506C253.414 59.2941 252.952 59.4611 252.555 59.7374L193.807 100.301L128.16 132.426L81.5102 150.867C72.6761 154.361 63.4548 156.994 54.1044 158.694L45.9648 160.174C41.5793 160.967 36.9974 159.658 33.7006 156.661C29.1257 152.502 27.7158 145.898 30.1947 140.232V140.232ZM260.771 71.0982C261.775 74.8636 261.166 78.9152 259.101 82.2204L249.18 98.0957L171.004 167.894L149.599 183.949C145.143 187.291 140.934 191.02 137.088 195.032C115.058 218.009 98.9834 234.496 92.6745 240.61C90.5309 233.043 91.7107 224.993 95.991 218.333C99.4239 212.994 101.238 206.818 101.238 200.471V199.958C101.238 196.597 100.727 193.265 99.7185 190.055L88.4392 154.166L130.329 137.604C130.397 137.576 130.465 137.547 130.531 137.516L196.467 105.249C196.593 105.187 196.714 105.116 196.829 105.037L255.144 64.7725L258.993 64.4217L260.771 71.0982ZM5.82203 195.613C7.66124 178.143 17.7103 160.288 23.9378 150.671C24.8524 154.487 26.8782 158.042 29.9268 160.814C33.6262 164.177 38.4901 166.015 43.4325 166.015C44.6124 166.015 45.7964 165.911 46.9693 165.696L55.1089 164.216C64.6908 162.474 74.1393 159.784 83.2021 156.229L94.3622 191.737C95.1998 194.4 95.6234 197.166 95.6234 199.956V200.47C95.6234 205.739 94.1181 210.865 91.2688 215.297C85.834 223.751 84.5405 234.07 87.7181 243.605L88.658 246.425C88.919 247.208 89.2122 247.977 89.5292 248.734L23.8087 282.156C17.0228 259.877 3.76677 215.14 5.82203 195.613V195.613ZM177.625 349.37C170.045 349.534 162.51 348.451 155.275 346.125L140.929 341.514C131.562 338.503 121.838 337.403 112.03 338.261L93.9764 339.83C93.7281 339.851 93.484 339.906 93.2497 339.992L82.0686 344.112C72.1416 347.769 61.7475 349.467 51.1696 349.126L24.2478 348.284C23.7512 348.269 23.2644 348.126 22.8365 347.869C22.0929 347.423 21.6033 346.706 21.4588 345.85C21.3129 344.996 21.5402 344.158 22.0957 343.491L29.6588 334.414C30.3462 333.587 31.4237 333.204 32.4786 333.418L36.15 334.151C36.693 334.261 37.2527 334.208 37.762 333.998L65.9197 322.479C68.2261 321.534 70.1579 319.927 71.5061 317.831L79.3918 305.564C80.7302 303.482 83.1811 302.336 85.6376 302.644C87.9734 302.935 89.9655 304.474 90.8395 306.66L91.7248 308.871C93.7912 314.038 99.0844 317.11 104.598 316.351L170.073 307.284C177.856 306.206 185.668 306.081 193.413 306.871C195.397 310.775 201.118 322.598 202.025 330.775C202.817 337.892 202.725 345.094 202.598 348.801L177.625 349.37ZM183.43 287.004L233.285 303.955C239.228 305.975 244.371 309.998 247.764 315.275L249.613 318.155C252.343 322.402 253.115 327.622 251.728 332.478C250.064 338.297 245.605 342.793 239.796 344.499L230.603 347.204C228.251 347.896 225.819 348.276 223.368 348.331L208.223 348.674C208.353 344.717 208.417 337.474 207.603 330.157C206.793 322.848 202.791 313.435 200.12 307.795C202.016 308.122 203.908 308.484 205.791 308.923L229.665 314.494L230.939 309.03L207.065 303.459C194.648 300.559 181.944 299.978 169.304 301.726L103.83 310.793C100.879 311.205 98.0434 309.554 96.9366 306.788L96.0513 304.578C94.4183 300.496 90.695 297.621 86.3334 297.077C81.7501 296.506 77.1724 298.642 74.6724 302.531L66.7867 314.798C66.0642 315.922 65.0289 316.782 63.7943 317.287L39.4595 327.244C35.9031 318.711 29.2225 302.148 28.2292 297.182C27.9501 295.782 26.9666 292.506 25.4711 287.607L92.1358 253.706C92.5258 254.319 92.9257 254.927 93.3563 255.514L98.5317 262.572C103.708 269.632 111.645 274.42 120.303 275.709L163.173 282.095C170.036 283.115 176.85 284.768 183.43 287.004V287.004ZM182.563 204.137C182.086 204.423 181.706 204.846 181.469 205.348C181.202 205.912 155.26 260.822 140.41 273.028L121.131 270.156C113.944 269.086 107.357 265.112 103.059 259.253L97.8835 252.195C96.5578 250.385 95.4719 248.425 94.626 246.356C98.9806 242.543 109.979 231.415 141.139 198.917C144.776 195.123 148.756 191.598 152.967 188.439L174.467 172.312C174.53 172.265 174.593 172.215 174.652 172.162L189.483 158.92C193.142 164.492 201.903 176.931 211.902 184.774C198.35 194.637 182.771 204.012 182.563 204.137V204.137ZM297.792 85.1048L279.023 100.562C278.806 100.74 278.618 100.949 278.464 101.183C278.059 101.798 237.819 162.754 224.217 174.996C221.986 177.004 219.377 179.128 216.578 181.278C206.421 173.833 197.017 160.195 193.722 155.132L253.213 102.014C253.412 101.837 253.584 101.634 253.724 101.407L263.857 85.1918C266.744 80.5748 267.594 74.9099 266.192 69.649L264.658 63.9041L269.835 63.4341C270.158 63.4046 270.475 63.3191 270.768 63.1816L285.469 56.32L298.327 68.3737C300.564 70.4711 301.848 73.434 301.848 76.5036C301.851 79.8467 300.371 82.9822 297.792 85.1048V85.1048Z" fill="#2F3547" fill-opacity="0.47"/>
</svg>
