<svg width="279" height="350" viewBox="0 0 279 350" fill="none" xmlns="http://www.w3.org/2000/svg">
<path d="M151.614 39.3448C172.468 44.4993 198.74 52.3667 209.573 69.1865C220.407 86.0064 216.074 111.779 207.407 135.517C198.875 159.119 185.875 180.686 167.187 193.165C148.499 205.645 124.124 209.171 100.696 207.679C77.2684 206.187 54.9241 199.812 36.507 187.197C17.9545 174.718 3.32918 155.863 0.485368 136.059C-2.22303 116.119 6.85009 94.9589 16.6003 76.9183C26.3505 58.8776 36.7779 43.9567 50.7261 36.4963C64.6743 29.1715 82.1435 29.4428 98.6647 30.6636C115.186 32.02 130.759 34.326 151.614 39.3448Z" fill="#DCEAFD"/>
<path d="M265.184 147.716C259.884 146.036 251.054 145.129 248.735 144.91L241.663 141.287C240.398 140.638 238.843 141.038 238.053 142.217L235.321 146.285C232.029 146.973 223.216 149.329 219.445 155.344C217.796 157.977 217.212 161.011 217.183 163.938L215.633 164.308L218.194 151.762C218.556 150.933 218.835 150.056 218.997 149.134C220.355 141.421 219.262 133.616 215.836 126.564L207.695 109.798L201.741 84.7611L201.455 73.7175C201.332 68.9608 200.635 64.2236 199.382 59.6353L192.551 34.6222L196.325 26.7032C196.471 26.3958 196.56 26.0647 196.587 25.7252L196.885 21.8798C197.063 19.5773 196.086 17.3402 194.272 15.9002L189.911 12.4333L189.5 8.13433C189.143 4.40163 186.45 1.25186 182.799 0.294686C178.8 -0.744571 174.605 1.02787 172.595 4.62006L172.594 4.62145L171.261 7.01021C170.316 8.69779 169.948 10.6024 170.196 12.5167L172.277 28.6593C172.333 29.1017 172.497 29.5233 172.752 29.8906L176.495 35.2622L177.41 69.3629C177.413 69.4756 177.423 69.5897 177.439 69.7023L184 113.013C184.013 113.095 184.028 113.174 184.048 113.254L189.147 134.163C189.517 135.678 189.949 137.172 190.425 138.651L149.478 145.219L122.385 146.169C113.734 146.472 105.149 148.815 97.5565 152.945C88.0465 158.117 80.3072 165.868 75.1757 175.36L71.756 181.686C67.6435 189.292 64.6956 197.441 62.9935 205.904L56.2075 239.616L47.4884 253.3C41.5058 262.688 37.6424 273.487 36.3169 284.525L32.2184 318.689L27.1946 331.396C26.9931 331.906 26.9469 332.463 27.0616 332.996L29.0619 342.267C29.7898 345.644 32.5837 348.265 36.0159 348.788L43.2989 349.904C43.7244 349.968 44.1499 350 44.5769 350C45.218 350 45.8576 349.926 46.4889 349.78L51.2593 348.674C54.0099 348.036 56.2439 346.086 57.2349 343.457C58.2245 340.826 57.8284 337.898 56.1739 335.62L49.7294 326.751L68.4694 260.55L79.9978 246.952C82.0639 244.516 84.0166 241.931 85.8013 239.271L107.159 207.426C113.001 217.426 121.561 230.533 132.63 243.41C153.97 268.228 158.876 278.521 158.919 278.614C158.96 278.703 159.007 278.793 159.059 278.878L168.621 294.937C171.476 299.733 175.182 303.88 179.63 307.264L210.542 330.781L211.993 336.31C212.893 339.735 215.181 342.707 218.275 344.464C220.526 345.741 223.075 346.351 225.665 346.185L238.153 345.456L248.857 347.29C249.404 347.383 249.951 347.43 250.499 347.43C252.285 347.43 254.046 346.938 255.587 345.995L260.258 343.126C260.458 343.145 260.658 343.166 260.861 343.166C261.648 343.166 262.446 343.016 263.214 342.696C266.201 341.459 267.698 338.115 266.624 335.083L258.778 312.915L247.533 278.919C247.493 278.799 247.444 278.682 247.388 278.568L238.164 259.772L229.824 222.024L226.559 203.529C226.074 200.78 224.754 198.362 222.884 196.502L219.214 186.493L224.914 185.063C226.024 186.38 227.256 187.618 228.598 188.766C228.294 189.597 228.076 190.457 227.953 191.344C227.488 194.687 228.36 198.01 230.409 200.702C232.459 203.392 235.44 205.129 238.804 205.592C239.39 205.673 239.974 205.712 240.551 205.712C245.982 205.712 250.823 202.235 252.568 197.171C261.252 196.849 269.811 193.131 274.946 184.828C279.19 177.962 280.199 168.208 277.513 159.976C275.749 154.576 270.566 149.419 265.184 147.716ZM218.672 173.322C219.414 175.723 220.423 178.09 221.556 180.167L203.584 184.677C202.012 185.075 200.396 184.807 199.036 183.926C197.677 183.047 196.779 181.689 196.503 180.1C195.992 177.141 197.891 174.274 200.83 173.571L217.722 169.534C217.999 170.971 218.345 172.265 218.672 173.322ZM183.002 69.0443L182.068 34.2869C182.054 33.7471 181.881 33.2212 181.573 32.7774L177.745 27.282L175.749 11.8128C175.656 11.0838 175.795 10.3589 176.156 9.71478L177.488 7.32602C178.254 5.95982 179.851 5.2809 181.374 5.6774C182.764 6.04191 183.79 7.24116 183.925 8.663L184.449 14.1348C184.522 14.8846 184.896 15.5733 185.488 16.0435L190.774 20.2479C191.14 20.5386 191.336 20.9894 191.301 21.4541L191.042 24.7861L187.047 33.1697C186.762 33.7694 186.702 34.4511 186.877 35.091L193.978 61.0947C195.114 65.2532 195.747 69.5493 195.859 73.8635L196.152 85.1966C196.156 85.3886 196.181 85.5778 196.226 85.7642L202.317 111.377C202.364 111.575 202.432 111.764 202.522 111.946L210.797 128.985C213.709 134.982 214.638 141.618 213.485 148.177C212.949 151.215 210.19 153.393 207.106 153.306C205.043 153.23 203.156 152.149 202.056 150.414C198.621 144.989 196.108 139.081 194.588 132.854L189.519 112.066L183.002 69.0443ZM44.3991 328.921L51.6359 338.88C52.1972 339.655 52.3273 340.612 51.9914 341.508C51.6541 342.402 50.9234 343.04 49.9869 343.257L45.2166 344.363C44.8624 344.446 44.4999 344.457 44.1457 344.404L36.867 343.29C35.7178 343.115 34.7813 342.237 34.5378 341.106L32.7139 332.653L37.5599 320.393C37.648 320.172 37.7054 319.941 37.7348 319.706L41.8767 285.188C42.7376 278.014 44.7784 270.962 47.8201 264.383L60.4362 268.377L43.9722 326.537C43.7412 327.356 43.898 328.234 44.3991 328.921ZM136.886 239.794C115.401 214.805 103.228 188.104 103.108 187.837L97.9988 190.114C98.2003 190.561 100.264 195.088 104.072 201.993L81.1414 236.184C79.4729 238.671 77.6476 241.088 75.716 243.367L63.797 257.424C63.5394 257.729 63.3519 258.082 63.2427 258.463L61.9535 263.017L50.3789 259.352C50.9668 258.313 51.5757 257.285 52.2168 256.279L61.2144 242.158C61.3992 241.869 61.528 241.549 61.5938 241.215L68.4806 206.994C70.0749 199.071 72.8353 191.44 76.6846 184.318L80.1042 177.992C84.722 169.452 91.6845 162.479 100.241 157.826C104.215 155.664 108.497 154.064 112.912 153.036C121.63 191.853 139.868 200.933 144.835 202.715L157.682 224.472C159.786 228.038 161.73 231.751 163.459 235.512L181.763 275.313L165.08 278.066L163.942 276.154C163.247 274.721 157.741 264.05 136.886 239.794ZM200.478 215.509L214.096 256.904C214.14 257.033 214.192 257.161 214.253 257.282L242.025 312.492L241.551 319.54C241.222 324.437 244.778 328.753 249.66 329.41L250.35 330.662L248.785 330.923L228.315 321.297L188.204 275.932L168.551 233.198C166.742 229.268 164.71 225.385 162.51 221.657L151.309 202.687L157.263 202.386C161.944 202.153 166.545 202.846 170.943 204.451L174.996 205.931C178.433 207.188 182.033 207.825 185.698 207.825H199.528C199.358 210.408 199.662 213.024 200.478 215.509ZM249.807 341.808L238.785 339.92C238.575 339.884 238.359 339.87 238.146 339.886L225.337 340.634C223.825 340.705 222.356 340.375 221.053 339.635C219.259 338.617 217.932 336.892 217.41 334.908L215.716 328.454C215.559 327.854 215.204 327.323 214.708 326.947L183.032 302.848C179.153 299.899 175.925 296.284 173.436 292.105L168.137 283.204L184.755 280.462L224.494 325.406C224.746 325.691 225.054 325.922 225.398 326.083L247.185 336.328C247.562 336.505 247.971 336.595 248.382 336.595C248.536 336.595 248.693 336.583 248.847 336.558L253.202 335.83L255.298 339.63L252.642 341.262C251.795 341.779 250.783 341.975 249.807 341.808ZM224.332 223.103L232.765 261.292C232.811 261.507 232.885 261.717 232.982 261.915L242.269 280.839L253.475 314.71L261.34 336.933C261.428 337.182 261.306 337.458 261.058 337.561C260.822 337.654 260.546 337.564 260.423 337.338L253.885 325.488C253.452 324.704 252.668 324.176 251.777 324.066L250.452 323.902C248.461 323.654 247.006 321.901 247.139 319.912L247.663 312.11C247.696 311.617 247.597 311.123 247.374 310.681L219.357 254.978L205.801 213.779C204.561 210.009 204.903 205.83 206.739 202.311C208.129 199.646 210.941 198.04 213.997 198.228C217.533 198.448 220.43 201.024 221.042 204.493L224.332 223.103ZM215.569 192.811C215.166 192.748 214.759 192.701 214.344 192.676C209.102 192.331 204.179 195.13 201.769 199.75C201.345 200.561 201.002 201.406 200.694 202.263H185.698C182.694 202.263 179.744 201.741 176.927 200.711L172.873 199.231C167.763 197.364 162.414 196.559 156.978 196.831L146.449 197.364C142.471 195.779 126.421 187.307 118.434 152.074C119.811 151.909 121.194 151.783 122.58 151.734L149.847 150.777C149.964 150.773 150.08 150.76 150.195 150.744L192.393 143.975C193.769 147.231 195.411 150.374 197.316 153.381C199.403 156.673 202.985 158.725 206.897 158.87C207.043 158.875 207.189 158.878 207.334 158.877C208.665 158.877 209.953 158.644 211.163 158.228L209.628 165.747L199.519 168.163C193.724 169.549 189.976 175.207 190.985 181.046C191.518 184.135 193.339 186.885 195.981 188.594C197.835 189.793 200.001 190.419 202.184 190.419C203.111 190.419 204.042 190.306 204.953 190.078L213.756 187.869L215.569 192.811ZM224.025 171.689C222.299 166.101 222.362 161.217 224.197 158.287C226.868 154.026 234.649 151.98 237.418 151.553C238.196 151.435 238.888 150.998 239.323 150.347L241.322 147.373L246.656 150.105C246.981 150.271 247.335 150.372 247.701 150.404C247.803 150.412 258.063 151.3 263.483 153.017C264.407 153.309 265.339 153.771 266.238 154.354C259.58 167.063 248.781 185.903 243.707 190.61C242.535 190.291 241.386 189.914 240.285 189.459C234.651 187.131 229.971 183.289 227.11 178.639C225.896 176.667 224.799 174.2 224.025 171.689ZM239.568 200.078C237.685 199.82 236.018 198.849 234.872 197.343C233.759 195.882 233.28 194.086 233.492 192.272C234.968 193.144 236.518 193.928 238.137 194.596C240.773 195.685 243.615 196.45 246.53 196.859C245.077 199.12 242.401 200.476 239.568 200.078ZM270.174 181.916C265.731 189.103 257.927 191.924 250.234 191.625C257.048 183.144 266.368 166.068 270.431 158.394C271.197 159.457 271.821 160.577 272.187 161.695C274.386 168.44 273.596 176.377 270.174 181.916Z" fill="#2F3547" fill-opacity="0.47"/>
</svg>
