<svg width="331" height="350" viewBox="0 0 331 350" fill="none" xmlns="http://www.w3.org/2000/svg">
<path d="M148.281 52.4463C163.917 62.38 179.417 73.9466 184.719 89.0513C190.022 104.156 184.991 122.935 180.64 143.482C176.153 164.03 172.346 186.347 159.158 194.92C145.969 203.357 123.535 198.05 99.3331 200.635C74.9953 203.085 49.0259 213.427 37.4688 204.309C25.9118 195.328 28.903 166.888 21.8328 142.394C14.8986 118.036 -2.0971 97.4881 0.214312 80.8866C2.38976 64.4212 23.8723 51.7659 43.9952 43.3291C63.9821 34.8923 82.4734 30.5378 99.741 32.4429C116.873 34.3479 132.645 42.6487 148.281 52.4463Z" fill="#DCEAFD"/>
<path d="M166.302 343.789C166.302 347.214 169.102 350 172.556 350C210.609 349.822 211.046 349.585 211.844 349.151L213.363 348.328C222.217 343.522 228.289 334.711 229.606 324.758L229.993 321.832L274.726 313.123C286.738 310.785 298.378 306.837 309.325 301.391L318.378 296.887C326.164 293.014 331 285.226 331 276.565C331 271.333 329.167 266.225 325.838 262.177L323.025 258.757C319.192 254.094 313.765 251.179 307.744 250.547C295.326 249.247 282.792 249.68 270.58 251.827L248.56 255.015C248.575 254.786 248.596 254.558 248.582 254.327L247.404 234.398C247.232 231.465 244.784 229.168 241.831 229.168H241.43L241.26 226.288L249.097 205.519C249.537 204.529 250.045 203.563 250.606 202.651L257.745 191.023C262.746 182.881 263.53 172.76 259.843 163.951C258.647 161.094 257.018 158.449 255.001 156.09L233.848 131.331C233.27 127.994 232.002 124.937 230.137 122.427C227.771 119.242 224.624 116.873 221.035 115.471L220.174 114.042C220.173 114.041 220.171 114.038 220.17 114.037L220.661 97.1879C221.525 97.0588 222.383 96.8907 223.235 96.6601C243.645 91.1171 252.141 57.7044 245.568 33.7363C239.133 10.2584 217.356 -4.35275 197.049 1.16532C187.125 3.85978 179.049 10.8709 174.312 20.9071C173.886 21.8098 173.503 22.7321 173.14 23.6626C172.528 23.5821 171.918 23.5307 171.31 23.5307C162.359 23.5307 155.077 31.7779 155.077 41.9141C155.077 52.0502 162.359 60.2975 171.31 60.2975C172.213 60.2975 173.113 60.2072 174.005 60.035C175.997 65.017 178.686 69.9003 181.869 74.4142L180.541 89.2365C176.041 88.7129 171.419 89.4851 167.197 91.5865C159.34 95.4963 152.953 101.606 148.791 109.082C135.689 128.844 126.726 148.638 122.144 168.017L114.731 199.365C114.684 199.572 114.659 199.786 114.659 199.999V217.727C114.659 219.844 115.841 221.748 117.745 222.697L137.472 232.512L134.989 245.118C134.843 245.757 134.738 246.404 134.611 247.047L112.192 256.94C108.806 258.434 105.209 259.193 101.502 259.193H94.1872C93.9248 259.193 93.6638 259.229 93.4097 259.302L59.4467 269.091C59.2681 269.143 59.0936 269.212 58.9275 269.298L51.9152 272.954C49.488 274.219 47.6847 276.343 46.8346 278.934L43.5141 289.071C42.5846 291.907 42.9265 295.005 44.4507 297.575C45.9749 300.143 48.5389 301.936 51.4853 302.494C52.1316 302.617 52.7848 302.678 53.4366 302.678C53.9181 302.678 54.4011 302.644 54.8798 302.578L68.4019 300.7C72.3533 300.151 76.0479 298.501 79.0851 295.925L83.7176 291.998C85.8782 290.165 88.505 288.966 91.3119 288.532L101.978 286.882C105.903 286.275 109.557 284.578 112.547 281.975L115.267 279.605L136.25 279.148L137.569 283.964C141.466 298.182 151.697 312.192 164.372 321.421C162.306 321.949 160.49 323.267 159.396 325.174C158.061 327.496 157.983 330.311 159.185 332.704C160.325 334.974 162.462 336.554 164.955 336.994L169.014 338.661C167.322 339.811 166.302 341.707 166.302 343.789ZM318.705 262.272L321.519 265.694C324.034 268.751 325.418 272.609 325.418 276.562C325.418 283.105 321.764 288.989 315.883 291.915L306.83 296.419C296.334 301.641 285.172 305.426 273.655 307.669L230.762 316.019L236.803 270.34L277.058 268.298C283.01 268.139 288.957 268.791 294.734 270.229L302.408 272.139L303.763 266.748L296.089 264.839C295.613 264.721 295.135 264.616 294.657 264.508L302.152 255.651C303.823 255.761 305.494 255.894 307.162 256.069C311.711 256.547 315.81 258.75 318.705 262.272ZM238.641 264.684L237.546 264.74L237.585 264.444C237.934 264.561 238.285 264.639 238.641 264.684ZM271.469 257.311C279.272 255.94 287.17 255.311 295.073 255.393L288.326 263.365C284.538 262.857 280.704 262.643 276.843 262.748L240.685 264.582C241.853 264.297 242.928 263.647 243.72 262.664L244.935 261.154L271.469 257.311ZM243.011 254.654L239.361 259.193L232.006 256.447L233.155 234.722H241.832L243.011 254.654ZM254.688 166.085C257.691 173.258 257.053 181.497 252.981 188.124L245.841 199.752C245.136 200.899 244.502 202.112 243.953 203.356C243.933 203.402 243.916 203.448 243.898 203.494L240.452 212.626L237.479 162.337C237.476 162.285 237.472 162.234 237.466 162.183L235.046 141.308L250.748 159.687C252.391 161.606 253.715 163.759 254.688 166.085ZM221.768 91.2976C210.426 94.3754 196.547 84.8698 187.034 71.8684C187.644 67.8267 190.655 53.0197 202.83 44.1558C214.975 35.3127 227.075 23.7418 231.891 18.9973C235.576 23.5237 238.485 29.0002 240.185 35.196C245.934 56.16 238.415 86.7768 221.768 91.2976ZM171.31 54.7419C165.436 54.7419 160.66 48.9877 160.66 41.9141C160.66 34.8405 165.438 29.0863 171.31 29.0863C171.345 29.0863 171.381 29.0946 171.416 29.0946C169.474 36.9432 169.601 45.4433 171.879 53.7461C171.966 54.0628 172.066 54.3808 172.16 54.6989C171.878 54.7266 171.593 54.7419 171.31 54.7419ZM179.365 23.2696C183.396 14.732 190.197 8.7848 198.517 6.52507C200.938 5.86812 203.384 5.55284 205.817 5.55284C213.857 5.55284 221.739 9.01674 228.084 14.9237C223.448 19.4835 211.339 31.0738 199.532 39.671C189.224 47.1766 184.697 58.0975 182.747 65.2392C180.35 61.0197 178.453 56.6183 177.264 52.2822C174.517 42.2641 175.263 31.9599 179.365 23.2696ZM186.906 80.7781C195.041 89.9351 205.179 96.5088 215.075 97.349L214.768 107.862C213.971 107.217 213.141 106.614 212.266 106.078L190.246 92.5948C188.894 91.7671 187.481 91.0865 186.031 90.549L186.906 80.7781ZM179.133 94.706C181.979 94.9143 184.784 95.774 187.319 97.3268L199.157 104.575C194.764 107.121 191.68 111.991 188.874 116.462C186.102 120.877 183.235 125.442 179.57 127.101C176.053 128.692 172.724 128.589 169.936 126.803C166.834 124.816 164.906 120.984 164.906 116.805C164.906 110.342 174.489 99.374 179.133 94.706ZM169.695 96.556C169.787 96.5101 169.885 96.481 169.977 96.4365C165.157 102.096 159.323 110.292 159.323 116.805C159.323 122.853 162.23 128.474 166.913 131.476C169.308 133.009 171.974 133.781 174.756 133.781C177.081 133.781 179.488 133.242 181.88 132.16C187.078 129.809 190.398 124.521 193.608 119.406C197.799 112.731 200.751 108.582 205.352 108.371L209.34 110.813C210.783 111.696 212.077 112.805 213.219 114.05C208.863 114.096 204.642 115.487 201.087 118.138C194.119 123.338 190.22 131.61 190.654 140.266L191.558 158.263C192.408 175.188 195.077 192.067 199.49 208.434L204.636 227.525L199.009 227.752L161.019 208.854C164.568 204.808 170.451 197.954 171.589 195.688C173.685 191.515 170.214 175.141 164.436 166.516C159.153 158.626 148.157 142.214 148.157 130.555C148.157 126.728 149.334 121.834 151.655 116.009C152.259 114.489 152.996 113.041 153.793 111.628C154.964 109.871 156.16 108.114 157.4 106.357C160.719 102.319 164.877 98.9532 169.695 96.556ZM205.012 270.025C200.305 269.458 190.359 267.89 182.904 264.18C170.564 258.041 161.844 248.782 156.681 242.068L158.075 242.761C158.279 242.862 158.495 242.938 158.717 242.987L196.029 251.237L206.413 256.772L205.012 270.025ZM160.985 171.59C165.349 179.53 167.198 191.276 166.596 193.201C165.894 194.599 160.822 200.665 155.859 206.283L148.88 202.811L160.985 171.59ZM120.242 200.322L127.579 169.288C130.61 156.474 135.636 143.446 142.581 130.348C142.581 130.414 142.574 130.488 142.574 130.555C142.574 142.185 151.085 156.378 157.255 165.78L143.67 200.816C142.633 203.501 143.799 206.494 146.383 207.78L197.155 233.041C197.545 233.233 197.972 233.333 198.404 233.333C198.442 233.333 198.48 233.333 198.519 233.331L206.12 233.023L208.136 240.5L207.045 250.808L198.328 246.162C198.103 246.043 197.863 245.955 197.616 245.9L160.265 237.64L120.242 217.727V200.322ZM114.133 274.075C113.478 274.089 112.848 274.332 112.356 274.761L108.872 277.796C106.679 279.704 103.999 280.948 101.123 281.394L90.4549 283.044C86.6263 283.637 83.0448 285.272 80.097 287.771L75.4658 291.697C73.2382 293.585 70.529 294.796 67.6315 295.198L54.1079 297.076C53.5845 297.148 53.0541 297.136 52.5293 297.037C51.1392 296.775 49.9779 295.962 49.2591 294.75C48.5389 293.537 48.3839 292.133 48.8222 290.794L52.1427 280.658C52.5377 279.453 53.3766 278.465 54.5057 277.876L61.271 274.35L94.5836 264.747H101.504C105.995 264.747 110.354 263.827 114.458 262.016L133.651 253.547C133.021 260.25 133.423 267.037 134.848 273.623L114.133 274.075ZM142.956 282.504L141.064 275.594C138.455 266.079 138.237 255.966 140.452 246.266L142.655 235.088L146.548 237.026C148.844 241.086 159.788 258.891 180.409 269.151C188.715 273.283 199.386 274.959 204.428 275.557L202.608 292.765C202.603 292.825 202.599 292.885 202.596 292.944L201.379 323.232C201.358 323.754 201.069 324.079 200.899 324.226C200.727 324.372 200.354 324.61 199.841 324.558L176.192 322.124C160.939 314.605 147.308 298.386 142.956 282.504ZM166.778 331.735C166.548 331.64 166.306 331.576 166.059 331.546C165.235 331.443 164.55 330.961 164.18 330.222C163.809 329.485 163.833 328.65 164.244 327.932C164.723 327.099 165.653 326.628 166.612 326.722L199.264 330.083C201.171 330.283 203.101 329.675 204.551 328.424C206.001 327.174 206.878 325.361 206.955 323.453L208.169 293.254L213.742 240.566C213.777 240.227 213.751 239.884 213.661 239.555L204.882 206.991C200.571 191.004 197.963 174.515 197.133 157.981L196.228 139.984C195.886 133.176 198.954 126.669 204.434 122.578C207.669 120.163 211.651 119.151 215.663 119.738C219.666 120.32 223.211 122.448 225.647 125.726C227.175 127.782 228.16 130.395 228.494 133.281L231.909 162.738L235.84 229.166H233.156C230.184 229.166 227.736 231.479 227.581 234.43L226.433 256.154C226.303 258.584 227.756 260.791 230.048 261.648L232.217 262.458L224.074 324.032C222.989 332.232 217.985 339.49 210.69 343.45L209.653 344.012C206.187 344.215 185.435 344.383 172.545 344.443C172.182 344.443 171.886 344.149 171.886 343.787C171.886 343.667 171.918 343.551 171.978 343.451L180.393 343.051C181.7 342.99 182.787 342.035 183.01 340.753C183.234 339.471 182.533 338.207 181.324 337.71L166.778 331.735Z" fill="#2F3547" fill-opacity="0.47"/>
</svg>
