<svg width="347" height="305" viewBox="0 0 347 305" fill="none" xmlns="http://www.w3.org/2000/svg">
<path d="M161.04 19.5812C182.162 17.1994 205.497 29.8554 219.596 48.9347C233.559 68.0741 238.223 93.4956 240.54 118.77C242.72 144.104 242.355 169.21 229.743 183.523C217.069 197.695 191.95 200.993 170.234 208.692C148.382 216.452 129.934 228.614 110.228 229.025C90.658 229.375 69.8432 217.633 54.9251 200.768C39.9449 183.762 30.6007 161.411 28.657 138.838C26.7755 116.406 32.1703 93.4694 45.6268 79.9646C59.2198 66.3997 80.7501 61.9839 100.975 50.895C121.199 39.8061 139.981 22.1042 161.04 19.5812Z" fill="#FCEEDD"/>
<path d="M321.37 229.726C312.987 220.196 305.069 211.194 301.339 202.458L300.239 199.88C299.585 195.336 293.525 154.7 284.038 137.716C278.801 128.343 264.471 118.992 249.764 110.285C234.604 101.308 210.612 96.2678 193.951 98.5449L137.679 106.258L137.68 106.271C137.385 106.311 137.094 106.386 136.822 106.522L103.503 123.104C94.3925 127.637 86.3759 133.825 79.6703 141.501C67.4513 155.535 43.1309 188.426 29.2473 213.684C27.2597 217.299 25.3304 220.783 23.4717 224.141C14.7135 239.963 7.79458 252.459 3.62269 262.533C-0.0738025 271.456 -0.962236 281.155 1.05302 290.58C2.0953 295.46 5.50628 299.408 10.1771 301.145L12.6525 302.062C17.8931 304.008 23.4731 305 29.0574 305C31.0311 305 33.0061 304.876 34.9659 304.626L45.1642 303.323L142.124 294.972L216.786 302.838C220.134 303.18 223.287 301.482 224.831 298.488C225.429 297.328 225.712 296.087 225.724 294.863L234.557 299.291C234.912 299.469 235.301 299.568 235.698 299.583L334.773 303.119C334.925 303.126 335.076 303.129 335.229 303.129C336.336 303.129 337.431 302.951 338.49 302.596C341.911 301.453 344.523 298.551 345.305 295.022C347.143 286.735 347.488 278.267 346.332 269.856C344.418 255.926 332.7 242.608 321.37 229.726ZM194.704 104.051C210.015 101.95 232.965 106.792 246.945 115.07C260.311 122.985 274.595 132.186 279.2 140.433C285.846 152.327 290.901 177.753 293.286 191.587C293.083 191.457 292.885 191.321 292.675 191.202C286.715 187.787 279.266 188.187 273.702 192.219L271.217 194.021C267.935 196.399 265.561 199.874 264.532 203.802C262.383 212.015 263.476 220.749 267.41 228.141C261.615 227.341 254.01 225.792 250.751 223.251C248.779 221.714 246.513 217.395 243.889 212.395C239.245 203.543 232.884 191.419 221.21 179.716C203.984 162.45 170.844 158.819 162.893 158.186L142.089 111.263L194.704 104.051ZM173.599 262.821C167.733 259.787 160.505 260.726 155.608 265.167C153.294 267.263 150.199 268.204 147.116 267.742L87.9836 258.92C80.8886 257.862 73.5636 258.267 66.6224 260.082L73.0161 253.277L84.9815 252.599C89.5859 252.336 94.2248 252.607 98.7654 253.403L149.751 262.341C153.955 263.079 158.234 261.688 161.207 258.627L166.576 253.099C168.27 251.355 170.71 250.568 173.097 250.983C174.386 251.207 175.593 251.774 176.59 252.621L202.445 274.596C201.77 275.278 201.283 276.106 201.009 277.015L173.599 262.821ZM162.832 163.765C170.863 164.478 201.857 168.177 217.289 183.645C224.905 191.28 230.184 199.19 234.195 206.163C233.113 206.651 232.022 207.16 230.927 207.693C228.349 208.953 225.896 210.651 223.619 212.661C219.158 208.843 212.628 207.222 205.865 208.41C194.749 210.363 187.293 221.017 189.241 232.16C190.891 241.588 199.325 248.409 209.054 248.668C209.869 254.395 212.144 260.178 215.505 265.417L197.994 263.526L180.174 248.379C178.425 246.893 176.306 245.9 174.047 245.505C169.851 244.771 165.574 246.162 162.604 249.22L157.234 254.748C155.539 256.492 153.094 257.279 150.708 256.865L99.7218 247.928C94.7626 247.057 89.6995 246.762 84.6697 247.047L78.5421 247.394L104.057 220.237C104.115 220.176 104.169 220.112 104.221 220.046C109.817 212.886 117.377 207.744 126.081 205.178C140.354 200.972 151.789 190.649 157.455 176.858L162.832 163.765ZM208.77 243.107C201.824 242.751 195.868 237.875 194.701 231.202C193.28 223.078 198.718 215.311 206.822 213.885C211.788 213.016 216.488 214.077 219.692 216.642C213.329 224.022 209.104 233.912 208.77 243.107ZM209.28 273.121L205.526 269.929L220.129 271.506C221.158 272.662 222.244 273.768 223.38 274.817L209.28 273.121ZM235.336 276.253C233.957 275.699 232.716 275.067 231.673 274.358C222.133 267.865 215.339 256.936 214.366 246.518C213.196 234.014 222.072 218.206 233.355 212.689C234.545 212.11 235.725 211.567 236.898 211.046C237.633 212.414 238.327 213.735 238.981 214.981C241.387 219.568 243.286 223.177 245.342 225.647C243.787 250.188 250.969 269.611 253.985 276.545C253.444 276.745 252.92 276.936 252.421 277.108C251.547 277.412 250.541 277.655 249.443 277.84H248.524L235.336 276.253ZM294.887 265.727L294.268 262.463C298.612 267.847 302.638 272.834 305.482 276.356L302.469 276.053C302.33 276.038 302.194 276.034 302.054 276.044L266.304 277.839H265.532C271.97 275.056 278.063 272.186 279.553 271.478L292.682 268.975C294.186 268.69 295.174 267.234 294.887 265.727ZM287.447 256.258L288.923 264.037L278.169 266.088C277.936 266.132 277.711 266.206 277.497 266.307C277.371 266.367 267.626 271.005 259.159 274.504C256.595 268.593 250.115 251.365 250.71 229.618C257.441 232.729 267.796 233.88 271.518 234.206C274.858 238.382 281.198 246.255 287.77 254.406C287.462 254.962 287.324 255.608 287.447 256.258ZM44.5779 297.801L34.2674 299.113C27.6436 299.96 20.8383 299.175 14.5777 296.85L12.1023 295.933C9.22079 294.862 7.11682 292.427 6.47371 289.417C4.69546 281.099 5.47994 272.541 8.74261 264.664C12.7939 254.882 19.645 242.507 28.3186 226.839C30.18 223.476 32.1135 219.984 34.1025 216.365C47.799 191.449 71.7922 159.001 83.845 145.16C90.0668 138.035 97.5097 132.289 105.967 128.081L136.696 112.79L158.02 160.883L152.326 174.744C147.305 186.969 137.168 196.119 124.515 199.848C114.736 202.73 106.239 208.495 99.9338 216.519L55.8434 263.445L29.1738 271.969L30.8578 277.264L45.9431 272.443L51.8129 297.177L44.5779 297.801ZM219.904 295.939C219.416 296.885 218.421 297.424 217.364 297.313L142.44 289.419C142.265 289.402 142.088 289.399 141.913 289.415L57.4013 296.695L51.2433 270.748L65.6106 266.156C72.5296 263.947 79.985 263.342 87.1673 264.415L146.3 273.237C151.029 273.935 155.778 272.502 159.327 269.286C162.519 266.392 167.234 265.778 171.056 267.758L218.806 292.482C220.058 293.134 220.551 294.684 219.904 295.939ZM339.894 293.819C339.531 295.453 338.321 296.797 336.737 297.327C336.179 297.512 335.601 297.599 334.993 297.567L236.496 294.052L206.439 278.988C206.332 278.935 206.266 278.828 206.266 278.707C206.266 278.614 206.3 278.535 206.371 278.474C206.44 278.411 206.524 278.386 206.616 278.396L248.026 283.377C248.136 283.39 248.247 283.397 248.356 283.397L266.439 283.393L302.122 281.605L319.86 283.383L320.412 277.854L313.242 277.134C308.502 271.266 282.061 238.525 275.095 229.796C269.608 222.92 267.662 213.73 269.892 205.213C270.595 202.526 272.218 200.15 274.463 198.526L276.948 196.723C280.754 193.967 285.845 193.69 289.923 196.027C292.175 197.318 293.977 199.345 294.997 201.731L296.24 204.646C300.32 214.202 308.524 223.529 317.209 233.401C327.996 245.665 339.151 258.346 340.838 270.617C341.906 278.372 341.589 286.177 339.894 293.819Z" fill="#2F3547" fill-opacity="0.47"/>
</svg>
