<svg width="253" height="345" viewBox="0 0 253 345" fill="none" xmlns="http://www.w3.org/2000/svg">
<path d="M218.935 30.6786C230.302 46.9461 230.302 70.9406 234.226 91.546C238.285 112.152 246.134 129.639 245.998 148.753C245.863 168.003 237.744 189.015 222.453 204.198C207.027 219.517 184.565 228.871 166.027 223.448C147.489 218.026 132.875 197.691 113.795 183.728C94.8511 169.765 71.3063 161.903 63.8639 147.127C56.4216 132.215 64.9465 110.254 72.7947 88.5637C80.643 67.0093 87.8147 45.726 102.564 30.543C117.313 15.3601 139.776 6.27738 162.238 6.00626C184.836 5.73514 207.569 14.2756 218.935 30.6786Z" fill="#F3F5E9"/>
<path d="M251.885 312.36L247.241 304.39L247.989 303.014C249.34 300.529 249.066 297.5 247.295 295.298L242.178 288.933C244.056 288.124 245.532 286.499 246.123 284.486L246.506 283.177C247.035 281.372 246.824 279.472 245.915 277.828C245.006 276.181 243.511 274.999 241.706 274.495L230.587 271.391L219.47 235.212C219.402 234.99 219.307 234.777 219.187 234.58L199.172 201.683L195.557 160.648C194.908 153.284 193.516 145.959 191.423 138.873L188.191 127.934C186.373 121.784 181.932 116.883 176.008 114.488L165.41 110.205L165.398 110.236C165.266 110.181 165.144 110.109 165.001 110.075L141.433 104.585V91.8514C150.805 82.6893 157.052 66.8963 157.052 53.0005C157.052 41.2471 152.387 30.7426 145.101 23.8525C145.317 22.913 145.515 21.8927 145.515 20.8138C145.515 9.33778 136.22 0 124.793 0C113.369 0 104.073 9.33638 104.073 20.8138C104.073 21.9749 104.29 22.9479 104.525 23.8177C97.2191 30.7077 92.537 41.2276 92.537 53.0019C92.537 66.8977 98.7845 82.6921 108.156 91.8542V104.806L84.5687 110.068C84.4174 110.102 84.287 110.178 84.1468 110.234L84.1343 110.202L74.1594 114.235C67.8383 116.791 63.102 122.018 61.1648 128.578L57.9522 139.448C55.9705 146.152 54.655 153.082 54.0416 160.047L50.3725 201.681L30.356 234.579C30.2367 234.777 30.1409 234.989 30.0729 235.21L18.9559 271.389L8.41479 274.332C6.45533 274.878 4.83308 276.162 3.84641 277.948C2.85975 279.732 2.63354 281.795 3.20528 283.745L3.31769 284.131C3.938 286.248 5.46311 287.968 7.41424 288.87L2.24637 295.295C0.578335 297.369 0.259159 300.169 1.35129 302.564L0.482582 306.856C-1.4519 316.424 2.54335 326.213 10.4256 331.217C10.8849 331.508 11.354 331.784 11.8341 332.048C15.4811 334.037 19.6081 335.074 23.7449 335.074C24.955 335.074 26.1665 334.986 27.3669 334.806L52.6705 331.021C52.8981 330.987 53.1202 330.924 53.3325 330.834L115.074 304.888L197.569 340.58C197.783 340.672 198.008 340.737 198.238 340.774L223.264 344.7C224.537 344.901 225.815 345 227.087 345C231.825 345 236.485 343.628 240.514 341.005L241.738 340.208C245.115 338.008 247.932 334.978 249.885 331.444C253 325.811 253.812 319.28 252.17 313.054C252.107 312.811 252.009 312.576 251.885 312.36ZM182.868 129.52L186.1 140.46C188.088 147.188 189.409 154.145 190.026 161.14L193.698 202.826C193.735 203.254 193.871 203.668 194.093 204.033L214.266 237.188L225.727 274.491C226.006 275.398 226.727 276.101 227.637 276.354L240.217 279.866C240.704 280.002 240.952 280.342 241.058 280.533C241.163 280.724 241.319 281.116 241.176 281.605L240.794 282.913C240.644 283.423 240.21 283.81 239.691 283.897L236.713 284.394C235.738 284.556 234.924 285.228 234.574 286.153C234.223 287.08 234.388 288.124 235.009 288.897L242.974 298.802C243.328 299.241 243.382 299.847 243.113 300.343L240.536 305.09C240.218 305.672 239.528 305.95 238.9 305.752L234.191 304.259C234.012 304.202 233.843 304.108 233.703 303.987L219.612 291.856C219.304 291.591 219.126 291.204 219.126 290.797V281.719C219.126 281.241 219.004 280.772 218.771 280.355L179.15 209.401L169.06 173.731C171.505 164.595 172.21 154.934 171.086 145.559L167.682 117.135L173.927 119.66C178.279 121.415 181.534 125.011 182.868 129.52ZM189.869 297.001L193.778 332.872L122.222 301.912L145.366 292.814C155.988 293.409 181.606 295.155 189.869 297.001ZM119.191 297.117L60.9955 321.571L63.5739 290.33L70.5041 286.849C78.0436 283.062 109.828 280.744 121.439 280.171C121.858 280.149 122.267 280.033 122.635 279.831L133.744 273.72C136.532 272.187 138.731 269.715 139.94 266.76L141.471 263.013C142.639 260.152 145.266 258.169 148.327 257.84C149.848 257.68 151.394 257.937 152.785 258.593L167.65 265.62C168.143 265.853 168.691 265.933 169.232 265.857L184.976 263.557C186.615 263.32 188.274 263.568 189.77 264.28L202.686 270.434C202.929 270.55 203.048 270.822 202.97 271.077C202.901 271.307 202.694 271.462 202.455 271.462H183.055C182.689 271.462 182.328 271.534 181.989 271.675L151.167 284.546L119.191 297.117ZM54.7674 263.897C54.401 264.878 54.2706 265.907 54.3386 266.918L42.0961 271.463L75.3889 211.842C75.493 211.656 75.5749 211.46 75.6345 211.255L83.4238 184.333C85.9966 196.241 85.3721 208.524 81.524 220.241L78.0394 230.861L70.8691 256.417L59.6189 259.466C57.393 260.071 55.5792 261.727 54.7674 263.897ZM89.2161 212.585H160.326C160.928 215.746 161.727 218.888 162.746 221.991L164.993 228.832H84.5492L86.796 221.989C87.8145 218.886 88.6139 215.746 89.2161 212.585ZM125.352 271.979C123.688 268.339 120.759 265.348 117.132 263.657C113.757 262.079 109.897 261.67 106.267 262.51L95.5636 264.974L86.2714 258.027C83.5529 255.995 80.2945 255.001 76.9959 255.138L82.809 234.41H166.835L175.19 259.356L169.257 260.223L155.147 253.553C152.835 252.461 150.273 252.025 147.733 252.302C142.645 252.85 138.276 256.145 136.332 260.901L134.801 264.648C134.076 266.426 132.752 267.913 131.074 268.836L125.352 271.979ZM59.9644 265.857C60.149 265.363 60.5625 264.987 61.0662 264.849L75.2085 261.017C77.8923 260.29 80.7205 260.825 82.9561 262.499L93.278 270.214C93.9316 270.702 94.7642 270.879 95.5552 270.695L107.506 267.943C109.947 267.386 112.53 267.658 114.795 268.714C117.341 269.902 119.367 272.044 120.451 274.638C115.987 274.87 98.9538 275.843 85.053 277.836L74.5924 268.349C74.0525 267.861 73.3392 267.608 72.6232 267.633L61.5547 268.069C60.7637 268.073 60.3224 267.606 60.1698 267.392C60.0157 267.175 59.6882 266.597 59.9644 265.857ZM192.147 259.241C189.658 258.057 186.898 257.64 184.176 258.038L180.774 258.536L171.468 230.746L168.019 220.244C164.135 208.41 163.535 196.004 166.196 183.989L173.904 211.241C173.964 211.45 174.047 211.652 174.154 211.843L203.695 264.744L192.147 259.241ZM124.792 5.57423C132.831 5.57423 139.411 11.8928 139.912 19.8436C135.399 17.0433 130.252 15.4487 124.792 15.4487C119.331 15.4487 114.185 17.0419 109.671 19.8422C110.173 11.8928 116.753 5.57423 124.792 5.57423ZM124.792 21.0243C137.205 21.0243 147.667 31.2179 150.648 44.9813C144.704 36.2931 135.313 30.8987 124.792 30.8987C114.292 30.8987 104.666 36.8841 98.6929 46.2372C101.292 31.8438 112.004 21.0243 124.792 21.0243ZM98.7761 60.6433C101.676 46.6122 112.542 36.4743 124.792 36.4743C137.424 36.4743 148.115 46.0505 150.95 59.8097C148.391 76.3414 137.192 93.9883 124.792 93.9883C112.599 93.9883 101.575 76.9283 98.7761 60.6433ZM124.792 99.5639C128.691 99.5639 132.426 98.3498 135.88 96.2339V115.342C135.88 121.482 130.906 126.477 124.792 126.477C118.679 126.477 113.705 121.482 113.705 115.342V96.2339C117.159 98.3498 120.892 99.5639 124.792 99.5639ZM108.153 110.514V115.342C108.153 124.557 115.616 132.053 124.79 132.053C133.965 132.053 141.429 124.557 141.429 115.342V110.307L161.847 115.064L165.578 146.225C166.759 156.083 165.759 166.285 162.685 175.724C159.36 185.937 158.297 196.542 159.476 207.008H90.0613C91.2408 196.542 90.1778 185.937 86.8529 175.723C83.7791 166.285 82.7785 156.083 83.9595 146.225L87.6896 115.082L108.153 110.514ZM6.56496 298.8L14.5305 288.895C15.1508 288.123 15.3159 287.079 14.9648 286.152C14.6151 285.227 13.8005 284.555 12.8263 284.393L10.2147 283.957C9.47223 283.833 8.85469 283.283 8.64237 282.564L8.53135 282.178C8.38009 281.665 8.43976 281.123 8.69788 280.655C8.95877 280.186 9.38341 279.849 9.89826 279.704L21.9006 276.354C22.811 276.099 23.5312 275.398 23.8101 274.491L35.2713 237.188L55.4446 204.033C55.6666 203.666 55.8026 203.252 55.8401 202.826L59.5661 160.54C60.1476 153.944 61.3924 147.382 63.2686 141.035L66.4811 130.166C67.9355 125.245 71.4866 121.324 76.2285 119.408L81.8515 117.134L78.4474 145.557C77.3067 155.069 78.0575 164.873 80.5901 174.125L70.3876 209.392L30.7682 280.355C30.535 280.772 30.4129 281.241 30.4129 281.719V290.797C30.4129 291.204 30.2353 291.59 29.9272 291.856L15.8377 303.987C15.6961 304.108 15.5268 304.202 15.3506 304.258L10.6407 305.752C10.0051 305.951 9.32097 305.672 9.00318 305.088L6.42619 300.343C6.15697 299.846 6.21109 299.241 6.56496 298.8ZM51.5104 325.558L26.5495 329.292C22.4266 329.915 18.1455 329.147 14.4847 327.15C14.1114 326.946 13.7464 326.73 13.3911 326.506C7.9041 323.022 4.93438 316.407 5.67126 309.659C6.93409 310.763 8.55356 311.392 10.2341 311.392C10.9266 311.392 11.6274 311.287 12.3143 311.07L17.027 309.574C17.9234 309.288 18.7366 308.834 19.4499 308.22L33.5408 296.089C35.0798 294.762 35.9638 292.833 35.9638 290.797V282.448L37.9094 278.965L56.8476 271.933C58.2062 273.097 59.9602 273.731 61.7726 273.639L71.7114 273.249L78.0478 278.997C73.768 279.82 70.1988 280.77 68.0215 281.864L38.8794 296.5L41.362 301.488L57.7621 293.251L55.2253 323.999L51.5104 325.558ZM245.033 328.739C243.518 331.478 241.335 333.825 238.717 335.53L237.493 336.329C233.532 338.909 228.785 339.921 224.12 339.194L199.631 335.351L195.728 299.531C202.722 303.586 213.441 311.7 217.765 315.122L221.199 310.741C220.385 310.095 201.144 294.914 193.337 292.178C188.216 290.384 170.017 288.86 157.392 287.986L183.609 277.039H202.453C205.098 277.039 207.387 275.36 208.219 272.851L213.578 282.448V290.797C213.578 292.833 214.462 294.762 216.001 296.089L230.093 308.22C230.805 308.832 231.62 309.288 232.518 309.575L237.23 311.07C237.917 311.287 238.618 311.392 239.309 311.392C240.991 311.392 242.613 310.761 243.876 309.656L246.896 314.839C248.046 319.556 247.388 324.478 245.033 328.739Z" fill="#2F3547" fill-opacity="0.47"/>
</svg>
